<?xml version="1.0" encoding="UTF-8"?>
<svg version="1.1" xmlns="http://www.w3.org/2000/svg" width="75" height="100">
<path d="M0 0 C4.16619433 4.58037739 4.89107897 9.848066 4.68359375 15.79296875 C3.24305118 26.88029081 -2.81303561 36.88370908 -11.41015625 43.8984375 C-19.93258983 49.83607753 -29.09977257 52.57494839 -39.46875 51.05859375 C-44.036887 49.92672598 -47.95357104 48.48437476 -50.76171875 44.45703125 C-54.2594096 36.74999816 -54.37450507 28.39057492 -51.6640625 20.46875 C-47.8620123 10.90601767 -39.71774898 2.40567064 -30.77734375 -2.62890625 C-21.12414384 -6.75069771 -8.39316768 -7.04207239 0 0 Z " fill="#D9F1F8" transform="translate(60.6640625,24.53125)"/>
<path d="M0 0 C4.16619433 4.58037739 4.89107897 9.848066 4.68359375 15.79296875 C3.24305118 26.88029081 -2.81303561 36.88370908 -11.41015625 43.8984375 C-19.93258983 49.83607753 -29.09977257 52.57494839 -39.46875 51.05859375 C-44.036887 49.92672598 -47.95357104 48.48437476 -50.76171875 44.45703125 C-54.2594096 36.74999816 -54.37450507 28.39057492 -51.6640625 20.46875 C-47.8620123 10.90601767 -39.71774898 2.40567064 -30.77734375 -2.62890625 C-21.12414384 -6.75069771 -8.39316768 -7.04207239 0 0 Z M-44.8828125 12.140625 C-49.61011092 18.68909576 -50.81697375 22.73683942 -50.9140625 30.84375 C-50.93984375 32.13023438 -50.965625 33.41671875 -50.9921875 34.7421875 C-50.58128582 39.40885662 -49.12306491 42.62913827 -46.2265625 46.28125 C-40.89068645 50.3365158 -32.00189123 48.92145205 -25.6640625 48.46875 C-17.21599319 46.57364256 -9.19842309 41.26052203 -4.0390625 34.28125 C-2.43462658 31.63007791 -2.43462658 31.63007791 -2.9140625 29.09375 C-3.1615625 28.5575 -3.4090625 28.02125 -3.6640625 27.46875 C-4.3240625 27.46875 -4.9840625 27.46875 -5.6640625 27.46875 C-6.1590625 28.95375 -6.1590625 28.95375 -6.6640625 30.46875 C-8.97592027 31.91366111 -11.2597519 33.19770964 -13.6640625 34.46875 C-15.26855121 35.38485285 -16.87271483 36.30152532 -18.4765625 37.21875 C-22.4140625 39.46875 -22.4140625 39.46875 -24.6640625 39.46875 C-24.01179688 39.02144531 -23.35953125 38.57414062 -22.6875 38.11328125 C-19.99772617 36.25265599 -17.32918518 34.36447714 -14.6640625 32.46875 C-14.0040625 32.01757812 -13.3440625 31.56640625 -12.6640625 31.1015625 C-10.81678458 29.81096378 -10.81678458 29.81096378 -8.6640625 27.46875 C-8.16140558 24.25714304 -8.16140558 24.25714304 -8.6640625 21.46875 C-7.6740625 21.13875 -6.6840625 20.80875 -5.6640625 20.46875 C-4.7825937 17.82434361 -4.50231432 16.18814248 -4.4765625 13.46875 C-4.46238281 12.788125 -4.44820312 12.1075 -4.43359375 11.40625 C-4.55465839 9.14260868 -4.55465839 9.14260868 -6.6640625 6.46875 C-6.9940625 7.45875 -7.3240625 8.44875 -7.6640625 9.46875 C-8.8130603 10.65154185 -9.96838102 11.82890812 -11.15625 12.97265625 C-16.79436289 18.56694961 -21.65881832 24.90966417 -26.55078125 31.1484375 C-28.5401179 33.33266295 -29.947448 34.4017276 -32.6640625 35.46875 C-31.10648803 32.74299467 -29.67486908 30.47986534 -27.4765625 28.21875 C-24.91772637 24.33637795 -25.30945239 20.99002893 -25.6640625 16.46875 C-28.63113686 16.11747223 -28.63113686 16.11747223 -30.04272461 17.82983398 C-30.50428955 18.45188721 -30.96585449 19.07394043 -31.44140625 19.71484375 C-31.95509766 20.38708984 -32.46878906 21.05933594 -32.99804688 21.75195312 C-34.0637938 23.18376659 -35.12890213 24.61605561 -36.19335938 26.04882812 C-36.70833984 26.72236328 -37.22332031 27.39589844 -37.75390625 28.08984375 C-38.44794556 29.02461548 -38.44794556 29.02461548 -39.15600586 29.97827148 C-40.93494209 31.73647217 -42.22551586 32.08137244 -44.6640625 32.46875 C-40.03842925 25.8390958 -35.19809023 19.63838324 -29.70703125 13.703125 C-27.98490123 11.81964819 -26.37345868 9.90458752 -24.7890625 7.90625 C-22.6640625 5.46875 -22.6640625 5.46875 -19.6640625 4.46875 C-20.1384375 5.21125 -20.6128125 5.95375 -21.1015625 6.71875 C-22.46007998 9.10974076 -23.30478777 10.7741895 -23.6640625 13.46875 C-23.3340625 14.45875 -23.0040625 15.44875 -22.6640625 16.46875 C-19.13519874 15.05123602 -18.0235723 13.63139416 -16.2265625 10.34375 C-14.72265625 8.1796875 -14.72265625 8.1796875 -12.6640625 6.46875 C-8.25610398 5.76473756 -4.0898059 5.99597029 0.3359375 6.46875 C-0.04904355 4.12886516 -0.40281584 2.75484144 -2.01953125 0.984375 C-16.92676182 -9.3140103 -34.71916647 -0.09869522 -44.8828125 12.140625 Z " fill="#A59CBF" transform="translate(60.6640625,24.53125)"/>
<path d="M0 0 C1.61671541 1.77046644 1.9704877 3.14449016 2.35546875 5.484375 C1.50984375 5.36835938 0.66421875 5.25234375 -0.20703125 5.1328125 C-3.90991574 4.83826487 -6.98930699 4.77421714 -10.64453125 5.484375 C-13.40005341 7.86775532 -15.17864387 10.24788911 -17.15625 13.296875 C-17.64738281 14.01875 -18.13851562 14.740625 -18.64453125 15.484375 C-19.30453125 15.484375 -19.96453125 15.484375 -20.64453125 15.484375 C-21.45703125 12.859375 -21.45703125 12.859375 -21.64453125 9.484375 C-20.22084173 7.1257252 -18.59005117 5.47734663 -16.64453125 3.484375 C-18.93142109 2.61844148 -18.93142109 2.61844148 -21.64453125 2.484375 C-23.85917455 4.07398858 -23.85917455 4.07398858 -25.76953125 6.546875 C-26.53910156 7.45953125 -27.30867188 8.3721875 -28.1015625 9.3125 C-28.95240187 10.36723179 -29.79987427 11.42468572 -30.64453125 12.484375 C-31.11294434 13.06896484 -31.58135742 13.65355469 -32.06396484 14.25585938 C-34.8830774 17.78702066 -37.66469896 21.34565509 -40.42822266 24.92041016 C-42.14413602 27.1267813 -43.89202655 29.30702068 -45.64453125 31.484375 C-45.31453125 29.834375 -44.98453125 28.184375 -44.64453125 26.484375 C-45.63453125 26.484375 -46.62453125 26.484375 -47.64453125 26.484375 C-47.36137565 28.56888217 -47.06767456 30.65195867 -46.76953125 32.734375 C-46.60710938 33.89453125 -46.4446875 35.0546875 -46.27734375 36.25 C-45.72632694 39.06630813 -45.08656643 41.03655057 -43.64453125 43.484375 C-46.64453125 42.484375 -46.64453125 42.484375 -47.8125 40.3828125 C-49.76741566 33.5727307 -49.43256202 25.48874229 -47.64453125 18.671875 C-41.63252167 9.09023474 -34.8828429 1.68593592 -24.39453125 -2.953125 C-15.73389914 -4.25221982 -7.47985906 -5.16732267 0 0 Z " fill="#F0F5FB" transform="translate(58.64453125,25.515625)"/>
<path d="M0 0 C2.01696222 3.02544334 2.25811096 3.61067382 2.1875 7 C2.18105469 7.680625 2.17460938 8.36125 2.16796875 9.0625 C2 11 2 11 1 14 C0.01 14.33 -0.98 14.66 -2 15 C-1.87625 15.886875 -1.7525 16.77375 -1.625 17.6875 C-2 21 -2 21 -4.4375 23.625 C-8.28454924 26.46014766 -12.58377828 28.23838215 -17 30 C-18.010625 30.4125 -19.02125 30.825 -20.0625 31.25 C-20.701875 31.4975 -21.34125 31.745 -22 32 C-22 32.66 -22 33.32 -22 34 C-23.32 34 -24.64 34 -26 34 C-26.33 34.99 -26.66 35.98 -27 37 C-27.66 35.68 -28.32 34.36 -29 33 C-27.414458 30.57996221 -26.23894822 29.13319749 -23.6875 27.7109375 C-20.48568483 25.67257261 -18.56895479 23.38834948 -16.1875 20.4375 C-15.75953125 19.91244873 -15.3315625 19.38739746 -14.890625 18.84643555 C-11.40721047 14.56000094 -7.98614104 10.22194761 -4.59375 5.86328125 C-3 4 -3 4 -1 3 C-0.67 2.01 -0.34 1.02 0 0 Z " fill="#E2F5FC" transform="translate(54,31)"/>
<path d="M0 0 C0.99 0 1.98 0 3 0 C2.42655063 2.86724686 2.1385485 3.8614515 0 6 C0.30652045 8.9425963 0.67271154 11.34542308 2 14 C4.97 10.37 7.94 6.74 11 3 C12.32 3.33 13.64 3.66 15 4 C10.06458039 10.38519912 5.09637227 16.7421755 0 23 C-0.64582031 23.79535156 -1.29164062 24.59070313 -1.95703125 25.41015625 C-2.56933594 26.14105469 -3.18164062 26.87195313 -3.8125 27.625 C-4.35519531 28.27726562 -4.89789063 28.92953125 -5.45703125 29.6015625 C-7 31 -7 31 -10 31 C-9.62272328 27.73026843 -8.7863881 26.77596801 -6.4375 24.3125 C-4.00960637 21.59856143 -3.66475534 19.74708719 -3.6875 16.125 C-3.76700925 14.74835409 -3.86279034 13.37209664 -4 12 C-8.42510979 16.26902126 -12.09581384 20.88826876 -15.81640625 25.76953125 C-16.53699219 26.50558594 -17.25757813 27.24164063 -18 28 C-19.32 28 -20.64 28 -22 28 C-20.63733356 23.96194134 -18.8590849 21.45631882 -15.9375 18.375 C-11.7060687 13.81491384 -7.74902251 9.09402443 -3.84765625 4.25 C-2 2 -2 2 0 0 Z " fill="#550B0C" transform="translate(38,29)"/>
<path d="M0 0 C0.99 0.33 1.98 0.66 3 1 C2.67628931 6.34122639 -0.20022869 9.52898154 -4 13 C-11.48913639 18.31643718 -18.07177122 21.30053262 -27.375 21.125 C-28.62023437 21.10695313 -29.86546875 21.08890625 -31.1484375 21.0703125 C-32.08945312 21.04710938 -33.03046875 21.02390625 -34 21 C-32.68 20.67 -31.36 20.34 -30 20 C-29.87625 19.21625 -29.7525 18.4325 -29.625 17.625 C-29 15 -29 15 -27 13 C-25.68 13 -24.36 13 -23 13 C-23 12.34 -23 11.68 -23 11 C-21.71349294 10.30289269 -20.42059335 9.61757124 -19.125 8.9375 C-18.40570313 8.55464844 -17.68640625 8.17179687 -16.9453125 7.77734375 C-15.98238281 7.39255859 -15.98238281 7.39255859 -15 7 C-14.34 7.33 -13.68 7.66 -13 8 C-14.98 9.32 -16.96 10.64 -19 12 C-15.53208998 10.65758322 -12.19872745 9.16694588 -8.875 7.5 C-8.02679688 7.0771875 -7.17859375 6.654375 -6.3046875 6.21875 C-2.07942439 4.0892751 -2.07942439 4.0892751 0 0 Z " fill="#BDD9ED" transform="translate(55,52)"/>
<path d="M0 0 C1.65 0.66 3.3 1.32 5 2 C5 3.65 5 5.3 5 7 C4.34 7 3.68 7 3 7 C2.67 8.65 2.34 10.3 2 12 C1.34 12 0.68 12 0 12 C0 13.65 0 15.3 0 17 C-0.66 17 -1.32 17 -2 17 C-2.020625 17.5775 -2.04125 18.155 -2.0625 18.75 C-3.54457534 22.30698081 -6.73285139 23.31802349 -10 25 C-10.77859375 25.46148437 -11.5571875 25.92296875 -12.359375 26.3984375 C-13.14828125 26.86507812 -13.9371875 27.33171875 -14.75 27.8125 C-15.48734375 28.25207031 -16.2246875 28.69164063 -16.984375 29.14453125 C-19 30 -19 30 -22 29 C-20.67306301 27.99152789 -19.33743723 26.99450461 -18 26 C-17.42121094 25.566875 -16.84242187 25.13375 -16.24609375 24.6875 C-15.62863281 24.23375 -15.01117188 23.78 -14.375 23.3125 C-13.78460938 22.87550781 -13.19421875 22.43851563 -12.5859375 21.98828125 C-11 21 -11 21 -9 21 C-8.67 20.01 -8.34 19.02 -8 18 C-7.34 17.67 -6.68 17.34 -6 17 C-6 14.69 -6 12.38 -6 10 C-4.68 10 -3.36 10 -2 10 C-1.34 6.7 -0.68 3.4 0 0 Z " fill="#5AAEC8" transform="translate(57,35)"/>
<path d="M0 0 C0.90621094 0.12761719 1.81242187 0.25523438 2.74609375 0.38671875 C5.26264145 6.52880127 6.20997863 10.85554006 4.74609375 17.38671875 C2.74609375 20.38671875 2.74609375 20.38671875 0.74609375 22.38671875 C0.08609375 23.37671875 -0.57390625 24.36671875 -1.25390625 25.38671875 C-2.60830293 22.6779254 -2.31892076 20.37738607 -2.25390625 17.38671875 C-1.59390625 17.38671875 -0.93390625 17.38671875 -0.25390625 17.38671875 C0.07609375 15.73671875 0.40609375 14.08671875 0.74609375 12.38671875 C1.40609375 12.38671875 2.06609375 12.38671875 2.74609375 12.38671875 C2.55780603 9.94191796 2.55780603 9.94191796 1.74609375 7.38671875 C-0.22148898 6.02651724 -0.22148898 6.02651724 -2.25390625 5.38671875 C-2.58390625 6.70671875 -2.91390625 8.02671875 -3.25390625 9.38671875 C-3.58390625 7.73671875 -3.91390625 6.08671875 -4.25390625 4.38671875 C-5.24390625 4.71671875 -6.23390625 5.04671875 -7.25390625 5.38671875 C-7.25390625 4.72671875 -7.25390625 4.06671875 -7.25390625 3.38671875 C-10.31773364 3.71104282 -11.2436159 4.37573362 -13.39453125 6.671875 C-14.090625 7.58839844 -14.78671875 8.50492188 -15.50390625 9.44921875 C-16.2103125 10.36832031 -16.91671875 11.28742187 -17.64453125 12.234375 C-18.44117188 13.29978516 -18.44117188 13.29978516 -19.25390625 14.38671875 C-19.58390625 13.39671875 -19.91390625 12.40671875 -20.25390625 11.38671875 C-15.43312189 1.94999923 -10.40318931 -0.84766728 0 0 Z " fill="#CEDFEB" transform="translate(59.25390625,29.61328125)"/>
<path d="M0 0 C2 1 2 1 3 2 C3.66 2.33 4.32 2.66 5 3 C4.01 3.66 3.02 4.32 2 5 C1.34 4.67 0.68 4.34 0 4 C0.66 5.65 1.32 7.3 2 9 C1.25878906 9.39960937 0.51757812 9.79921875 -0.24609375 10.2109375 C-3.93434454 12.60699262 -6.27309483 15.65895565 -9.03515625 19.0390625 C-11.08773714 21.08756271 -12.17081138 21.63453688 -15 22 C-15.2685261 18.98829554 -15.25089574 17.40779596 -13.64453125 14.796875 C-13.03996094 14.12140625 -12.43539063 13.4459375 -11.8125 12.75 C-11.22082031 12.06421875 -10.62914062 11.3784375 -10.01953125 10.671875 C-7.67504263 8.73098306 -5.98862142 8.35099526 -3 8 C-2.87625 6.865625 -2.7525 5.73125 -2.625 4.5625 C-2.41875 3.386875 -2.2125 2.21125 -2 1 C-1.34 0.67 -0.68 0.34 0 0 Z " fill="#D8E4FD" transform="translate(31,24)"/>
<path d="M0 0 C0.99 0 1.98 0 3 0 C2.96519531 1.03060547 2.96519531 1.03060547 2.9296875 2.08203125 C2.91164063 2.98308594 2.89359375 3.88414063 2.875 4.8125 C2.84019531 6.15248047 2.84019531 6.15248047 2.8046875 7.51953125 C2.81714173 10.25402714 2.81714173 10.25402714 5 13 C7.19454681 13.57993699 7.19454681 13.57993699 9.625 13.6875 C10.44226562 13.75324219 11.25953125 13.81898437 12.1015625 13.88671875 C12.72804688 13.92410156 13.35453125 13.96148437 14 14 C15.125 17.75 15.125 17.75 14 20 C11.25634714 20.91455095 9.29997916 21.04389939 6.4375 20.625 C2.53030695 18.02020463 1.22336328 14.44555507 0 10 C-0.29425812 6.6323793 -0.25316762 3.36853589 0 0 Z " fill="#A7C8D8" transform="translate(11,52)"/>
<path d="M0 0 C-0.33 2.97 -0.66 5.94 -1 9 C-1.99 9.33 -2.98 9.66 -4 10 C-3.87625 10.886875 -3.7525 11.77375 -3.625 12.6875 C-4 16 -4 16 -6.75 18.75 C-9.15406396 20.41435197 -11.32105036 21.86659823 -14 23 C-12.32598022 19.04322598 -9.86850715 16.15535787 -7 13 C-6.34 13 -5.68 13 -5 13 C-5 12.34 -5 11.68 -5 11 C-5.99 11 -6.98 11 -8 11 C-8.39600661 7.53494217 -8.14386351 6.21827567 -6.1875 3.25 C-4.20578949 1.21166919 -3.01308033 0 0 0 Z " fill="#C7DFF4" transform="translate(56,36)"/>
<path d="M0 0 C0.66 0.99 1.32 1.98 2 3 C1.67 3.99 1.34 4.98 1 6 C0.01 6 -0.98 6 -2 6 C-3.96301592 9.50538557 -4.95902388 13.13351728 -6 17 C-7.32 17.33 -8.64 17.66 -10 18 C-10 18.66 -10 19.32 -10 20 C-12.66666667 21.33333333 -15.33333333 22.66666667 -18 24 C-16.40875955 20.36410113 -14.1606096 17.59933476 -11.625 14.5625 C-8.18404232 10.42613121 -8.18404232 10.42613121 -4.8359375 6.21484375 C-3 4 -3 4 -1 3 C-0.67 2.01 -0.34 1.02 0 0 Z " fill="#DFE6F1" transform="translate(54,31)"/>
<path d="M0 0 C2.97 0.495 2.97 0.495 6 1 C5.01 2.485 5.01 2.485 4 4 C4 3.34 4 2.68 4 2 C-0.67079033 4.39089816 -3.51577315 7.53945259 -6.8125 11.5 C-7.33295898 12.11568848 -7.85341797 12.73137695 -8.38964844 13.36572266 C-12.86829246 18.71882124 -17.02043187 24.26474005 -21 30 C-21.66 29.34 -22.32 28.68 -23 28 C-17.59968891 20.8071013 -12.13399281 13.81965277 -6.0078125 7.21875 C-3.89900427 4.88839382 -1.940555 2.47137946 0 0 Z " fill="#67A0B3" transform="translate(37,27)"/>
<path d="M0 0 C0.98187035 2.57888838 1.12277753 3.68611658 0.1015625 6.296875 C-5.14396254 15.01166263 -12.11460634 22.64756215 -22 26 C-25 26.25 -25 26.25 -27 26 C-25.63098283 23.26196565 -24.29318019 23.2440383 -21.4375 22.25 C-12.58708533 18.82362518 -6.19523387 13.59661186 -2.03125 5 C-1.31298921 3.35066042 -0.65037038 1.67727099 0 0 Z " fill="#958BB5" transform="translate(61,48)"/>
<path d="M0 0 C0.66 0 1.32 0 2 0 C1.9375 2.25 1.9375 2.25 1 5 C-1.33791389 6.55860926 -3.50551034 7.7573746 -6 9 C-8.33054802 10.37749278 -10.65903221 11.7582692 -12.984375 13.14453125 C-15 14 -15 14 -18 13 C-16.67306301 11.99152789 -15.33743723 10.99450461 -14 10 C-13.42121094 9.566875 -12.84242187 9.13375 -12.24609375 8.6875 C-11.62863281 8.23375 -11.01117188 7.78 -10.375 7.3125 C-9.78460938 6.87550781 -9.19421875 6.43851563 -8.5859375 5.98828125 C-7 5 -7 5 -5 5 C-4.67 4.01 -4.34 3.02 -4 2 C-2.68 2 -1.36 2 0 2 C0 1.34 0 0.68 0 0 Z " fill="#8CC0D1" transform="translate(53,51)"/>
<path d="M0 0 C0.97582031 0.00902344 1.95164062 0.01804687 2.95703125 0.02734375 C4.06111328 0.04474609 4.06111328 0.04474609 5.1875 0.0625 C2.54011084 1.5231285 1.29301666 2.0625 -1.8125 2.0625 C-1.8125 2.7225 -1.8125 3.3825 -1.8125 4.0625 C-2.76125 4.495625 -3.71 4.92875 -4.6875 5.375 C-8.01291937 6.85552201 -8.01291937 6.85552201 -9.8125 10.0625 C-10.4725 10.0625 -11.1325 10.0625 -11.8125 10.0625 C-12.1425 8.7425 -12.4725 7.4225 -12.8125 6.0625 C-11.8225 5.7325 -10.8325 5.4025 -9.8125 5.0625 C-10.8025 4.7325 -11.7925 4.4025 -12.8125 4.0625 C-10.8125 1.0625 -10.8125 1.0625 -8.55078125 0.37890625 C-5.67101988 0.04615208 -2.89825069 -0.03491868 0 0 Z " fill="#FDFDFE" transform="translate(43.8125,21.9375)"/>
<path d="M0 0 C0.99 0.33 1.98 0.66 3 1 C2.12727273 9.87272727 2.12727273 9.87272727 -2 14 C-2.66 14.99 -3.32 15.98 -4 17 C-5.35439668 14.29120665 -5.06501451 11.99066732 -5 9 C-4.34 9 -3.68 9 -3 9 C-2.67 7.35 -2.34 5.7 -2 4 C-1.34 4 -0.68 4 0 4 C0 2.68 0 1.36 0 0 Z " fill="#A7B1CB" transform="translate(62,38)"/>
<path d="M0 0 C1.125 3.75 1.125 3.75 0 6 C-3.73487777 5.5020163 -5.81237635 5.12508244 -9 3 C-9 2.34 -9 1.68 -9 1 C-6.04335481 -0.4783226 -3.25770263 -0.06032783 0 0 Z " fill="#94C5D4" transform="translate(25,66)"/>
<path d="M0 0 C0.66 0 1.32 0 2 0 C2.33 0.99 2.66 1.98 3 3 C1.85546875 4.82421875 1.85546875 4.82421875 0.1875 6.6875 C-0.35519531 7.31011719 -0.89789063 7.93273438 -1.45703125 8.57421875 C-3 10 -3 10 -5 10 C-5.33 8.02 -5.66 6.04 -6 4 C-4.68 3.01 -3.36 2.02 -2 1 C-1.67 1.33 -1.34 1.66 -1 2 C-0.67 1.34 -0.34 0.68 0 0 Z " fill="#DFE3EC" transform="translate(43,31)"/>
<path d="M0 0 C0.33 0 0.66 0 1 0 C1.78195713 9.92216719 1.78195713 9.92216719 -1.3125 14.1875 C-4 16 -4 16 -7 16 C-6.56519234 12.23166696 -4.59005432 10.35641583 -2.14453125 7.59375 C-0.43596751 5.21458958 -0.20492995 2.86901929 0 0 Z " fill="#321E20" transform="translate(35,44)"/>
<path d="M0 0 C0.66 0.33 1.32 0.66 2 1 C2.67439805 7.06958241 2.39809504 10.14107169 -1.375 15.0625 C-3.2734375 17.34765625 -3.2734375 17.34765625 -5 19 C-5.66 19 -6.32 19 -7 19 C-5.96621159 15.98478381 -5.05369106 14.0584285 -2.875 11.6875 C-0.25084774 7.92621509 -0.77392855 5.52142894 -1 1 C-0.67 0.67 -0.34 0.34 0 0 Z " fill="#6CA8BC" transform="translate(33,40)"/>
<path d="M0 0 C1.32 0.33 2.64 0.66 4 1 C2.93249206 2.51130338 1.84539718 4.00878703 0.75 5.5 C0.14671875 6.3353125 -0.4565625 7.170625 -1.078125 8.03125 C-1.71234375 8.6809375 -2.3465625 9.330625 -3 10 C-4.32 10 -5.64 10 -7 10 C-5.33248852 6.05860922 -2.77289351 3.2107188 0 0 Z " fill="#2D1416" transform="translate(49,32)"/>
<path d="M0 0 C-3.16440426 2.3863947 -6.35813589 4.7300717 -9.5625 7.0625 C-10.51253906 7.75472656 -11.46257813 8.44695313 -12.44140625 9.16015625 C-14.26975197 10.47489035 -16.12624678 11.75083119 -18 13 C-16.57142347 9.63951428 -14.83945402 7.72274139 -12.0625 5.375 C-11.37285156 4.78460937 -10.68320312 4.19421875 -9.97265625 3.5859375 C-6.41438408 0.72522759 -4.53973165 -0.2453909 0 0 Z " fill="#9E91B8" transform="translate(35,22)"/>
<path d="M0 0 C1.65 0.33 3.3 0.66 5 1 C4.15695313 1.32097656 4.15695313 1.32097656 3.296875 1.6484375 C0.2043371 3.4681962 -1.53092586 5.81852388 -3.75 8.625 C-4.54921875 9.62789062 -5.3484375 10.63078125 -6.171875 11.6640625 C-6.77515625 12.43492188 -7.3784375 13.20578125 -8 14 C-8.33 13.01 -8.66 12.02 -9 11 C-7.12890625 8.30078125 -7.12890625 8.30078125 -4.5625 5.3125 C-3.71816406 4.31863281 -2.87382813 3.32476562 -2.00390625 2.30078125 C-1.01197266 1.16189453 -1.01197266 1.16189453 0 0 Z " fill="#619DB1" transform="translate(48,30)"/>
<path d="M0 0 C0 4.38618346 -2.73456783 6.55175811 -5.5 9.6875 C-6.02464844 10.29400391 -6.54929687 10.90050781 -7.08984375 11.52539062 C-8.38666902 13.02263435 -9.69249362 14.51207472 -11 16 C-11 10.46527644 -6.97542321 6.85797985 -3.25 3.125 C-2.17155463 2.07827361 -1.08990063 1.0347933 0 0 Z " fill="#F2F8FB" transform="translate(30,33)"/>
<path d="M0 0 C0.33 1.32 0.66 2.64 1 4 C-5.28571429 9.42857143 -5.28571429 9.42857143 -9 11 C-7.2034488 6.75360625 -4.18376817 2.09188408 0 0 Z " fill="#BCDFEA" transform="translate(51,48)"/>
<path d="M0 0 C0.66 0.99 1.32 1.98 2 3 C1.67 3.99 1.34 4.98 1 6 C0.01 6 -0.98 6 -2 6 C-2.268125 6.61875 -2.53625 7.2375 -2.8125 7.875 C-4 10 -4 10 -7 12 C-6.52570343 7.73133091 -3.96478822 5.89066852 -1 3 C-0.67 2.01 -0.34 1.02 0 0 Z " fill="#F1F4F9" transform="translate(54,31)"/>
<path d="M0 0 C0.66 0.99 1.32 1.98 2 3 C0.35 5.31 -1.3 7.62 -3 10 C-3.99 9.67 -4.98 9.34 -6 9 C-6 8.34 -6 7.68 -6 7 C-5.34 7 -4.68 7 -4 7 C-3.71125 6.401875 -3.4225 5.80375 -3.125 5.1875 C-2 3 -2 3 0 0 Z " fill="#D0EEF7" transform="translate(30,47)"/>
<path d="M0 0 C0.66 0.66 1.32 1.32 2 2 C1.57847656 2.53109375 1.15695313 3.0621875 0.72265625 3.609375 C0.17480469 4.31578125 -0.37304688 5.0221875 -0.9375 5.75 C-1.48277344 6.44609375 -2.02804688 7.1421875 -2.58984375 7.859375 C-4.11195673 9.89807953 -4.11195673 9.89807953 -4.50390625 12.203125 C-4.66761719 12.79609375 -4.83132813 13.3890625 -5 14 C-5.99 14.33 -6.98 14.66 -8 15 C-6.70970987 8.80660737 -4.0035833 4.84710557 0 0 Z " fill="#B6ADCA" transform="translate(16,34)"/>
<path d="M0 0 C3 1 3 1 5 3 C3.7260411 5.03833424 2.38938077 7.03852126 1 9 C0.34 9 -0.32 9 -1 9 C-1.33 7.68 -1.66 6.36 -2 5 C-1.01 4.67 -0.02 4.34 1 4 C0.01 3.67 -0.98 3.34 -2 3 C-1.34 2.01 -0.68 1.02 0 0 Z " fill="#F3F6FC" transform="translate(33,23)"/>
<path d="M0 0 C0 0.66 0 1.32 0 2 C-1.76913824 2.22226864 -3.54044371 2.42733873 -5.3125 2.625 C-6.29863281 2.74101562 -7.28476562 2.85703125 -8.30078125 2.9765625 C-11 3 -11 3 -14 1 C-12.23103898 0.63659714 -10.45973374 0.28459117 -8.6875 -0.0625 C-7.70136719 -0.25972656 -6.71523438 -0.45695312 -5.69921875 -0.66015625 C-3 -1 -3 -1 0 0 Z " fill="#B3A9C8" transform="translate(46,20)"/>
<path d="M0 0 C0.66 0 1.32 0 2 0 C2 2.31 2 4.62 2 7 C1.01 6.67 0.02 6.34 -1 6 C-3.14255793 6.38932856 -3.14255793 6.38932856 -5 7 C-4.21654285 5.82780457 -3.42297164 4.66236332 -2.625 3.5 C-2.18414063 2.8503125 -1.74328125 2.200625 -1.2890625 1.53125 C-0.65097656 0.77328125 -0.65097656 0.77328125 0 0 Z " fill="#E8E9EB" transform="translate(31,42)"/>
<path d="M0 0 C-0.25 1.875 -0.25 1.875 -1 4 C-2.875 5.3125 -2.875 5.3125 -5 6 C-5.99 5.67 -6.98 5.34 -8 5 C-3.375 0 -3.375 0 0 0 Z " fill="#671C1E" transform="translate(41,29)"/>
<path d="M0 0 C2 3 2 3 1.75 5.5 C1 8 1 8 -1 11 C-2.35439668 8.29120665 -2.06501451 5.99066732 -2 3 C-1.34 3 -0.68 3 0 3 C0 2.01 0 1.02 0 0 Z " fill="#A5CADB" transform="translate(59,44)"/>
<path d="M0 0 C0 3 0 3 -2 6 C-2.66 6 -3.32 6 -4 6 C-4.33 6.99 -4.66 7.98 -5 9 C-5.99 8.67 -6.98 8.34 -8 8 C-7.04578192 6.85073734 -6.08647955 5.70569459 -5.125 4.5625 C-4.59132813 3.92441406 -4.05765625 3.28632812 -3.5078125 2.62890625 C-2 1 -2 1 0 0 Z " fill="#ECF3F6" transform="translate(28,48)"/>
<path d="M0 0 C-0.57344937 2.86724686 -0.8614515 3.8614515 -3 6 C-4.32 6 -5.64 6 -7 6 C-5.52522876 2.59668175 -4.14385429 0 0 0 Z " fill="#270C0D" transform="translate(23,51)"/>
<path d="M0 0 C0.721875 0.61875 1.44375 1.2375 2.1875 1.875 C4.78381938 3.83666353 6.94671666 4.95316 10 6 C10 6.33 10 6.66 10 7 C3.55192878 6.39169139 3.55192878 6.39169139 1.0625 4.625 C0 3 0 3 0 0 Z " fill="#8D7FAC" transform="translate(11,67)"/>
<path d="M0 0 C0.33 0.66 0.66 1.32 1 2 C1.66 2 2.32 2 3 2 C2.375 3.9375 2.375 3.9375 1 6 C-2.125 6.75 -2.125 6.75 -5 7 C-3.35 4.69 -1.7 2.38 0 0 Z " fill="#39181B" transform="translate(23,46)"/>
<path d="M0 0 C0.33 0.99 0.66 1.98 1 3 C-0.65 4.65 -2.3 6.3 -4 8 C-4.625 6.125 -4.625 6.125 -5 4 C-4.34 3.34 -3.68 2.68 -3 2 C-2.01 2 -1.02 2 0 2 C0 1.34 0 0.68 0 0 Z " fill="#450808" transform="translate(44,40)"/>
<path d="M0 0 C0.99 0 1.98 0 3 0 C2.88637738 1.4800841 2.75877092 2.95910074 2.625 4.4375 C2.52058594 5.67306641 2.52058594 5.67306641 2.4140625 6.93359375 C2.27742187 7.61550781 2.14078125 8.29742187 2 9 C1.01 9.495 1.01 9.495 0 10 C0 6.7 0 3.4 0 0 Z " fill="#BBDBE5" transform="translate(11,52)"/>
<path d="M0 0 C0.66 0 1.32 0 2 0 C2.33 0.99 2.66 1.98 3 3 C1.35 4.65 -0.3 6.3 -2 8 C-3 5 -3 5 -1.6875 2.3125 C-1.130625 1.549375 -0.57375 0.78625 0 0 Z " fill="#D6E3F9" transform="translate(43,31)"/>
<path d="M0 0 C0 0.66 0 1.32 0 2 C0.99 1.67 1.98 1.34 3 1 C2.34 2.32 1.68 3.64 1 5 C-0.65 4.67 -2.3 4.34 -4 4 C-4.33 3.01 -4.66 2.02 -5 1 C-2 0 -2 0 0 0 Z " fill="#A7CFE0" transform="translate(34,64)"/>
<path d="M0 0 C2.0625 0.4375 2.0625 0.4375 4 1 C2.1875 3 2.1875 3 0 5 C-0.99 5 -1.98 5 -3 5 C-1.125 1.125 -1.125 1.125 0 0 Z " fill="#3B1719" transform="translate(45,37)"/>
<path d="M0 0 C0.99 0 1.98 0 3 0 C3 0.66 3 1.32 3 2 C3.66 2 4.32 2 5 2 C5 2.66 5 3.32 5 4 C3.68 4 2.36 4 1 4 C0.67 5.32 0.34 6.64 0 8 C0 5.36 0 2.72 0 0 Z " fill="#ACD2DF" transform="translate(56,31)"/>
<path d="M0 0 C0.66 0.33 1.32 0.66 2 1 C1.21654285 2.17219543 0.42297164 3.33763668 -0.375 4.5 C-0.81585937 5.1496875 -1.25671875 5.799375 -1.7109375 6.46875 C-2.13632812 6.9740625 -2.56171875 7.479375 -3 8 C-3.66 8 -4.32 8 -5 8 C-3.8141763 4.62496331 -2.72426311 2.35277269 0 0 Z " fill="#62A0B4" transform="translate(31,51)"/>
<path d="M0 0 C0.66 0.33 1.32 0.66 2 1 C2 1.66 2 2.32 2 3 C-0.66666667 4.33333333 -3.33333333 5.66666667 -6 7 C-4.60667426 3.63279613 -3.0210714 2.0140476 0 0 Z " fill="#F0EDEE" transform="translate(42,48)"/>
<path d="M0 0 C0.33 0.99 0.66 1.98 1 3 C-0.3125 4.5 -0.3125 4.5 -2 6 C-2.99 6 -3.98 6 -5 6 C-3.63016497 2.83884224 -3.0109362 2.0072908 0 0 Z " fill="#6E0202" transform="translate(35,34)"/>
<path d="M0 0 C1.3921875 0.3403125 1.3921875 0.3403125 2.8125 0.6875 C1.8225 2.1725 1.8225 2.1725 0.8125 3.6875 C0.8125 3.0275 0.8125 2.3675 0.8125 1.6875 C0.214375 2.038125 -0.38375 2.38875 -1 2.75 C-3.1875 3.6875 -3.1875 3.6875 -6.1875 2.6875 C-4.14987265 -0.14253799 -3.59070275 -0.35202968 0 0 Z " fill="#74AABE" transform="translate(40.1875,27.3125)"/>
</svg>
