<?xml version="1.0" encoding="UTF-8"?>
<svg version="1.1" xmlns="http://www.w3.org/2000/svg" width="75" height="100">
<path d="M0 0 C4.10046748 4.5081163 4.94695509 9.7834072 4.75 15.65625 C3.08857032 26.94143272 -2.7842819 36.97136055 -11.62890625 44.0859375 C-20.47496953 50.09650641 -29.94282427 52.71102849 -40.5390625 50.78125 C-45.55550261 49.42860276 -48.549967 47.30931167 -51.26953125 42.81640625 C-52.85719158 39.005132 -53.16388577 35.71934092 -53.1015625 31.65625 C-53.09181396 30.94774902 -53.08206543 30.23924805 -53.07202148 29.50927734 C-52.69679178 18.41010996 -47.47103535 12.00695821 -39.6640625 4.46875 C-28.65126066 -4.77209583 -12.56667841 -10.54374969 0 0 Z " fill="#F3F6FA" transform="translate(60.6640625,24.53125)"/>
<path d="M0 0 C4.10046748 4.5081163 4.94695509 9.7834072 4.75 15.65625 C3.08857032 26.94143272 -2.7842819 36.97136055 -11.62890625 44.0859375 C-20.47496953 50.09650641 -29.94282427 52.71102849 -40.5390625 50.78125 C-45.55550261 49.42860276 -48.549967 47.30931167 -51.26953125 42.81640625 C-52.85719158 39.005132 -53.16388577 35.71934092 -53.1015625 31.65625 C-53.09181396 30.94774902 -53.08206543 30.23924805 -53.07202148 29.50927734 C-52.69679178 18.41010996 -47.47103535 12.00695821 -39.6640625 4.46875 C-28.65126066 -4.77209583 -12.56667841 -10.54374969 0 0 Z M-42.6640625 9.46875 C-48.67320183 16.70510792 -50.80167449 21.45935119 -50.9140625 30.84375 C-50.93984375 32.13023438 -50.965625 33.41671875 -50.9921875 34.7421875 C-50.64550281 38.67953501 -49.65244207 41.08850473 -47.6640625 44.46875 C-46.6740625 43.97375 -46.6740625 43.97375 -45.6640625 43.46875 C-46.1590625 42.52 -46.6540625 41.57125 -47.1640625 40.59375 C-48.6640625 37.46875 -48.6640625 37.46875 -48.6640625 35.46875 C-48.1896875 36.438125 -47.7153125 37.4075 -47.2265625 38.40625 C-44.44142468 41.73482935 -44.12644844 41.90104905 -40.1015625 42.28125 C-38.95494141 42.32185547 -38.95494141 42.32185547 -37.78515625 42.36328125 C-35.6640625 42.46875 -35.6640625 42.46875 -32.6640625 43.46875 C-32.6640625 42.47875 -32.6640625 41.48875 -32.6640625 40.46875 C-31.6740625 40.46875 -30.6840625 40.46875 -29.6640625 40.46875 C-29.6640625 39.80875 -29.6640625 39.14875 -29.6640625 38.46875 C-28.1790625 37.97375 -28.1790625 37.97375 -26.6640625 37.46875 C-27.3240625 37.46875 -27.9840625 37.46875 -28.6640625 37.46875 C-28.6640625 36.80875 -28.6640625 36.14875 -28.6640625 35.46875 C-29.3240625 35.46875 -29.9840625 35.46875 -30.6640625 35.46875 C-29.2286122 33.69625476 -27.79062447 31.92581424 -26.3515625 30.15625 C-25.55105469 29.17011719 -24.75054687 28.18398438 -23.92578125 27.16796875 C-21.6640625 24.46875 -21.6640625 24.46875 -19.88671875 22.859375 C-17.93515846 20.63970898 -18.38850709 18.22507951 -18.4921875 15.41015625 C-18.67488308 13.34652663 -19.0080486 11.4367917 -19.6640625 9.46875 C-22.99775469 9.70351706 -23.88139365 10.6952734 -26.25 13.1640625 C-27.18900743 14.29964906 -28.11830358 15.44331756 -29.0390625 16.59375 C-30.01160374 17.77743826 -30.98425916 18.96103271 -31.95703125 20.14453125 C-32.6538501 21.00232178 -32.6538501 21.00232178 -33.36474609 21.87744141 C-34.99468347 23.87367062 -36.66683609 25.83114902 -38.3515625 27.78125 C-39.49625 29.1115625 -39.49625 29.1115625 -40.6640625 30.46875 C-41.3240625 30.13875 -41.9840625 29.80875 -42.6640625 29.46875 C-42.09558594 28.8396875 -41.52710938 28.210625 -40.94140625 27.5625 C-37.26515557 23.48732395 -33.59357756 19.40918871 -29.9765625 15.28125 C-29.42097656 14.64832031 -28.86539062 14.01539062 -28.29296875 13.36328125 C-27.17672716 12.06501466 -26.08119421 10.74873623 -25.00390625 9.41796875 C-24.47925781 8.77472656 -23.95460938 8.13148437 -23.4140625 7.46875 C-22.95515625 6.89125 -22.49625 6.31375 -22.0234375 5.71875 C-20.6640625 4.46875 -20.6640625 4.46875 -17.6640625 4.46875 C-16.90225034 7.78807443 -16.25671257 11.11521792 -15.6640625 14.46875 C-15.51582031 15.1596875 -15.36757813 15.850625 -15.21484375 16.5625 C-14.74183487 20.34657106 -15.27630231 21.96297584 -17.640625 25.046875 C-19.25077304 26.79503573 -20.90255781 28.50595666 -22.59765625 30.171875 C-24.60784368 32.40626103 -25.29490683 33.5423523 -25.6640625 36.46875 C-24.24614842 36.01429036 -22.82978204 35.55500056 -21.4140625 35.09375 C-20.62515625 34.83851562 -19.83625 34.58328125 -19.0234375 34.3203125 C-14.73704546 32.77323723 -11.50743905 31.12451986 -8.6640625 27.46875 C-8.32957991 24.300918 -8.32957991 24.300918 -8.6640625 21.46875 C-7.6740625 21.13875 -6.6840625 20.80875 -5.6640625 20.46875 C-4.14246236 16.8649602 -3.6640625 14.41654314 -3.6640625 10.46875 C-1.6840625 11.45875 0.2959375 12.44875 2.3359375 13.46875 C1.95473982 7.84608421 1.60033086 4.50263561 -2.6640625 0.46875 C-16.97922185 -8.02573392 -31.96876933 -1.03325474 -42.6640625 9.46875 Z " fill="#BDD8ED" transform="translate(60.6640625,24.53125)"/>
<path d="M0 0 C1.32 0.33 2.64 0.66 4 1 C3.27296875 1.55558594 2.5459375 2.11117188 1.796875 2.68359375 C-6.10495198 9.22798397 -16.36423869 19.72847738 -21 29 C-18.05206634 27.69248704 -16.19334952 26.38472387 -14.125 23.91796875 C-13.35929687 23.01401367 -13.35929687 23.01401367 -12.578125 22.09179688 C-12.05734375 21.46337891 -11.5365625 20.83496094 -11 20.1875 C-10.47921875 19.57068359 -9.9584375 18.95386719 -9.421875 18.31835938 C-7.1399013 15.60707497 -4.92484762 12.89867849 -2.8125 10.05078125 C-2.214375 9.37402344 -1.61625 8.69726562 -1 8 C-0.01 8 0.98 8 2 8 C3.29862135 11.89586405 3.68894763 15.9567916 3 20 C1.53887709 22.50418088 -0.34871468 24.38198303 -2.4375 26.375 C-6.15141647 29.86058461 -6.15141647 29.86058461 -9 34 C-8.34 34 -7.68 34 -7 34 C-7 34.66 -7 35.32 -7 36 C-6.34 36.33 -5.68 36.66 -5 37 C-5.99 37 -6.98 37 -8 37 C-8 37.66 -8 38.32 -8 39 C-8.99 39 -9.98 39 -11 39 C-11.33 39.99 -11.66 40.98 -12 42 C-12.66 41.67 -13.32 41.34 -14 41 C-15.47745349 40.87384173 -16.95711283 40.77257972 -18.4375 40.6875 C-22.70890012 40.22053021 -22.70890012 40.22053021 -25.0625 38.4375 C-26.39670331 34.9685714 -27.01444263 31.58391902 -26 28 C-24.90268439 26.79717327 -23.78830704 25.60573207 -22.59570312 24.49731445 C-20.71576859 22.73329388 -18.95613133 20.87948314 -17.1875 19.00390625 C-16.50429688 18.28009766 -15.82109375 17.55628906 -15.1171875 16.81054688 C-14.06917969 15.69776367 -14.06917969 15.69776367 -13 14.5625 C-12.30132812 13.82451172 -11.60265625 13.08652344 -10.8828125 12.32617188 C-7.11009701 8.32211062 -3.46656071 4.27226525 0 0 Z " fill="#DEF4FC" transform="translate(39,26)"/>
<path d="M0 0 C4.10046748 4.5081163 4.94695509 9.7834072 4.75 15.65625 C3.08857032 26.94143272 -2.7842819 36.97136055 -11.62890625 44.0859375 C-20.47496953 50.09650641 -29.94282427 52.71102849 -40.5390625 50.78125 C-45.55550261 49.42860276 -48.549967 47.30931167 -51.26953125 42.81640625 C-52.85719158 39.005132 -53.16388577 35.71934092 -53.1015625 31.65625 C-53.09181396 30.94774902 -53.08206543 30.23924805 -53.07202148 29.50927734 C-52.69679178 18.41010996 -47.47103535 12.00695821 -39.6640625 4.46875 C-28.65126066 -4.77209583 -12.56667841 -10.54374969 0 0 Z M-42.6640625 9.46875 C-48.67320183 16.70510792 -50.80167449 21.45935119 -50.9140625 30.84375 C-50.93984375 32.13023438 -50.965625 33.41671875 -50.9921875 34.7421875 C-50.58128582 39.40885662 -49.12306491 42.62913827 -46.2265625 46.28125 C-40.89068645 50.3365158 -32.00189123 48.92145205 -25.6640625 48.46875 C-16.57338302 46.42948947 -7.85376227 40.38913676 -2.73046875 32.5703125 C-0.46695655 28.10961812 1.1984125 23.3364706 2.3359375 18.46875 C1.8409375 17.47875 1.8409375 17.47875 1.3359375 16.46875 C-0.22656059 17.78076173 -0.22656059 17.78076173 -1.6640625 19.46875 C-1.6640625 20.45875 -1.6640625 21.44875 -1.6640625 22.46875 C-2.3240625 22.46875 -2.9840625 22.46875 -3.6640625 22.46875 C-3.6640625 24.11875 -3.6640625 25.76875 -3.6640625 27.46875 C-4.3240625 27.46875 -4.9840625 27.46875 -5.6640625 27.46875 C-6.1590625 28.95375 -6.1590625 28.95375 -6.6640625 30.46875 C-8.97643086 31.91398023 -11.2572644 33.20108102 -13.6640625 34.46875 C-15.31149488 35.38253975 -16.95732505 36.29922384 -18.6015625 37.21875 C-19.95549328 37.96917574 -21.30957552 38.71932863 -22.6640625 39.46875 C-23.1590625 38.97375 -23.1590625 38.97375 -23.6640625 38.46875 C-20.82635088 36.55494449 -18.0117561 34.66743206 -15.0390625 32.96875 C-12.43115847 31.32165272 -10.55397232 29.9186331 -8.6640625 27.46875 C-8.32957991 24.300918 -8.32957991 24.300918 -8.6640625 21.46875 C-7.6740625 21.13875 -6.6840625 20.80875 -5.6640625 20.46875 C-4.14246236 16.8649602 -3.6640625 14.41654314 -3.6640625 10.46875 C-1.6840625 11.45875 0.2959375 12.44875 2.3359375 13.46875 C1.95473982 7.84608421 1.60033086 4.50263561 -2.6640625 0.46875 C-16.97922185 -8.02573392 -31.96876933 -1.03325474 -42.6640625 9.46875 Z " fill="#9F92B9" transform="translate(60.6640625,24.53125)"/>
<path d="M0 0 C1.98 0 3.96 0 6 0 C6 0.66 6 1.32 6 2 C6.9075 1.79375 7.815 1.5875 8.75 1.375 C12 1 12 1 14.3125 1.4375 C17.1483899 4.06332398 16.75782042 7.24621654 17 11 C15.02 10.01 13.04 9.02 11 8 C10.855625 9.093125 10.71125 10.18625 10.5625 11.3125 C10 15 10 15 9 18 C8.01 18.33 7.02 18.66 6 19 C6.12375 19.886875 6.2475 20.77375 6.375 21.6875 C6 25 6 25 3.375 27.6875 C-1.0777731 30.9458822 -5.5027421 33.19157972 -11 34 C-10.42846829 30.4377133 -9.17941769 28.86943806 -6.5625 26.4375 C-2.09845679 22.26272128 -2.09845679 22.26272128 -0.8125 16.375 C-0.92095659 11.88656591 -1.42320905 7.4495302 -2 3 C-1.34 3 -0.68 3 0 3 C0 2.01 0 1.02 0 0 Z " fill="#D4E2F6" transform="translate(46,27)"/>
<path d="M0 0 C1.32 0.33 2.64 0.66 4 1 C4.76181216 4.31932443 5.40734993 7.64646792 6 11 C6.22236328 12.03640625 6.22236328 12.03640625 6.44921875 13.09375 C6.91682535 16.83460281 6.37297187 18.49557083 4.09375 21.578125 C2.52251711 23.32280567 0.91261152 25.03362313 -0.73828125 26.703125 C-2.711914 28.70743598 -4.37699909 30.70994046 -6 33 C-7.32 32.67 -8.64 32.34 -10 32 C-8.4781198 28.32072919 -6.23434188 26.22318275 -3.375 23.5 C0.42262875 19.42894198 1.6087352 16.96285459 1.5625 11.375 C1.42001154 9.57919301 1.24832395 7.7842536 1 6 C-2.85086822 8.06177746 -5.19022026 10.14702898 -7.8125 13.625 C-11.66776854 18.61849069 -15.7599389 23.33142209 -20 28 C-20.99 27.67 -21.98 27.34 -23 27 C-18.63484453 20.86518691 -13.75222001 15.36040362 -8.63671875 9.85546875 C-5.6671345 6.639519 -2.81676185 3.34966274 0 0 Z " fill="#2B1011" transform="translate(40,28)"/>
<path d="M0 0 C0.99 0.33 1.98 0.66 3 1 C2.27250926 5.52660907 -0.33843417 7.78130798 -3.40625 11 C-5.10940826 12.84161636 -5.10940826 12.84161636 -5.44140625 14.921875 C-6.28714745 18.06826882 -8.26059158 19.86759142 -10.4375 22.25 C-11.24058594 23.14203125 -12.04367188 24.0340625 -12.87109375 24.953125 C-15 27 -15 27 -17 27 C-17 28.98 -17 30.96 -17 33 C-17.33 33 -17.66 33 -18 33 C-19.48290973 25.83260298 -19.48290973 25.83260298 -17.1875 21.875 C-16.465625 20.92625 -15.74375 19.9775 -15 19 C-14.5978125 17.576875 -14.5978125 17.576875 -14.1875 16.125 C-11.66714641 9.49249056 -5.73333845 4.03939755 0 0 Z " fill="#D3E0FE" transform="translate(30,27)"/>
<path d="M0 0 C1.65 0.66 3.3 1.32 5 2 C5 3.65 5 5.3 5 7 C4.34 7 3.68 7 3 7 C2.67 8.65 2.34 10.3 2 12 C1.34 12 0.68 12 0 12 C0 13.65 0 15.3 0 17 C-0.66 17 -1.32 17 -2 17 C-2.020625 17.5775 -2.04125 18.155 -2.0625 18.75 C-3.54457534 22.30698081 -6.73285139 23.31802349 -10 25 C-10.77859375 25.46148437 -11.5571875 25.92296875 -12.359375 26.3984375 C-13.14828125 26.86507812 -13.9371875 27.33171875 -14.75 27.8125 C-15.48734375 28.25207031 -16.2246875 28.69164063 -16.984375 29.14453125 C-19 30 -19 30 -22 29 C-20.67306301 27.99152789 -19.33743723 26.99450461 -18 26 C-17.42121094 25.566875 -16.84242187 25.13375 -16.24609375 24.6875 C-15.62863281 24.23375 -15.01117188 23.78 -14.375 23.3125 C-13.78460938 22.87550781 -13.19421875 22.43851563 -12.5859375 21.98828125 C-11 21 -11 21 -9 21 C-8.67 20.01 -8.34 19.02 -8 18 C-7.34 17.67 -6.68 17.34 -6 17 C-6 14.69 -6 12.38 -6 10 C-4.68 10 -3.36 10 -2 10 C-1.34 6.7 -0.68 3.4 0 0 Z " fill="#5AAEC8" transform="translate(57,35)"/>
<path d="M0 0 C0.33 0 0.66 0 1 0 C0.68808036 9.35758924 -2.74720387 17.75033178 -9 24.8125 C-16.10937078 31.21407944 -25.87688541 35.85821091 -35.46484375 36.140625 C-42.13208888 35.77079322 -47.05503197 34.78545293 -52 30 C-51.505 28.515 -51.505 28.515 -51 27 C-50.4225 27.639375 -49.845 28.27875 -49.25 28.9375 C-44.51737254 33.27574183 -37.94754953 32.39689413 -31.83203125 32.27734375 C-21.79613312 31.55099434 -13.97737434 26.34736265 -7.3125 19.0625 C-3.55390454 13.43739115 -1.94024689 6.41519929 0 0 Z " fill="#9992B9" transform="translate(63,40)"/>
<path d="M0 0 C0.99 0.33 1.98 0.66 3 1 C3 3.64 3 6.28 3 9 C2.67 7.68 2.34 6.36 2 5 C-1.85086822 7.06177746 -4.19022026 9.14702898 -6.8125 12.625 C-10.66776854 17.61849069 -14.7599389 22.33142209 -19 27 C-19.99 26.67 -20.98 26.34 -22 26 C-18.03191287 20.4232289 -13.71569723 15.37834655 -9.04760742 10.38964844 C-5.89993922 7.02056738 -2.9230616 3.5626465 0 0 Z " fill="#541B1D" transform="translate(39,29)"/>
<path d="M0 0 C0.33 0 0.66 0 1 0 C1.28875 1.093125 1.5775 2.18625 1.875 3.3125 C2.81893204 7.04013845 2.81893204 7.04013845 5 10 C7.19454681 10.57993699 7.19454681 10.57993699 9.625 10.6875 C10.44226562 10.75324219 11.25953125 10.81898437 12.1015625 10.88671875 C12.72804688 10.92410156 13.35453125 10.96148437 14 11 C15.125 14.75 15.125 14.75 14 17 C11.25634714 17.91455095 9.29997916 18.04389939 6.4375 17.625 C2.57220603 15.04813735 1.30067418 11.36401063 0 7 C-0.28125389 4.54460891 -0.21092011 2.47831127 0 0 Z " fill="#94C5D4" transform="translate(11,55)"/>
<path d="M0 0 C1.32 0.33 2.64 0.66 4 1 C3.27296875 1.55558594 2.5459375 2.11117188 1.796875 2.68359375 C-5.8019893 8.97706656 -11.98889479 17.0676219 -18.08984375 24.78515625 C-20 27 -20 27 -23 29 C-23 25.40076127 -22.42522032 25.00381073 -20.0625 22.4375 C-19.42441406 21.73496094 -18.78632813 21.03242187 -18.12890625 20.30859375 C-17.42636719 19.54675781 -16.72382813 18.78492187 -16 18 C-14.49839687 16.33477755 -12.99843733 14.66807174 -11.5 13 C-10.74847656 12.16726562 -9.99695312 11.33453125 -9.22265625 10.4765625 C-6.11474899 7.0136219 -3.05149808 3.51265696 0 0 Z " fill="#68A5B8" transform="translate(39,26)"/>
<path d="M0 0 C0.33 0.66 0.66 1.32 1 2 C0.34 2 -0.32 2 -1 2 C-1.061875 2.5775 -1.12375 3.155 -1.1875 3.75 C-2.3273255 6.90643986 -4.33594629 8.03367464 -7 10 C-7.7425 10.8353125 -7.7425 10.8353125 -8.5 11.6875 C-10.52392064 13.45843056 -12.37879014 13.64578245 -15 14 C-14.15832509 8.55960858 -10.0765809 5.37116161 -6 2 C-2.5 0.5 -2.5 0.5 0 0 Z " fill="#E5F6FD" transform="translate(50,47)"/>
<path d="M0 0 C0.66 0.66 1.32 1.32 2 2 C1.57847656 2.53109375 1.15695313 3.0621875 0.72265625 3.609375 C0.17480469 4.31578125 -0.37304688 5.0221875 -0.9375 5.75 C-1.48277344 6.44609375 -2.02804688 7.1421875 -2.58984375 7.859375 C-5.45724259 12.21210233 -5.13510249 16.367936 -5.125 21.5 C-5.12757812 22.8096875 -5.13015625 24.119375 -5.1328125 25.46875 C-5.02924755 28.22235924 -4.83458014 30.40352847 -4 33 C-4.99 33 -5.98 33 -7 33 C-9.37363247 25.87910258 -9.24372666 15.75090179 -6.25 8.8125 C-4.51850287 5.58449463 -2.45983622 2.72339011 0 0 Z " fill="#A99FC1" transform="translate(16,34)"/>
<path d="M0 0 C0.99 0 1.98 0 3 0 C4.29878529 3.89635586 4.68064896 7.95570079 4 12 C2.5616676 14.50480325 0.69714649 16.38055901 -1.375 18.375 C-2.13683594 19.15423828 -2.13683594 19.15423828 -2.9140625 19.94921875 C-4.25776229 21.31767091 -5.62748106 22.66045448 -7 24 C-7.66 24.66 -8.32 25.32 -9 26 C-9 22 -9 22 -6.77734375 19.58984375 C-5.84019531 18.71457031 -4.90304688 17.83929688 -3.9375 16.9375 C-1.09308321 14.10521396 0.86742416 11.95032241 1.44140625 7.8359375 C1.15797389 5.12758382 0.73948909 2.61860178 0 0 Z " fill="#69A4B8" transform="translate(38,34)"/>
<path d="M0 0 C0.66 0 1.32 0 2 0 C1.9375 2.25 1.9375 2.25 1 5 C-1.33791389 6.55860926 -3.50551034 7.7573746 -6 9 C-8.33054802 10.37749278 -10.65903221 11.7582692 -12.984375 13.14453125 C-15 14 -15 14 -18 13 C-16.67306301 11.99152789 -15.33743723 10.99450461 -14 10 C-13.42121094 9.566875 -12.84242187 9.13375 -12.24609375 8.6875 C-11.62863281 8.23375 -11.01117188 7.78 -10.375 7.3125 C-9.78460938 6.87550781 -9.19421875 6.43851563 -8.5859375 5.98828125 C-7 5 -7 5 -5 5 C-4.67 4.01 -4.34 3.02 -4 2 C-2.68 2 -1.36 2 0 2 C0 1.34 0 0.68 0 0 Z " fill="#8CC0D1" transform="translate(53,51)"/>
<path d="M0 0 C0.99 0 1.98 0 3 0 C1.49017269 3.42856619 -0.51713969 5.95678216 -3 8.75 C-4.051875 9.94882812 -4.051875 9.94882812 -5.125 11.171875 C-7 13 -7 13 -9 13 C-9 14.98 -9 16.96 -9 19 C-9.33 19 -9.66 19 -10 19 C-11.45571956 11.96402214 -11.45571956 11.96402214 -9.375 7.5625 C-6.71752454 4.69522385 -5.70321441 4.58471806 -2 4 C-0.63979849 2.03241727 -0.63979849 2.03241727 0 0 Z " fill="#D5EDF6" transform="translate(22,41)"/>
<path d="M0 0 C0.84375 1.62890625 0.84375 1.62890625 1 4 C-1.23622299 6.70955686 -3.5921829 9.07213478 -6.12890625 11.49023438 C-7.87734509 13.1912818 -7.87734509 13.1912818 -10 16 C-10.00074245 18.81231099 -10.00074245 18.81231099 -9 21 C-11.475 20.01 -11.475 20.01 -14 19 C-12.55857085 14.49553391 -10.23209335 11.78561013 -7 8.375 C-4.41787477 5.63524503 -2.08942826 3.13414239 0 0 Z " fill="#F0F8FC" transform="translate(39,41)"/>
<path d="M0 0 C0 2.31 0 4.62 0 7 C-0.99 7 -1.98 7 -3 7 C-3.99 8.485 -3.99 8.485 -5 10 C-7.89505655 11.90464247 -10.89961475 13.46300051 -14 15 C-3.01298701 0 -3.01298701 0 0 0 Z " fill="#E8E8ED" transform="translate(39,35)"/>
<path d="M0 0 C0.33 0 0.66 0 1 0 C1.2475 1.051875 1.495 2.10375 1.75 3.1875 C2.76700786 6.8133541 4.45373429 9.19910772 7 12 C6.34 12 5.68 12 5 12 C6.63412443 13.70840281 7.86906094 14.93453047 10 16 C9.67 16.66 9.34 17.32 9 18 C6.75 17.5625 6.75 17.5625 4 16 C0.67127108 10.85270032 -0.51482382 6.04917993 0 0 Z " fill="#A7CAD9" transform="translate(11,55)"/>
<path d="M0 0 C-0.6290625 0.36351563 -1.258125 0.72703125 -1.90625 1.1015625 C-7.55243063 4.41784329 -12.85618513 7.94816818 -18 12 C-16.57646476 8.66863403 -14.8664687 6.72335243 -12.125 4.375 C-11.44695313 3.78460937 -10.76890625 3.19421875 -10.0703125 2.5859375 C-6.48145021 -0.16326645 -4.44504168 -1.58751489 0 0 Z " fill="#9C8FB7" transform="translate(35,23)"/>
<path d="M0 0 C1 2 1 2 0.22265625 4.8203125 C-0.16019531 5.91085938 -0.54304688 7.00140625 -0.9375 8.125 C-1.31777344 9.22070312 -1.69804688 10.31640625 -2.08984375 11.4453125 C-2.39019531 12.28835937 -2.69054688 13.13140625 -3 14 C-5 12 -5 12 -5.125 8.875 C-5.08375 7.92625 -5.0425 6.9775 -5 6 C-4.34 6 -3.68 6 -3 6 C-2.87625 5.195625 -2.7525 4.39125 -2.625 3.5625 C-2.41875 2.716875 -2.2125 1.87125 -2 1 C-1.34 0.67 -0.68 0.34 0 0 Z " fill="#AACCDC" transform="translate(62,41)"/>
<path d="M0 0 C2 1 2 1 3.125 3.6875 C3.98889074 6.9579435 4.16013991 9.63706182 4 13 C3.01 13.495 3.01 13.495 2 14 C0.4087311 9.126739 -0.21192221 5.19209404 0 0 Z " fill="#F6F7FC" transform="translate(45,32)"/>
<path d="M0 0 C0.33 1.32 0.66 2.64 1 4 C-5.28571429 9.42857143 -5.28571429 9.42857143 -9 11 C-7.96905133 8.42262834 -7.4891374 7.23715753 -4.9375 6 C-4.298125 5.67 -3.65875 5.34 -3 5 C-2.34786708 2.97536745 -2.34786708 2.97536745 -2 1 C-1.34 0.67 -0.68 0.34 0 0 Z " fill="#BBDFEA" transform="translate(51,48)"/>
<path d="M0 0 C0.66 0.33 1.32 0.66 2 1 C1.24203125 1.59748047 1.24203125 1.59748047 0.46875 2.20703125 C-0.1809375 2.73683594 -0.830625 3.26664063 -1.5 3.8125 C-2.1496875 4.33457031 -2.799375 4.85664063 -3.46875 5.39453125 C-5.34509128 6.99204833 -5.34509128 6.99204833 -5 10 C-5.598125 10.12375 -6.19625 10.2475 -6.8125 10.375 C-9.26231348 10.95475985 -9.26231348 10.95475985 -12 13 C-10.44997253 9.11602311 -7.99523379 6.97020381 -4.875 4.25 C-3.96492188 3.45078125 -3.05484375 2.6515625 -2.1171875 1.828125 C-1.06917969 0.92320313 -1.06917969 0.92320313 0 0 Z " fill="#DEE8FE" transform="translate(30,27)"/>
<path d="M0 0 C0.66 0.33 1.32 0.66 2 1 C4.00800456 0.71887936 6.01014051 0.38932033 8 0 C6.06745228 2.0245738 4.36841312 3.42105792 2 5 C2 5.66 2 6.32 2 7 C1.34 7 0.68 7 0 7 C0 6.34 0 5.68 0 5 C-0.99 5.33 -1.98 5.66 -3 6 C-2.67 4.68 -2.34 3.36 -2 2 C-1.34 2 -0.68 2 0 2 C0 1.34 0 0.68 0 0 Z " fill="#C6E1EA" transform="translate(34,59)"/>
<path d="M0 0 C0.75 2.125 0.75 2.125 1 4 C0.01 3.34 -0.98 2.68 -2 2 C-5.12521833 1.83300768 -5.12521833 1.83300768 -8 2 C-8.33 1.01 -8.66 0.02 -9 -1 C-5.30729773 -2.02575063 -3.15786978 -2.36840234 0 0 Z " fill="#E9EFFB" transform="translate(60,27)"/>
<path d="M0 0 C0 0.66 0 1.32 0 2 C-1.76913824 2.22226864 -3.54044371 2.42733873 -5.3125 2.625 C-6.29863281 2.74101562 -7.28476562 2.85703125 -8.30078125 2.9765625 C-11 3 -11 3 -14 1 C-12.23103898 0.63659714 -10.45973374 0.28459117 -8.6875 -0.0625 C-7.70136719 -0.25972656 -6.71523438 -0.45695312 -5.69921875 -0.66015625 C-3 -1 -3 -1 0 0 Z " fill="#B3AAC8" transform="translate(46,20)"/>
<path d="M0 0 C0.66 0 1.32 0 2 0 C3.00496852 3.01490557 3.10335303 5.04181692 3.0625 8.1875 C3.05347656 9.08855469 3.04445313 9.98960938 3.03515625 10.91796875 C3.02355469 11.60503906 3.01195313 12.29210938 3 13 C2.01 12.34 1.02 11.68 0 11 C-0.29296875 8.3984375 -0.29296875 8.3984375 -0.1875 5.375 C-0.16042969 4.37210938 -0.13335937 3.36921875 -0.10546875 2.3359375 C-0.07066406 1.56507812 -0.03585938 0.79421875 0 0 Z " fill="#A3A0C2" transform="translate(62,30)"/>
<path d="M0 0 C0.33 0 0.66 0 1 0 C1.06058594 0.74765625 1.12117187 1.4953125 1.18359375 2.265625 C1.26738281 3.25046875 1.35117188 4.2353125 1.4375 5.25 C1.51871094 6.22453125 1.59992187 7.1990625 1.68359375 8.203125 C1.95074584 10.56461753 2.35371968 12.71901065 3 15 C2.01 15 1.02 15 0 15 C-1.0024305 9.65370398 -0.84888195 5.37625234 0 0 Z " fill="#B1A8C8" transform="translate(9,52)"/>
<path d="M0 0 C0.721875 0.61875 1.44375 1.2375 2.1875 1.875 C4.78381938 3.83666353 6.94671666 4.95316 10 6 C10 6.33 10 6.66 10 7 C3.55192878 6.39169139 3.55192878 6.39169139 1.0625 4.625 C0 3 0 3 0 0 Z " fill="#8D7FAC" transform="translate(11,67)"/>
<path d="M0 0 C1.32 0 2.64 0 4 0 C4 0.66 4 1.32 4 2 C4.66 2 5.32 2 6 2 C6 2.66 6 3.32 6 4 C4.68 4 3.36 4 2 4 C1.67 5.32 1.34 6.64 1 8 C0.67 5.36 0.34 2.72 0 0 Z " fill="#AED3DF" transform="translate(55,31)"/>
<path d="M0 0 C0.33 0 0.66 0 1 0 C1.36923077 4.55384615 1.36923077 4.55384615 -0.5 6.8125 C-0.995 7.204375 -1.49 7.59625 -2 8 C-2.99 7.67 -3.98 7.34 -5 7 C-4.19152271 5.83054208 -3.37810888 4.66449539 -2.5625 3.5 C-2.11003906 2.8503125 -1.65757813 2.200625 -1.19140625 1.53125 C-0.79824219 1.0259375 -0.40507812 0.520625 0 0 Z " fill="#351D1E" transform="translate(22,48)"/>
<path d="M0 0 C0.625 1.875 0.625 1.875 1 4 C-1.46278801 6.46278801 -3.70676982 6.99771255 -7 8 C-6.67 7.01 -6.34 6.02 -6 5 C-5.01 5 -4.02 5 -3 5 C-2.690625 4.360625 -2.38125 3.72125 -2.0625 3.0625 C-1 1 -1 1 0 0 Z " fill="#DAEAFE" transform="translate(37,40)"/>
<path d="M0 0 C1.65 0 3.3 0 5 0 C5.33 2.64 5.66 5.28 6 8 C4.68 7.01 3.36 6.02 2 5 C2.66 5 3.32 5 4 5 C4 4.34 4 3.68 4 3 C3.34 3 2.68 3 2 3 C2 2.34 2 1.68 2 1 C1.34 0.67 0.68 0.34 0 0 Z " fill="#CADCEC" transform="translate(57,30)"/>
<path d="M0 0 C0.99 0.33 1.98 0.66 3 1 C3 3.64 3 6.28 3 9 C2.731875 8.401875 2.46375 7.80375 2.1875 7.1875 C1.01506533 5.02775192 -0.19369282 3.64209744 -2 2 C-1.34 1.34 -0.68 0.68 0 0 Z " fill="#78090B" transform="translate(39,29)"/>
<path d="M0 0 C0 0.66 0 1.32 0 2 C0.99 1.67 1.98 1.34 3 1 C2.34 2.32 1.68 3.64 1 5 C-0.65 4.67 -2.3 4.34 -4 4 C-4.33 3.01 -4.66 2.02 -5 1 C-2 0 -2 0 0 0 Z " fill="#A7CFE0" transform="translate(34,64)"/>
<path d="M0 0 C0 4.33685836 -2.08014014 5.9443327 -5 9 C-5.99 9 -6.98 9 -8 9 C-8 8.34 -8 7.68 -8 7 C-6.25 5.2734375 -6.25 5.2734375 -4 3.375 C-3.2575 2.74335937 -2.515 2.11171875 -1.75 1.4609375 C-1.1725 0.97882812 -0.595 0.49671875 0 0 Z " fill="#F8FAFE" transform="translate(22,32)"/>
<path d="M0 0 C3.37462715 0.54723683 5.08235 1.0549 8 3 C5.39417629 3.93065133 4.35801776 4.14917407 1.75 3.0625 C1.1725 2.711875 0.595 2.36125 0 2 C0 1.34 0 0.68 0 0 Z " fill="#F8FBFC" transform="translate(13,54)"/>
<path d="M0 0 C0.99 0.33 1.98 0.66 3 1 C-0.465 3.97 -0.465 3.97 -4 7 C-4.66 6.67 -5.32 6.34 -6 6 C-4.02 4.02 -2.04 2.04 0 0 Z " fill="#E8E9EB" transform="translate(41,52)"/>
<path d="M0 0 C1.32 0.66 2.64 1.32 4 2 C1.03 4.475 1.03 4.475 -2 7 C-1.125 1.125 -1.125 1.125 0 0 Z " fill="#6C2326" transform="translate(36,32)"/>
</svg>
