<?xml version="1.0" encoding="UTF-8"?>
<svg version="1.1" xmlns="http://www.w3.org/2000/svg" width="75" height="100">
<path d="M0 0 C4.88703349 6.140119 5.73242793 11.37655995 5 19 C2.4157527 30.50359227 -3.34948402 39.20828413 -13 46 C-22.87859433 51.3694045 -30.84617565 52.79809763 -42 51 C-46.90010838 48.67889603 -49.61196828 45.86450907 -52 41 C-53.95147105 31.82666164 -52.92592063 23.04567037 -48 15 C-40.99682273 4.87492443 -33.23760742 -2.09326308 -20.953125 -4.62890625 C-13.39814599 -5.57827531 -6.25120942 -4.5909575 0 0 Z " fill="#DAE8FC" transform="translate(60,24)"/>
<path d="M0 0 C4.88703349 6.140119 5.73242793 11.37655995 5 19 C2.4157527 30.50359227 -3.34948402 39.20828413 -13 46 C-22.87859433 51.3694045 -30.84617565 52.79809763 -42 51 C-46.90010838 48.67889603 -49.61196828 45.86450907 -52 41 C-53.95147105 31.82666164 -52.92592063 23.04567037 -48 15 C-40.99682273 4.87492443 -33.23760742 -2.09326308 -20.953125 -4.62890625 C-13.39814599 -5.57827531 -6.25120942 -4.5909575 0 0 Z M-41 9 C-47.30711792 16.51044963 -50.1888699 21.17876501 -50 31 C-46.92119706 29.46059853 -46.37652965 27.09719172 -45 24 C-44.731875 22.865625 -44.46375 21.73125 -44.1875 20.5625 C-42.69364719 16.08094156 -40.48786286 13.15527936 -37 10 C-34.125 8.5625 -34.125 8.5625 -32 8 C-32 7.01 -32 6.02 -32 5 C-31.34 5 -30.68 5 -30 5 C-29.20600745 15.13508137 -35.04747917 21.50263257 -41 29 C-40.67 29.66 -40.34 30.32 -40 31 C-34.0589653 26.61495058 -28.87802306 21.44750242 -27.40234375 13.97265625 C-27.15848649 11.30396485 -27.01001501 8.67901638 -27 6 C-25.35 5.34 -23.7 4.68 -22 4 C-22 4.99 -22 5.98 -22 7 C-21.01 6.67 -20.02 6.34 -19 6 C-19 5.34 -19 4.68 -19 4 C-16.69 4 -14.38 4 -12 4 C-13.6822326 7.73829466 -15.55628285 10.70853462 -18.1875 13.8125 C-21.2146163 17.67674476 -21.55299212 20.49115873 -21.2109375 25.3125 C-21.14132813 25.869375 -21.07171875 26.42625 -21 27 C-21.845625 26.67 -22.69125 26.34 -23.5625 26 C-26.94793562 25.65211909 -26.94793562 25.65211909 -28.921875 27.46875 C-32.98069641 31.82946722 -34.87564162 35.03079768 -35 41 C-38.3 41 -41.6 41 -45 41 C-45.99 38.03 -46.98 35.06 -48 32 C-48.33 32 -48.66 32 -49 32 C-48.64291962 37.54090237 -48.21608006 42.29073992 -45 47 C-38.33942036 50.50493431 -29.31106884 49.97421989 -22.11328125 48.34765625 C-13.97474964 45.37076792 -5.87718672 39.9306092 -2 32 C-2.11443256 29.68973726 -2.11443256 29.68973726 -3 28 C-3.66 28 -4.32 28 -5 28 C-5.495 29.485 -5.495 29.485 -6 31 C-9.35888281 33.11485214 -12.24490479 34.7483016 -16 36 C-16 35.34 -16 34.68 -16 34 C-15.4225 33.7525 -14.845 33.505 -14.25 33.25 C-11.57115389 31.76175216 -9.88794951 30.42736366 -8 28 C-7.66551741 24.832168 -7.66551741 24.832168 -8 22 C-7.01 21.67 -6.02 21.34 -5 21 C-3.47839986 17.3962102 -3 14.94779314 -3 11 C-1.02 11.99 0.96 12.98 3 14 C2.61880232 8.37733421 2.26439336 5.03388561 -2 1 C-15.55070298 -7.04086254 -30.66549848 -1.13576111 -41 9 Z " fill="#DBF2FB" transform="translate(60,24)"/>
<path d="M0 0 C4.88703349 6.140119 5.73242793 11.37655995 5 19 C2.4157527 30.50359227 -3.34948402 39.20828413 -13 46 C-22.87859433 51.3694045 -30.84617565 52.79809763 -42 51 C-46.90010838 48.67889603 -49.61196828 45.86450907 -52 41 C-53.95147105 31.82666164 -52.92592063 23.04567037 -48 15 C-40.99682273 4.87492443 -33.23760742 -2.09326308 -20.953125 -4.62890625 C-13.39814599 -5.57827531 -6.25120942 -4.5909575 0 0 Z M-41 9 C-47.54412625 16.79267666 -50.17329771 21.75963392 -50.3125 31.875 C-50.34150391 32.56980469 -50.37050781 33.26460937 -50.40039062 33.98046875 C-50.46401105 39.17776787 -49.22754103 41.98802878 -46 46 C-41.94016361 50.05983639 -36.31976872 49.30875659 -30.85302734 49.31469727 C-20.73706539 49.10857265 -13.27782165 44.81925972 -6 38 C-4.18979144 35.99447947 -3.20683317 34.46852239 -2 32 C-2.11443256 29.68973726 -2.11443256 29.68973726 -3 28 C-3.66 28 -4.32 28 -5 28 C-5.495 29.485 -5.495 29.485 -6 31 C-9.35888281 33.11485214 -12.24490479 34.7483016 -16 36 C-16 35.34 -16 34.68 -16 34 C-15.4225 33.7525 -14.845 33.505 -14.25 33.25 C-11.57115389 31.76175216 -9.88794951 30.42736366 -8 28 C-7.66551741 24.832168 -7.66551741 24.832168 -8 22 C-7.01 21.67 -6.02 21.34 -5 21 C-3.47839986 17.3962102 -3 14.94779314 -3 11 C-1.02 11.99 0.96 12.98 3 14 C2.61880232 8.37733421 2.26439336 5.03388561 -2 1 C-15.55070298 -7.04086254 -30.66549848 -1.13576111 -41 9 Z " fill="#A99FC1" transform="translate(60,24)"/>
<path d="M0 0 C0.495 1.98 0.495 1.98 1 4 C-4.75 8.875 -4.75 8.875 -7 10 C-7 10.66 -7 11.32 -7 12 C-5.906875 11.54625 -4.81375 11.0925 -3.6875 10.625 C-3.07261719 10.36976562 -2.45773438 10.11453125 -1.82421875 9.8515625 C0.26533932 8.93193308 0.26533932 8.93193308 3 7 C3.33 6.01 3.66 5.02 4 4 C4.99 4.33 5.98 4.66 7 5 C6.67628931 10.34122639 3.79977131 13.52898154 0 17 C-7.54160243 22.35368212 -14.20460274 25.28777153 -23.5625 25.25 C-24.84253906 25.25515625 -26.12257813 25.2603125 -27.44140625 25.265625 C-30.85911303 25.01051626 -33.05843817 24.73436172 -36 23 C-37.36328125 20.79296875 -37.36328125 20.79296875 -38.3125 18.1875 C-38.63863281 17.33542969 -38.96476562 16.48335937 -39.30078125 15.60546875 C-40.01369875 12.94895493 -40.13264369 10.73639013 -40 8 C-39.731875 8.556875 -39.46375 9.11375 -39.1875 9.6875 C-38.5996875 10.8321875 -38.5996875 10.8321875 -38 12 C-37.649375 12.886875 -37.29875 13.77375 -36.9375 14.6875 C-34.62407755 17.44868163 -33.89937646 17.40048363 -30.4375 17.75 C-29.65246094 17.78609375 -28.86742187 17.8221875 -28.05859375 17.859375 C-26 18 -26 18 -24 19 C-23.67 18.34 -23.34 17.68 -23 17 C-19.9375 16.375 -19.9375 16.375 -17 16 C-17 16.66 -17 17.32 -17 18 C-16.34 18 -15.68 18 -15 18 C-15.33 17.01 -15.66 16.02 -16 15 C-11.25 11 -11.25 11 -9 11 C-8.7525 10.4225 -8.505 9.845 -8.25 9.25 C-6.80606301 6.65091342 -5.26478013 4.92163162 -3 3 C-2.01 3 -1.02 3 0 3 C0 2.01 0 1.02 0 0 Z " fill="#BDD8ED" transform="translate(51,48)"/>
<path d="M0 0 C1.61671541 1.77046644 1.9704877 3.14449016 2.35546875 5.484375 C-0.14453125 4.109375 -0.14453125 4.109375 -2.64453125 2.484375 C-2.64453125 1.824375 -2.64453125 1.164375 -2.64453125 0.484375 C-3.63453125 0.814375 -4.62453125 1.144375 -5.64453125 1.484375 C-4.98453125 1.484375 -4.32453125 1.484375 -3.64453125 1.484375 C-3.64453125 2.144375 -3.64453125 2.804375 -3.64453125 3.484375 C-5.29453125 4.144375 -6.94453125 4.804375 -8.64453125 5.484375 C-8.64453125 6.144375 -8.64453125 6.804375 -8.64453125 7.484375 C-9.96453125 7.814375 -11.28453125 8.144375 -12.64453125 8.484375 C-11.98453125 6.504375 -11.32453125 4.524375 -10.64453125 2.484375 C-12.95453125 2.484375 -15.26453125 2.484375 -17.64453125 2.484375 C-17.97453125 3.474375 -18.30453125 4.464375 -18.64453125 5.484375 C-19.30453125 5.484375 -19.96453125 5.484375 -20.64453125 5.484375 C-20.64453125 4.494375 -20.64453125 3.504375 -20.64453125 2.484375 C-22.29453125 3.144375 -23.94453125 3.804375 -25.64453125 4.484375 C-25.6703125 5.20882813 -25.69609375 5.93328125 -25.72265625 6.6796875 C-26.07999933 12.77076276 -26.60062184 16.67540165 -30.64453125 21.484375 C-31.13695313 22.10441406 -31.629375 22.72445312 -32.13671875 23.36328125 C-36.16617252 28.32492209 -36.16617252 28.32492209 -39.64453125 29.484375 C-38.24847664 25.41315815 -36.28779524 22.62137994 -33.58203125 19.296875 C-29.64380676 14.05540443 -28.41861816 9.99349604 -28.64453125 3.484375 C-29.30453125 3.484375 -29.96453125 3.484375 -30.64453125 3.484375 C-30.64453125 4.474375 -30.64453125 5.464375 -30.64453125 6.484375 C-31.51078125 6.814375 -32.37703125 7.144375 -33.26953125 7.484375 C-39.49399369 11.17294533 -42.70015084 16.60425969 -44.64453125 23.484375 C-45.61457246 25.49907598 -46.60698007 27.50359547 -47.64453125 29.484375 C-47.97453125 29.484375 -48.30453125 29.484375 -48.64453125 29.484375 C-49.21095749 20.23274641 -45.67586025 14.81810997 -39.95703125 7.921875 C-29.93191192 -2.64514267 -13.12210001 -9.06516077 0 0 Z " fill="#F3F6FB" transform="translate(58.64453125,25.515625)"/>
<path d="M0 0 C2.31 0 4.62 0 7 0 C6.47673383 4.15705905 5.28621624 6.16689186 2.5 9.25 C-1.30532383 13.88019975 -1.90589946 17.07166588 -2 23 C-2.845625 22.814375 -3.69125 22.62875 -4.5625 22.4375 C-8.80909118 23.13239674 -9.17299564 24.11591623 -11.625 27.5 C-12.17414062 28.3353125 -12.72328125 29.170625 -13.2890625 30.03125 C-13.85367187 30.6809375 -14.41828125 31.330625 -15 32 C-16.32 32 -17.64 32 -19 32 C-18.57009282 27.06502384 -16.35470281 24.9399241 -13 21.4375 C-8.32840443 16.28589026 -6.88502725 12.16062916 -6.8671875 5.203125 C-6.91101562 4.47609375 -6.95484375 3.7490625 -7 3 C-6.030625 2.87625 -5.06125 2.7525 -4.0625 2.625 C-3.051875 2.41875 -2.04125 2.2125 -1 2 C-0.67 1.34 -0.34 0.68 0 0 Z " fill="#3B1315" transform="translate(41,28)"/>
<path d="M0 0 C0.99 0 1.98 0 3 0 C2.67 2.97 2.34 5.94 2 9 C2.763125 8.67 3.52625 8.34 4.3125 8 C7 7 7 7 10 7 C7.78063542 12.24577082 4.07120978 16.23681414 -0.3125 19.75 C-1.6428125 20.86375 -1.6428125 20.86375 -3 22 C-3 22.66 -3 23.32 -3 24 C-3.66 24 -4.32 24 -5 24 C-5 23.34 -5 22.68 -5 22 C-6.98 22.33 -8.96 22.66 -11 23 C-11.33 23.99 -11.66 24.98 -12 26 C-12.66 25.67 -13.32 25.34 -14 25 C-15.53668865 24.77532169 -17.07968054 24.59203195 -18.625 24.4375 C-19.44226563 24.35371094 -20.25953125 24.26992187 -21.1015625 24.18359375 C-22.04128906 24.09271484 -22.04128906 24.09271484 -23 24 C-23 23.67 -23 23.34 -23 23 C-20.03 23 -17.06 23 -14 23 C-13.979375 22.01 -13.95875 21.02 -13.9375 20 C-13.20074645 14.86377522 -10.04994008 11.09507616 -6 8 C-2.5625 8 -2.5625 8 0 9 C0 6.03 0 3.06 0 0 Z " fill="#DBF2F9" transform="translate(39,42)"/>
<path d="M0 0 C2.475 0.99 2.475 0.99 5 2 C5 3.65 5 5.3 5 7 C4.34 7 3.68 7 3 7 C2.67 8.65 2.34 10.3 2 12 C1.34 12 0.68 12 0 12 C0 13.65 0 15.3 0 17 C-0.66 17 -1.32 17 -2 17 C-2.020625 17.5775 -2.04125 18.155 -2.0625 18.75 C-3.53615776 22.28677861 -6.6708354 23.48079607 -10 25 C-12.4375 25.75 -12.4375 25.75 -14 26 C-13.67 24.68 -13.34 23.36 -13 22 C-12.360625 21.896875 -11.72125 21.79375 -11.0625 21.6875 C-10.0415625 21.3471875 -10.0415625 21.3471875 -9 21 C-8.67 20.01 -8.34 19.02 -8 18 C-7.34 17.67 -6.68 17.34 -6 17 C-6 14.69 -6 12.38 -6 10 C-4.68 10 -3.36 10 -2 10 C-1.34 6.7 -0.68 3.4 0 0 Z " fill="#5AAEC8" transform="translate(57,35)"/>
<path d="M0 0 C0.86151566 2.40574185 1.12825384 3.62715276 0.28515625 6.078125 C-5.84696442 16.97096555 -13.25203617 22.65280212 -25 27 C-31.32132909 28.70418276 -39.00573479 28.52786101 -45.14453125 26.1796875 C-47.55299776 24.69124347 -48.84600197 23.39599493 -49.875 20.75 C-49.91625 20.1725 -49.9575 19.595 -50 19 C-49.2575 19.639375 -48.515 20.27875 -47.75 20.9375 C-41.57652153 25.56760885 -33.38438109 24.53444552 -26 24 C-16.99902062 21.89696744 -9.12631541 16.52395035 -4.03125 8.8125 C-2.41034803 5.96364199 -1.18470464 3.05529091 0 0 Z " fill="#958CB6" transform="translate(61,48)"/>
<path d="M0 0 C-0.5259648 4.16388804 -1.74640547 6.24899309 -4.5 9.375 C-7.77241127 13.37015242 -8.89078353 15.86682577 -9 21 C-9.33 21 -9.66 21 -10 21 C-10.12375 20.195625 -10.2475 19.39125 -10.375 18.5625 C-10.58125 17.716875 -10.7875 16.87125 -11 16 C-11.66 15.67 -12.32 15.34 -13 15 C-12.67 13.02 -12.34 11.04 -12 9 C-11.01 9 -10.02 9 -9 9 C-9.33 8.67 -9.66 8.34 -10 8 C-10.28792759 5.26468791 -10.34443368 3.58756334 -8.9375 1.1875 C-6.00731249 -0.60842137 -3.3527047 -0.18977574 0 0 Z " fill="#771D20" transform="translate(48,28)"/>
<path d="M0 0 C0.66 0 1.32 0 2 0 C2.78860898 5.08214677 2.78860898 5.08214677 2 8 C-0.10220928 9.95081561 -2.24171739 11.2727204 -4.73828125 12.67578125 C-7.03039851 13.88976835 -7.03039851 13.88976835 -8.66796875 15.66796875 C-9.10753906 16.10753906 -9.54710937 16.54710938 -10 17 C-10.66 17 -11.32 17 -12 17 C-12.2685261 13.98829554 -12.25089574 12.40779596 -10.64453125 9.796875 C-10.03996094 9.12140625 -9.43539063 8.4459375 -8.8125 7.75 C-8.22082031 7.06421875 -7.62914062 6.3784375 -7.01953125 5.671875 C-4.67504263 3.73098306 -2.98862142 3.35099526 0 3 C0 2.01 0 1.02 0 0 Z " fill="#D4E1FE" transform="translate(28,29)"/>
<path d="M0 0 C0.268125 0.556875 0.53625 1.11375 0.8125 1.6875 C1.4003125 2.8321875 1.4003125 2.8321875 2 4 C2.350625 4.886875 2.70125 5.77375 3.0625 6.6875 C5.38695887 9.46185413 6.20129428 9.43000094 9.6875 9.8125 C11.1238593 9.89726123 12.56152439 9.96682761 14 10 C15.125 13.75 15.125 13.75 14 16 C11.12814266 16.95728578 9.40860345 17.11051871 6.47265625 16.31640625 C3.37545666 14.6675022 2.87344198 13.44273992 1.6875 10.1875 C1.36136719 9.33542969 1.03523437 8.48335937 0.69921875 7.60546875 C-0.01369875 4.94895493 -0.13264369 2.73639013 0 0 Z " fill="#94C5D4" transform="translate(11,56)"/>
<path d="M0 0 C1.32 0 2.64 0 4 0 C4 0.99 4 1.98 4 3 C2.68 3 1.36 3 0 3 C0.11601563 3.72703125 0.23203125 4.4540625 0.3515625 5.203125 C0.89657526 11.27612435 0.51867422 15.07690761 -3.43017578 19.94042969 C-5.5638616 22.34770363 -7.77694781 24.67542259 -10 27 C-11.02368957 28.31523285 -12.03521538 29.64096784 -13 31 C-12.53634063 26.04464044 -11.22517148 23.50502108 -8 19.75 C-3.41981738 14.35192763 -2.81255126 11.54338203 -2.37890625 4.53125 C-2 2 -2 2 0 0 Z " fill="#64A1B5" transform="translate(34,28)"/>
<path d="M0 0 C0.33 1.32 0.66 2.64 1 4 C-4.75 8.875 -4.75 8.875 -7 10 C-7.1546875 10.928125 -7.1546875 10.928125 -7.3125 11.875 C-8.30415315 14.94010974 -10.26392514 15.43652865 -13 17 C-14.78344178 19.06954847 -14.78344178 19.06954847 -16 21 C-17.65 20.67 -19.3 20.34 -21 20 C-21.33 19.01 -21.66 18.02 -22 17 C-20.35 16.67 -18.7 16.34 -17 16 C-17 16.66 -17 17.32 -17 18 C-16.34 18 -15.68 18 -15 18 C-15.33 17.01 -15.66 16.02 -16 15 C-11.25 11 -11.25 11 -9 11 C-8.7525 10.4225 -8.505 9.845 -8.25 9.25 C-6.80606301 6.65091342 -5.26478013 4.92163162 -3 3 C-2.01 3 -1.02 3 0 3 C0 2.01 0 1.02 0 0 Z " fill="#9DCAD9" transform="translate(51,48)"/>
<path d="M0 0 C1.32 1.65 2.64 3.3 4 5 C3.2575 5.53625 2.515 6.0725 1.75 6.625 C-1.16103205 8.90799249 -1.16103205 8.90799249 -3.0625 12.25 C-3.701875 13.1575 -4.34125 14.065 -5 15 C-6.32 15 -7.64 15 -9 15 C-8.4887988 10.49656089 -6.82478642 8.12474574 -3.9375 4.6875 C-3.20402344 3.80449219 -2.47054688 2.92148437 -1.71484375 2.01171875 C-1.14894531 1.34785156 -0.58304688 0.68398438 0 0 Z " fill="#332023" transform="translate(31,45)"/>
<path d="M0 0 C0.99 0.33 1.98 0.66 3 1 C2.12727273 9.87272727 2.12727273 9.87272727 -2 14 C-2.66 14.99 -3.32 15.98 -4 17 C-5.35439668 14.29120665 -5.06501451 11.99066732 -5 9 C-4.34 9 -3.68 9 -3 9 C-2.67 7.35 -2.34 5.7 -2 4 C-1.34 4 -0.68 4 0 4 C0 2.68 0 1.36 0 0 Z " fill="#A7B1CB" transform="translate(62,38)"/>
<path d="M0 0 C0.33 0 0.66 0 1 0 C1.61460156 4.76316207 1.85532274 7.56427969 -0.640625 11.75390625 C-6.42667598 19.11504888 -6.42667598 19.11504888 -11 21 C-9.20165699 15.80269455 -6.12052118 12.02316651 -2.77734375 7.71875 C-1.01311414 5.02006031 -0.37316407 3.16902412 0 0 Z " fill="#F0F8FC" transform="translate(30,34)"/>
<path d="M0 0 C0.66 0 1.32 0 2 0 C1.9375 2.25 1.9375 2.25 1 5 C-2.19675428 7.55740342 -5.9438528 9.35101645 -10 10 C-9.67 8.68 -9.34 7.36 -9 6 C-8.360625 5.896875 -7.72125 5.79375 -7.0625 5.6875 C-6.381875 5.460625 -5.70125 5.23375 -5 5 C-4.67 4.01 -4.34 3.02 -4 2 C-2.68 2 -1.36 2 0 2 C0 1.34 0 0.68 0 0 Z " fill="#89BFD0" transform="translate(53,51)"/>
<path d="M0 0 C1.65 0.33 3.3 0.66 5 1 C5 1.66 5 2.32 5 3 C5.66 3 6.32 3 7 3 C7 3.66 7 4.32 7 5 C5.68 5 4.36 5 3 5 C2.814375 6.6396875 2.814375 6.6396875 2.625 8.3125 C2 12 2 12 0 15 C0 14.34 0 13.68 0 13 C-0.66 13 -1.32 13 -2 13 C-1.71125 12.46375 -1.4225 11.9275 -1.125 11.375 C0.16711808 8.64719516 1.08558592 5.87387282 2 3 C1.34 3 0.68 3 0 3 C0 2.01 0 1.02 0 0 Z " fill="#B0D4E3" transform="translate(54,30)"/>
<path d="M0 0 C0.268125 0.556875 0.53625 1.11375 0.8125 1.6875 C2.57662422 5.12289979 4.25793106 8.25793106 7 11 C6.34 11 5.68 11 5 11 C6.63412443 12.70840281 7.86906094 13.93453047 10 15 C9.67 15.66 9.34 16.32 9 17 C5.91193522 16.08331079 4.36168451 15.5855351 2.63671875 12.79296875 C2.32347656 11.93316406 2.01023437 11.07335937 1.6875 10.1875 C1.36136719 9.33542969 1.03523437 8.48335937 0.69921875 7.60546875 C-0.01369875 4.94895493 -0.13264369 2.73639013 0 0 Z " fill="#A6C9D8" transform="translate(11,56)"/>
<path d="M0 0 C-0.33 0.99 -0.66 1.98 -1 3 C-2.65 2.67 -4.3 2.34 -6 2 C-6.2165625 2.928125 -6.2165625 2.928125 -6.4375 3.875 C-7 6 -7 6 -8 8 C-8.66 8 -9.32 8 -10 8 C-10.21917317 5.29686424 -10.32851983 3.56041618 -8.9375 1.1875 C-6.00731249 -0.60842137 -3.3527047 -0.18977574 0 0 Z " fill="#679FB2" transform="translate(48,28)"/>
<path d="M0 0 C0.66 0.33 1.32 0.66 2 1 C2 4.60229662 1.83764483 8.10002366 1.5 11.6875 C1.4071875 12.68136719 1.314375 13.67523438 1.21875 14.69921875 C1.1465625 15.45847656 1.074375 16.21773437 1 17 C0.67 17 0.34 17 0 17 C-0.66 11.72 -1.32 6.44 -2 1 C-1.34 0.67 -0.68 0.34 0 0 Z " fill="#E4EDF6" transform="translate(31,24)"/>
<path d="M0 0 C0.99 0.8971875 0.99 0.8971875 2 1.8125 C5.58183997 4.42425831 8.81377726 5.58094144 13 7 C13 7.33 13 7.66 13 8 C9.10698835 8.37076301 7.19422173 8.10260771 3.6875 6.25 C1 4 1 4 0.125 1.75 C0.08375 1.1725 0.0425 0.595 0 0 Z " fill="#9487B2" transform="translate(11,67)"/>
<path d="M0 0 C1.79133978 -0.05391993 3.58313899 -0.09275571 5.375 -0.125 C6.37273438 -0.14820312 7.37046875 -0.17140625 8.3984375 -0.1953125 C11 0 11 0 13 2 C8.9472484 2.98248524 5.16138263 3.08159574 1 3 C0.67 2.01 0.34 1.02 0 0 Z " fill="#ACA9C7" transform="translate(23,73)"/>
<path d="M0 0 C0.33 1.32 0.66 2.64 1 4 C-5.28571429 9.42857143 -5.28571429 9.42857143 -9 11 C-7.55873214 7.63704165 -5.79407345 5.37072898 -3 3 C-2.01 3 -1.02 3 0 3 C0 2.01 0 1.02 0 0 Z " fill="#BADEE9" transform="translate(51,48)"/>
<path d="M0 0 C2.475 0.99 2.475 0.99 5 2 C4.34 5.3 3.68 8.6 3 12 C2.67 12 2.34 12 2 12 C1.87625 11.195625 1.7525 10.39125 1.625 9.5625 C1.315625 8.2940625 1.315625 8.2940625 1 7 C0.34 6.67 -0.32 6.34 -1 6 C-0.67 4.02 -0.34 2.04 0 0 Z " fill="#662A2E" transform="translate(36,37)"/>
<path d="M0 0 C-2.46301423 2.46301423 -4.27360036 2.76766521 -7.625 3.625 C-9.12933594 4.01558594 -9.12933594 4.01558594 -10.6640625 4.4140625 C-11.43492188 4.60742188 -12.20578125 4.80078125 -13 5 C-13 4.34 -13 3.68 -13 3 C-8.70614007 -0.4887612 -5.28129105 -0.26854022 0 0 Z " fill="#998CB5" transform="translate(40,21)"/>
<path d="M0 0 C2 3 2 3 1.75 5.5 C1 8 1 8 -1 11 C-2.35439668 8.29120665 -2.06501451 5.99066732 -2 3 C-1.34 3 -0.68 3 0 3 C0 2.01 0 1.02 0 0 Z " fill="#A5CADB" transform="translate(59,44)"/>
<path d="M0 0 C0.99 0.33 1.98 0.66 3 1 C-0.32850747 4.59478807 -3.98971331 7.22364768 -8 10 C-6.44303593 6.17836093 -3.96591316 3.81381505 -1 1 C-0.67 0.67 -0.34 0.34 0 0 Z " fill="#AB9FC2" transform="translate(25,25)"/>
<path d="M0 0 C1.0169313 2.65498232 1.13022151 3.69155375 0.00390625 6.359375 C-0.47175781 7.14828125 -0.94742188 7.9371875 -1.4375 8.75 C-1.91058594 9.54921875 -2.38367187 10.3484375 -2.87109375 11.171875 C-3.24363281 11.77515625 -3.61617187 12.3784375 -4 13 C-4.66 12.34 -5.32 11.68 -6 11 C-5.38125 9.9275 -4.7625 8.855 -4.125 7.75 C-2.6676321 5.20219016 -1.27075509 2.64740645 0 0 Z " fill="#9E95BB" transform="translate(61,48)"/>
<path d="M0 0 C0.33 0.99 0.66 1.98 1 3 C-0.21484375 5.26171875 -0.21484375 5.26171875 -1.9375 7.6875 C-2.50339844 8.49574219 -3.06929687 9.30398437 -3.65234375 10.13671875 C-4.09707031 10.75160156 -4.54179687 11.36648437 -5 12 C-5.68359375 10.265625 -5.68359375 10.265625 -6 8 C-4.78515625 5.859375 -4.78515625 5.859375 -3.0625 3.75 C-2.49660156 3.04359375 -1.93070313 2.3371875 -1.34765625 1.609375 C-0.90292969 1.07828125 -0.45820313 0.5471875 0 0 Z " fill="#71AEC1" transform="translate(27,47)"/>
<path d="M0 0 C1.32 1.65 2.64 3.3 4 5 C1.525 6.485 1.525 6.485 -1 8 C-1.66 6.68 -2.32 5.36 -3 4 C-2.01 2.68 -1.02 1.36 0 0 Z " fill="#452325" transform="translate(31,45)"/>
<path d="M0 0 C1.65 0 3.3 0 5 0 C5.33 2.64 5.66 5.28 6 8 C4.68 7.01 3.36 6.02 2 5 C2.66 5 3.32 5 4 5 C4 4.34 4 3.68 4 3 C3.34 3 2.68 3 2 3 C2 2.34 2 1.68 2 1 C1.34 0.67 0.68 0.34 0 0 Z " fill="#CADCEC" transform="translate(57,30)"/>
<path d="M0 0 C0 0.66 0 1.32 0 2 C0.99 1.67 1.98 1.34 3 1 C2.34 2.32 1.68 3.64 1 5 C-0.65 4.67 -2.3 4.34 -4 4 C-4.33 3.01 -4.66 2.02 -5 1 C-2 0 -2 0 0 0 Z " fill="#A7CFE0" transform="translate(34,64)"/>
<path d="M0 0 C0.33 0.66 0.66 1.32 1 2 C1.66 2 2.32 2 3 2 C3 2.66 3 3.32 3 4 C2.01 4.495 2.01 4.495 1 5 C0.67 5.66 0.34 6.32 0 7 C-0.99 6.67 -1.98 6.34 -3 6 C-2 4 -1 2 0 0 Z " fill="#CDE2F6" transform="translate(51,41)"/>
<path d="M0 0 C0.99 0 1.98 0 3 0 C2.67 2.64 2.34 5.28 2 8 C1.34 8 0.68 8 0 8 C0 5.36 0 2.72 0 0 Z " fill="#F2F7FC" transform="translate(39,42)"/>
<path d="M0 0 C0.33 0.66 0.66 1.32 1 2 C2.32 1.34 3.64 0.68 5 0 C5 1.98 5 3.96 5 6 C4.34 6 3.68 6 3 6 C3 5.34 3 4.68 3 4 C2.01 3.67 1.02 3.34 0 3 C0 2.01 0 1.02 0 0 Z " fill="#3B0405" transform="translate(32,45)"/>
<path d="M0 0 C0 0.66 0 1.32 0 2 C-3.3 1.67 -6.6 1.34 -10 1 C-10 0.67 -10 0.34 -10 0 C-6.33694766 -0.74926071 -3.57644848 -1.2380014 0 0 Z " fill="#C1B9D2" transform="translate(46,20)"/>
</svg>
