<?xml version="1.0" encoding="UTF-8"?>
<svg version="1.1" xmlns="http://www.w3.org/2000/svg" width="75" height="100">
<path d="M0 0 C4.16619433 4.58037739 4.89107897 9.848066 4.68359375 15.79296875 C3.24261551 26.88364399 -2.8147298 36.8749514 -11.40625 43.8984375 C-19.60390163 49.59991839 -28.20668221 52.23301568 -38.1796875 51.2109375 C-42.92749348 50.34627085 -46.27283928 49.05945694 -49.6640625 45.46875 C-53.71214492 39.25205199 -54.21065469 32.65451545 -53.0390625 25.46875 C-50.28119398 13.86421234 -42.37084127 5.2157763 -32.7265625 -1.53125 C-23.01205782 -7.00174262 -8.84149158 -7.41822708 0 0 Z " fill="#E0F4FC" transform="translate(60.6640625,24.53125)"/>
<path d="M0 0 C4.16619433 4.58037739 4.89107897 9.848066 4.68359375 15.79296875 C3.24261551 26.88364399 -2.8147298 36.8749514 -11.40625 43.8984375 C-19.60390163 49.59991839 -28.20668221 52.23301568 -38.1796875 51.2109375 C-42.92749348 50.34627085 -46.27283928 49.05945694 -49.6640625 45.46875 C-53.71214492 39.25205199 -54.21065469 32.65451545 -53.0390625 25.46875 C-50.28119398 13.86421234 -42.37084127 5.2157763 -32.7265625 -1.53125 C-23.01205782 -7.00174262 -8.84149158 -7.41822708 0 0 Z M-42.6640625 9.46875 C-48.67320183 16.70510792 -50.80167449 21.45935119 -50.9140625 30.84375 C-50.93984375 32.13023438 -50.965625 33.41671875 -50.9921875 34.7421875 C-50.64550281 38.67953501 -49.65244207 41.08850473 -47.6640625 44.46875 C-46.6740625 43.97375 -46.6740625 43.97375 -45.6640625 43.46875 C-46.1590625 42.685 -46.6540625 41.90125 -47.1640625 41.09375 C-49.09822185 36.41953158 -48.93009127 32.45432619 -48.6640625 27.46875 C-48.0040625 27.46875 -47.3440625 27.46875 -46.6640625 27.46875 C-46.8290625 28.190625 -46.9940625 28.9125 -47.1640625 29.65625 C-48.12091369 34.79115236 -48.12091369 34.79115236 -46.46484375 39.578125 C-44.156563 42.00156943 -42.89548428 42.01556704 -39.6015625 42.15625 C-34.7949954 42.40328355 -34.7949954 42.40328355 -32.6640625 43.46875 C-32.6640625 42.47875 -32.6640625 41.48875 -32.6640625 40.46875 C-31.6740625 40.46875 -30.6840625 40.46875 -29.6640625 40.46875 C-29.3340625 39.47875 -29.0040625 38.48875 -28.6640625 37.46875 C-27.6740625 37.46875 -26.6840625 37.46875 -25.6640625 37.46875 C-24.16268517 36.8991667 -22.68426597 36.26729258 -21.2265625 35.59375 C-20.46472656 35.24570312 -19.70289062 34.89765625 -18.91796875 34.5390625 C-13.16815267 31.86169964 -13.16815267 31.86169964 -8.6640625 27.46875 C-8.32957991 24.300918 -8.32957991 24.300918 -8.6640625 21.46875 C-7.6740625 21.13875 -6.6840625 20.80875 -5.6640625 20.46875 C-4.14246236 16.8649602 -3.6640625 14.41654314 -3.6640625 10.46875 C-1.1890625 10.96375 -1.1890625 10.96375 1.3359375 11.46875 C1.67363809 7.83846871 1.62189603 5.94168141 -0.2890625 2.78125 C-4.8670165 -1.67623153 -9.16676771 -2.9487402 -15.4765625 -2.90625 C-27.31458009 -2.57121177 -34.17117285 1.1293463 -42.6640625 9.46875 Z " fill="#BFDAEE" transform="translate(60.6640625,24.53125)"/>
<path d="M0 0 C0.721875 0.103125 1.44375 0.20625 2.1875 0.3125 C4.85340937 4.86676184 5.50313182 8.05196963 5.1875 13.3125 C1.8875 14.6325 -1.4125 15.9525 -4.8125 17.3125 C-4.4825 19.9525 -4.1525 22.5925 -3.8125 25.3125 C-6.01374308 26.49453738 -8.22191829 27.65790108 -10.4375 28.8125 C-11.05496094 29.14636719 -11.67242187 29.48023437 -12.30859375 29.82421875 C-16.30325758 31.88462431 -19.32131603 32.89200761 -23.8125 32.3125 C-24.4725 31.6525 -25.1325 30.9925 -25.8125 30.3125 C-25.55036125 26.40578697 -23.20525632 24.0765323 -20.75 21.1875 C-17.63030187 17.47758871 -14.55780167 13.74866479 -11.5625 9.9375 C-3.92176268 0.43575141 -3.92176268 0.43575141 0 0 Z " fill="#2D1B1D" transform="translate(43.8125,27.6875)"/>
<path d="M0 0 C4.36003308 4.79348666 4.65516954 9.99272123 4.5390625 16.13671875 C4.34637678 18.34889906 3.94362992 20.33692577 3.3359375 22.46875 C2.6759375 22.46875 2.0159375 22.46875 1.3359375 22.46875 C1.37074219 21.52773438 1.40554687 20.58671875 1.44140625 19.6171875 C1.48201172 17.74933594 1.48201172 17.74933594 1.5234375 15.84375 C1.55824219 14.61398438 1.59304687 13.38421875 1.62890625 12.1171875 C1.30991425 8.14467383 0.42207652 5.83791348 -1.6640625 2.46875 C-7.10795249 -2.12831266 -12.25522241 -2.08330256 -19.234375 -1.83984375 C-28.64214608 -0.99335865 -34.93193532 2.86971265 -41.6640625 9.46875 C-47.65356063 16.7191951 -49.80166298 21.45838984 -49.9140625 30.84375 C-49.93984375 32.13023438 -49.965625 33.41671875 -49.9921875 34.7421875 C-49.56036152 39.64649684 -48.14899842 42.98381408 -44.6640625 46.46875 C-37.51198377 49.04682489 -27.25811402 48.47921488 -20.2265625 45.84375 C-9.80491124 40.90991178 -3.78746841 34.10279683 0.3359375 23.46875 C1.31780785 26.04763838 1.45871503 27.15486658 0.4375 29.765625 C-5.64872333 39.87712832 -13.2921782 46.82472078 -24.6640625 50.46875 C-32.63681005 52.1425865 -40.45823358 52.02881978 -47.5390625 47.71875 C-52.30554993 42.67188096 -53.65313807 37.24189494 -53.6640625 30.46875 C-52.57025875 17.82040122 -45.96448041 9.65311776 -36.6640625 1.46875 C-26.72099891 -6.68380022 -10.3617474 -8.6937588 0 0 Z " fill="#A095BB" transform="translate(60.6640625,24.53125)"/>
<path d="M0 0 C1.61671541 1.77046644 1.9704877 3.14449016 2.35546875 5.484375 C1.59234375 4.96875 0.82921875 4.453125 0.04296875 3.921875 C-0.84390625 3.4475 -1.73078125 2.973125 -2.64453125 2.484375 C-3.63453125 2.814375 -4.62453125 3.144375 -5.64453125 3.484375 C-5.97453125 5.134375 -6.30453125 6.784375 -6.64453125 8.484375 C-5.65453125 8.484375 -4.66453125 8.484375 -3.64453125 8.484375 C-3.97453125 9.474375 -4.30453125 10.464375 -4.64453125 11.484375 C-5.30453125 11.484375 -5.96453125 11.484375 -6.64453125 11.484375 C-6.97453125 12.474375 -7.30453125 13.464375 -7.64453125 14.484375 C-9.87278769 12.25611856 -10.33692494 10.82675872 -11.26953125 7.859375 C-11.66011719 6.63347656 -11.66011719 6.63347656 -12.05859375 5.3828125 C-12.25195312 4.75632812 -12.4453125 4.12984375 -12.64453125 3.484375 C-13.77890625 3.360625 -14.91328125 3.236875 -16.08203125 3.109375 C-17.25765625 2.903125 -18.43328125 2.696875 -19.64453125 2.484375 C-19.97453125 1.824375 -20.30453125 1.164375 -20.64453125 0.484375 C-22.6198987 0.83224208 -22.6198987 0.83224208 -24.64453125 1.484375 C-24.97453125 2.144375 -25.30453125 2.804375 -25.64453125 3.484375 C-24.65453125 3.154375 -23.66453125 2.824375 -22.64453125 2.484375 C-22.64453125 3.144375 -22.64453125 3.804375 -22.64453125 4.484375 C-28.39453125 4.609375 -28.39453125 4.609375 -30.64453125 3.484375 C-30.64453125 4.474375 -30.64453125 5.464375 -30.64453125 6.484375 C-31.51078125 6.814375 -32.37703125 7.144375 -33.26953125 7.484375 C-39.43158497 11.13596239 -42.81255609 16.61446815 -44.64453125 23.484375 C-45.01578125 24.268125 -45.38703125 25.051875 -45.76953125 25.859375 C-47.48700926 31.01180902 -47.24535969 35.56584775 -45.14453125 40.484375 C-44.64953125 41.474375 -44.15453125 42.464375 -43.64453125 43.484375 C-46.64453125 42.484375 -46.64453125 42.484375 -47.8125 40.3828125 C-49.76741566 33.5727307 -49.43256202 25.48874229 -47.64453125 18.671875 C-41.63252167 9.09023474 -34.8828429 1.68593592 -24.39453125 -2.953125 C-15.73389914 -4.25221982 -7.47985906 -5.16732267 0 0 Z " fill="#F4F6FB" transform="translate(58.64453125,25.515625)"/>
<path d="M0 0 C0.969375 0.495 1.93875 0.99 2.9375 1.5 C5.58132408 3.07331124 5.58132408 3.07331124 7 3 C7 4.98 7 6.96 7 9 C4.525 8.505 4.525 8.505 2 8 C1.855625 9.093125 1.71125 10.18625 1.5625 11.3125 C1 15 1 15 0 18 C-0.99 18.33 -1.98 18.66 -3 19 C-2.87625 19.886875 -2.7525 20.77375 -2.625 21.6875 C-3 25 -3 25 -5.75 27.75 C-8.15406396 29.41435197 -10.32105036 30.86659823 -13 32 C-11.33248852 28.05860922 -8.77289351 25.2107188 -6 22 C-7.65 22.66 -9.3 23.32 -11 24 C-12.32 22.35 -13.64 20.7 -15 19 C-15.66 19.33 -16.32 19.66 -17 20 C-16.505 18.515 -16.505 18.515 -16 17 C-13.45338565 16.04501962 -10.89398398 15.47470072 -8.25 14.84375 C-7.5075 14.5653125 -6.765 14.286875 -6 14 C-5.67 13.01 -5.34 12.02 -5 11 C-4.67 11.33 -4.34 11.66 -4 12 C-2.68 10.35 -1.36 8.7 0 7 C-0.99 7 -1.98 7 -3 7 C-3.33 7.66 -3.66 8.32 -4 9 C-3.42415568 6.61435923 -2.77772405 4.33317216 -2 2 C-1.34 2 -0.68 2 0 2 C0 1.34 0 0.68 0 0 Z " fill="#D0E1F2" transform="translate(55,27)"/>
<path d="M0 0 C0.721875 0.103125 1.44375 0.20625 2.1875 0.3125 C4.85340937 4.86676184 5.50313182 8.05196963 5.1875 13.3125 C0.7791595 13.97790989 -3.36110453 14.3125 -7.8125 14.3125 C-6.03304913 10.26829349 -3.41720327 6.85171513 -0.8125 3.3125 C-8.1763916 10.43884671 -14.84254449 18.16226979 -21.0859375 26.28125 C-22.8125 28.3125 -22.8125 28.3125 -25.8125 30.3125 C-25.23371466 26.36206037 -23.2978429 24.18547638 -20.75 21.1875 C-17.63030187 17.47758871 -14.55780167 13.74866479 -11.5625 9.9375 C-3.92176268 0.43575141 -3.92176268 0.43575141 0 0 Z " fill="#67A7BC" transform="translate(43.8125,27.6875)"/>
<path d="M0 0 C1.65 0.66 3.3 1.32 5 2 C5 3.65 5 5.3 5 7 C4.34 7 3.68 7 3 7 C2.67 8.65 2.34 10.3 2 12 C1.34 12 0.68 12 0 12 C0 13.65 0 15.3 0 17 C-0.66 17 -1.32 17 -2 17 C-2.33 18.32 -2.66 19.64 -3 21 C-3.66 21 -4.32 21 -5 21 C-5 21.66 -5 22.32 -5 23 C-5.88751953 23.38091797 -5.88751953 23.38091797 -6.79296875 23.76953125 C-10.30143305 25.2976878 -13.63131886 26.76757058 -16.875 28.8125 C-17.57625 29.204375 -18.2775 29.59625 -19 30 C-19.99 29.67 -20.98 29.34 -22 29 C-12.28571429 21 -12.28571429 21 -9 21 C-8.67 20.01 -8.34 19.02 -8 18 C-7.34 17.67 -6.68 17.34 -6 17 C-6 14.69 -6 12.38 -6 10 C-4.68 10 -3.36 10 -2 10 C-1.34 6.7 -0.68 3.4 0 0 Z " fill="#5AAEC8" transform="translate(57,35)"/>
<path d="M0 0 C0.98187035 2.57888838 1.12277753 3.68611658 0.1015625 6.296875 C-5.98466083 16.40837832 -13.6281157 23.35597078 -25 27 C-31.78016403 28.42345985 -38.46416807 28.50169118 -45 26 C-48.0625 23.875 -48.0625 23.875 -50 22 C-49.505 20.515 -49.505 20.515 -49 19 C-48.4225 19.639375 -47.845 20.27875 -47.25 20.9375 C-42.51737254 25.27574183 -35.94754953 24.39689413 -29.83203125 24.27734375 C-20.70299386 23.61662851 -12.56090379 19.15477147 -6.5 12.3046875 C-3.61073786 8.46953596 -1.73115031 4.46454555 0 0 Z " fill="#948BB5" transform="translate(61,48)"/>
<path d="M0 0 C0.66 0 1.32 0 2 0 C1.96519531 1.03060547 1.96519531 1.03060547 1.9296875 2.08203125 C1.91164063 2.98308594 1.89359375 3.88414063 1.875 4.8125 C1.84019531 6.15248047 1.84019531 6.15248047 1.8046875 7.51953125 C1.81714173 10.25402714 1.81714173 10.25402714 4 13 C6.29657708 13.4332151 6.29657708 13.4332151 8.875 13.4375 C13.69044556 13.77151935 13.69044556 13.77151935 16.625 15.9375 C18 18 18 18 18 20 C13.66146311 20.62340142 9.48945008 21.1942761 5.125 20.625 C1.57108306 17.90729881 0.23496201 14.22169078 -1 10 C-1.42951796 6.48630447 -1.62100211 3.24200423 0 0 Z " fill="#A5CEDF" transform="translate(12,52)"/>
<path d="M0 0 C0.66 0 1.32 0 2 0 C2 0.66 2 1.32 2 2 C3.65 2 5.3 2 7 2 C4.89220649 6.10465052 3.03974475 7.83920629 -1 10 C-5.09691211 12.59572813 -5.09691211 12.59572813 -8.75 15.75 C-9.1625 16.1625 -9.575 16.575 -10 17 C-10.66 17 -11.32 17 -12 17 C-12.2685261 13.98829554 -12.25089574 12.40779596 -10.64453125 9.796875 C-10.03996094 9.12140625 -9.43539063 8.4459375 -8.8125 7.75 C-8.22082031 7.06421875 -7.62914062 6.3784375 -7.01953125 5.671875 C-4.67504263 3.73098306 -2.98862142 3.35099526 0 3 C0 2.01 0 1.02 0 0 Z " fill="#D3E1FE" transform="translate(28,29)"/>
<path d="M0 0 C1.9609375 0.83984375 1.9609375 0.83984375 4 2 C4.625 4.5625 4.625 4.5625 5 7 C5.66 7.33 6.32 7.66 7 8 C5.13308826 9.01501998 3.25604656 10.01142079 1.375 11 C0.33085937 11.556875 -0.71328125 12.11375 -1.7890625 12.6875 C-5.14146595 14.0578255 -7.41954936 14.2580505 -11 14 C-9.68 13.67 -8.36 13.34 -7 13 C-7.0721875 12.26394531 -7.144375 11.52789062 -7.21875 10.76953125 C-6.94324839 7.28148408 -5.87896624 6.19391086 -3.5 3.6875 C-2.8503125 2.99011719 -2.200625 2.29273438 -1.53125 1.57421875 C-1.0259375 1.05472656 -0.520625 0.53523438 0 0 Z " fill="#481A1C" transform="translate(31,46)"/>
<path d="M0 0 C2.4375 0.375 2.4375 0.375 5 1 C6.4783226 3.95664519 6.06032783 6.74229737 6 10 C1.5916595 10.66540989 -2.54860453 11 -7 11 C-5.22054913 6.95579349 -2.60470327 3.53921513 0 0 Z " fill="#741415" transform="translate(43,31)"/>
<path d="M0 0 C0.66 0.66 1.32 1.32 2 2 C1.57847656 2.53109375 1.15695313 3.0621875 0.72265625 3.609375 C0.17480469 4.31578125 -0.37304688 5.0221875 -0.9375 5.75 C-1.48277344 6.44609375 -2.02804688 7.1421875 -2.58984375 7.859375 C-5.45724259 12.21210233 -5.13510249 16.367936 -5.125 21.5 C-5.12757812 22.8096875 -5.13015625 24.119375 -5.1328125 25.46875 C-5.02924755 28.22235924 -4.83458014 30.40352847 -4 33 C-4.99 33 -5.98 33 -7 33 C-9.51852543 21.7247554 -9.0958743 13.84661465 -3.21875 3.8125 C-2 2 -2 2 0 0 Z " fill="#AEA4C5" transform="translate(16,34)"/>
<path d="M0 0 C0.66 0 1.32 0 2 0 C1.67 1.65 1.34 3.3 1 5 C0.34 5 -0.32 5 -1 5 C-1 5.66 -1 6.32 -1 7 C-1.59167969 7.25394531 -2.18335938 7.50789063 -2.79296875 7.76953125 C-6.30143305 9.2976878 -9.63131886 10.76757058 -12.875 12.8125 C-13.57625 13.204375 -14.2775 13.59625 -15 14 C-15.99 13.67 -16.98 13.34 -18 13 C-8.28571429 5 -8.28571429 5 -5 5 C-4.67 4.01 -4.34 3.02 -4 2 C-2.68 2 -1.36 2 0 2 C0 1.34 0 0.68 0 0 Z " fill="#8DC1D2" transform="translate(53,51)"/>
<path d="M0 0 C2 1 2 1 3 3 C1.35 3.66 -0.3 4.32 -2 5 C-1.67 7.64 -1.34 10.28 -1 13 C-2.32 13 -3.64 13 -5 13 C-6.60355101 9.49223216 -7.22036864 6.85645121 -7 3 C-4.69631264 1.93347808 -2.35981813 0.93578995 0 0 Z " fill="#550A0A" transform="translate(41,40)"/>
<path d="M0 0 C1.11375 0.9590625 1.11375 0.9590625 2.25 1.9375 C7.53735005 5.90301254 13.45681386 5.30714163 19.8828125 5.62109375 C23 6 23 6 25 8 C16.63703566 9.15674647 9.28933598 9.71366154 1.9375 5.0625 C0 3 0 3 0 0 Z " fill="#A5A0C1" transform="translate(11,67)"/>
<path d="M0 0 C0.66 0 1.32 0 2 0 C1.95359375 0.66386719 1.9071875 1.32773437 1.859375 2.01171875 C1.52936689 7.83656255 1.52936689 7.83656255 4.0625 12.9375 C4.701875 13.618125 5.34125 14.29875 6 15 C5.67 15.99 5.34 16.98 5 18 C6.32 18.33 7.64 18.66 9 19 C8.67 19.66 8.34 20.32 8 21 C5.75 20.5625 5.75 20.5625 3 19 C-0.59669862 13.5417513 -1.5632473 8.42101921 -1 2 C-0.67 1.34 -0.34 0.68 0 0 Z " fill="#A7C9D8" transform="translate(12,52)"/>
<path d="M0 0 C4.51815455 0.53154759 7.45285063 2.17840391 11 5 C11.875 7.25 11.875 7.25 12 9 C11.2575 8.484375 10.515 7.96875 9.75 7.4375 C7.19867319 5.70003709 7.19867319 5.70003709 5.0625 6.5625 C3 7 3 7 -0.25 5.0625 C-1.1575 4.381875 -2.065 3.70125 -3 3 C-2.01 2.67 -1.02 2.34 0 2 C0 1.34 0 0.68 0 0 Z " fill="#F5F6FB" transform="translate(49,22)"/>
<path d="M0 0 C0.99 0.33 1.98 0.66 3 1 C3.375 3.25 3.375 3.25 3 6 C-0.1319376 8.57514869 -1.89410579 10 -6 10 C-5.49477778 5.62140745 -2.82172778 3.18348776 0 0 Z " fill="#B8CED7" transform="translate(31,46)"/>
<path d="M0 0 C0.99 0.33 1.98 0.66 3 1 C3 2.65 3 4.3 3 6 C-2.625 9 -2.625 9 -6 9 C-4.47291037 5.56404834 -2.40072955 2.88087546 0 0 Z " fill="#86AFBF" transform="translate(42,33)"/>
<path d="M0 0 C-0.6290625 0.36351563 -1.258125 0.72703125 -1.90625 1.1015625 C-7.55243063 4.41784329 -12.85618513 7.94816818 -18 12 C-16.57646476 8.66863403 -14.8664687 6.72335243 -12.125 4.375 C-11.44695313 3.78460937 -10.76890625 3.19421875 -10.0703125 2.5859375 C-6.48145021 -0.16326645 -4.44504168 -1.58751489 0 0 Z " fill="#9C8FB7" transform="translate(35,23)"/>
<path d="M0 0 C0.33 0 0.66 0 1 0 C1 5.61 1 11.22 1 17 C0.01 16.34 -0.98 15.68 -2 15 C-2.33 15.99 -2.66 16.98 -3 18 C-3.66 18 -4.32 18 -5 18 C-5 16.68 -5 15.36 -5 14 C-4.34 14 -3.68 14 -3 14 C-2.67 12.35 -2.34 10.7 -2 9 C-1.34 9 -0.68 9 0 9 C-0.185625 8.071875 -0.37125 7.14375 -0.5625 6.1875 C-1 3 -1 3 0 0 Z " fill="#A7C7D9" transform="translate(62,33)"/>
<path d="M0 0 C0 3.77995004 -1.07938127 4.68246364 -3.4375 7.5625 C-5.96989607 10.61950238 -5.96989607 10.61950238 -8 14 C-8.66 14 -9.32 14 -10 14 C-9.58181281 9.12114941 -7.55070071 7.22040297 -4 4 C-3.236875 3.236875 -2.47375 2.47375 -1.6875 1.6875 C-1.130625 1.130625 -0.57375 0.57375 0 0 Z " fill="#F9F9FC" transform="translate(22,32)"/>
<path d="M0 0 C0.33 0.99 0.66 1.98 1 3 C1.66 3 2.32 3 3 3 C3 2.34 3 1.68 3 1 C3.99 1.33 4.98 1.66 6 2 C6.6875 4.0625 6.6875 4.0625 7 6 C1.46153846 5.38461538 1.46153846 5.38461538 -0.875 3.4375 C-1.24625 2.963125 -1.6175 2.48875 -2 2 C-1.34 1.34 -0.68 0.68 0 0 Z " fill="#8FC2D2" transform="translate(18,66)"/>
<path d="M0 0 C0.33 0.66 0.66 1.32 1 2 C0.06553465 4.03144641 -0.93224776 6.03533587 -2 8 C-5.3 8 -8.6 8 -12 8 C-12 7.67 -12 7.34 -12 7 C-9.36 6.67 -6.72 6.34 -4 6 C-4 4.68 -4 3.36 -4 2 C-2.68 1.34 -1.36 0.68 0 0 Z " fill="#D2EBF3" transform="translate(28,58)"/>
<path d="M0 0 C0.71484375 1.734375 0.71484375 1.734375 1 4 C-0.43359375 6.140625 -0.43359375 6.140625 -2.4375 8.25 C-3.09621094 8.95640625 -3.75492188 9.6628125 -4.43359375 10.390625 C-4.95050781 10.92171875 -5.46742187 11.4528125 -6 12 C-6.33 11.01 -6.66 10.02 -7 9 C-5.56640625 6.73828125 -5.56640625 6.73828125 -3.5625 4.3125 C-2.90378906 3.50425781 -2.24507812 2.69601563 -1.56640625 1.86328125 C-1.04949219 1.24839844 -0.53257813 0.63351563 0 0 Z " fill="#6FADC1" transform="translate(25,46)"/>
<path d="M0 0 C0.33 1.32 0.66 2.64 1 4 C-5.28571429 9.42857143 -5.28571429 9.42857143 -9 11 C-7.55873214 7.63704165 -5.79407345 5.37072898 -3 3 C-2.01 3 -1.02 3 0 3 C0 2.01 0 1.02 0 0 Z " fill="#BADEE9" transform="translate(51,48)"/>
<path d="M0 0 C0 0.66 0 1.32 0 2 C-1.76913824 2.22226864 -3.54044371 2.42733873 -5.3125 2.625 C-6.29863281 2.74101562 -7.28476562 2.85703125 -8.30078125 2.9765625 C-11 3 -11 3 -14 1 C-12.23103898 0.63659714 -10.45973374 0.28459117 -8.6875 -0.0625 C-7.70136719 -0.25972656 -6.71523438 -0.45695312 -5.69921875 -0.66015625 C-3 -1 -3 -1 0 0 Z " fill="#B3A9C8" transform="translate(46,20)"/>
<path d="M0 0 C2.475 0.495 2.475 0.495 5 1 C5 1.66 5 2.32 5 3 C5.66 3 6.32 3 7 3 C7 3.66 7 4.32 7 5 C5.68 5 4.36 5 3 5 C2.67 6.32 2.34 7.64 2 9 C2 7.02 2 5.04 2 3 C1.34 3 0.68 3 0 3 C0 2.01 0 1.02 0 0 Z " fill="#B1D5E1" transform="translate(54,30)"/>
<path d="M0 0 C0.99 0.33 1.98 0.66 3 1 C2.34 1 1.68 1 1 1 C1.33 1.66 1.66 2.32 2 3 C4.52733235 3.65555119 4.52733235 3.65555119 7 4 C6.67 4.99 6.34 5.98 6 7 C2.12867972 6.42647107 -0.08172796 4.51295648 -3 2 C-2.01 2 -1.02 2 0 2 C0 1.34 0 0.68 0 0 Z " fill="#E5EEFC" transform="translate(49,22)"/>
<path d="M0 0 C0.721875 0.61875 1.44375 1.2375 2.1875 1.875 C4.78381938 3.83666353 6.94671666 4.95316 10 6 C10 6.33 10 6.66 10 7 C3.55192878 6.39169139 3.55192878 6.39169139 1.0625 4.625 C0 3 0 3 0 0 Z " fill="#8D7EAC" transform="translate(11,67)"/>
<path d="M0 0 C0.66 0.33 1.32 0.66 2 1 C1.34 2.98 0.68 4.96 0 7 C-1.65 7 -3.3 7 -5 7 C-3.70700306 4.11562221 -2.34058637 2.12780579 0 0 Z " fill="#2A1012" transform="translate(24,52)"/>
<path d="M0 0 C2 1 2 1 3 3 C1.824375 3.433125 1.824375 3.433125 0.625 3.875 C-2.09671632 4.84912254 -2.09671632 4.84912254 -4 7 C-4.33 5.35 -4.66 3.7 -5 2 C-2.625 0.9375 -2.625 0.9375 0 0 Z " fill="#56191B" transform="translate(41,40)"/>
<path d="M0 0 C0.66 0.33 1.32 0.66 2 1 C2.99 1.33 3.98 1.66 5 2 C4.67 2.99 4.34 3.98 4 5 C3.34 5 2.68 5 2 5 C1.67 5.99 1.34 6.98 1 8 C-0.42944945 5.64561267 -1.08661261 4.51967567 -0.625 1.75 C-0.41875 1.1725 -0.2125 0.595 0 0 Z " fill="#EDF2FC" transform="translate(50,32)"/>
<path d="M0 0 C0.33 0.66 0.66 1.32 1 2 C3.52733235 2.65555119 3.52733235 2.65555119 6 3 C3.44931155 5.35448165 2.28982642 5.98327924 -1.25 6.1875 C-2.1575 6.125625 -3.065 6.06375 -4 6 C-2.68 5.67 -1.36 5.34 0 5 C0 3.35 0 1.7 0 0 Z " fill="#573537" transform="translate(24,54)"/>
<path d="M0 0 C0.66 0 1.32 0 2 0 C1.88637738 1.4800841 1.75877092 2.95910074 1.625 4.4375 C1.52058594 5.67306641 1.52058594 5.67306641 1.4140625 6.93359375 C1.27742187 7.61550781 1.14078125 8.29742187 1 9 C0.01 9.495 0.01 9.495 -1 10 C-1.125 2.25 -1.125 2.25 0 0 Z " fill="#B0D6E2" transform="translate(12,52)"/>
<path d="M0 0 C0 0.66 0 1.32 0 2 C0.99 1.67 1.98 1.34 3 1 C2.34 2.32 1.68 3.64 1 5 C-0.65 4.67 -2.3 4.34 -4 4 C-4.33 3.01 -4.66 2.02 -5 1 C-2 0 -2 0 0 0 Z " fill="#A7CFE0" transform="translate(34,64)"/>
<path d="M0 0 C0.66 0 1.32 0 2 0 C1.67 1.65 1.34 3.3 1 5 C-0.32 5.33 -1.64 5.66 -3 6 C-1.125 1.125 -1.125 1.125 0 0 Z " fill="#E9EAEC" transform="translate(42,33)"/>
<path d="M0 0 C0.66 0 1.32 0 2 0 C0.44499019 3.81684226 -2.03595495 6.19195732 -5 9 C-3.7580393 5.56072421 -2.44259716 2.74792181 0 0 Z " fill="#F1F7FC" transform="translate(34,32)"/>
</svg>
