<?xml version="1.0" encoding="UTF-8"?>
<svg version="1.1" xmlns="http://www.w3.org/2000/svg" width="75" height="100">
<path d="M0 0 C4.10046748 4.5081163 4.94695509 9.7834072 4.75 15.65625 C3.08857032 26.94143272 -2.7842819 36.97136055 -11.62890625 44.0859375 C-20.47496953 50.09650641 -29.94282427 52.71102849 -40.5390625 50.78125 C-45.55550261 49.42860276 -48.549967 47.30931167 -51.26953125 42.81640625 C-52.85719158 39.005132 -53.16388577 35.71934092 -53.1015625 31.65625 C-53.09181396 30.94774902 -53.08206543 30.23924805 -53.07202148 29.50927734 C-52.69679178 18.41010996 -47.47103535 12.00695821 -39.6640625 4.46875 C-28.65126066 -4.77209583 -12.56667841 -10.54374969 0 0 Z " fill="#F6F8FB" transform="translate(60.6640625,24.53125)"/>
<path d="M0 0 C4.10046748 4.5081163 4.94695509 9.7834072 4.75 15.65625 C3.08857032 26.94143272 -2.7842819 36.97136055 -11.62890625 44.0859375 C-20.47496953 50.09650641 -29.94282427 52.71102849 -40.5390625 50.78125 C-45.55550261 49.42860276 -48.549967 47.30931167 -51.26953125 42.81640625 C-52.85719158 39.005132 -53.16388577 35.71934092 -53.1015625 31.65625 C-53.09181396 30.94774902 -53.08206543 30.23924805 -53.07202148 29.50927734 C-52.69679178 18.41010996 -47.47103535 12.00695821 -39.6640625 4.46875 C-28.65126066 -4.77209583 -12.56667841 -10.54374969 0 0 Z M-42.6640625 9.46875 C-48.77222128 16.82434965 -50.84581005 21.84240514 -50.9765625 31.34375 C-51.00556641 32.03855469 -51.03457031 32.73335937 -51.06445312 33.44921875 C-51.12807355 38.64651787 -49.89160353 41.45677878 -46.6640625 45.46875 C-42.60422611 49.52858639 -36.98383122 48.77750659 -31.51708984 48.78344727 C-20.71133043 48.56326721 -12.52451164 43.5385009 -5.1328125 35.8828125 C-1.14014862 30.89198265 0.89528635 24.63361433 2.3359375 18.46875 C1.8409375 17.47875 1.8409375 17.47875 1.3359375 16.46875 C-0.22656059 17.78076173 -0.22656059 17.78076173 -1.6640625 19.46875 C-1.6640625 20.45875 -1.6640625 21.44875 -1.6640625 22.46875 C-2.3240625 22.46875 -2.9840625 22.46875 -3.6640625 22.46875 C-3.6640625 24.11875 -3.6640625 25.76875 -3.6640625 27.46875 C-4.3240625 27.46875 -4.9840625 27.46875 -5.6640625 27.46875 C-6.1590625 28.95375 -6.1590625 28.95375 -6.6640625 30.46875 C-9.71783271 32.37735638 -12.83054983 34.03543381 -16.0234375 35.6953125 C-16.81234375 36.11554687 -17.60125 36.53578125 -18.4140625 36.96875 C-19.15140625 37.3503125 -19.88875 37.731875 -20.6484375 38.125 C-22.90526544 39.62955196 -24.16390274 41.22800504 -25.6640625 43.46875 C-28.1015625 43.09375 -28.1015625 43.09375 -30.6640625 42.46875 C-30.9940625 41.80875 -31.3240625 41.14875 -31.6640625 40.46875 C-29.1890625 39.97375 -29.1890625 39.97375 -26.6640625 39.46875 C-26.6640625 40.12875 -26.6640625 40.78875 -26.6640625 41.46875 C-26.0040625 41.46875 -25.3440625 41.46875 -24.6640625 41.46875 C-24.3340625 40.47875 -24.0040625 39.48875 -23.6640625 38.46875 C-23.0040625 37.80875 -22.3440625 37.14875 -21.6640625 36.46875 C-23.3140625 36.13875 -24.9640625 35.80875 -26.6640625 35.46875 C-26.9940625 30.84875 -27.3240625 26.22875 -27.6640625 21.46875 C-32.35248048 23.81295899 -33.88233744 26.26323222 -36.78515625 30.47265625 C-39.02891385 32.85635715 -40.46024197 33.15551197 -43.6640625 33.46875 C-42.26565358 29.36920384 -40.33193388 26.57528123 -37.5390625 23.28125 C-33.77684239 18.79808916 -30.10438812 14.26178491 -26.48828125 9.66015625 C-24.64332011 7.44383249 -22.81792222 5.38858874 -20.6640625 3.46875 C-17.9140625 3.21875 -17.9140625 3.21875 -15.6640625 3.46875 C-14.08151053 7.79439205 -13.21261598 11.897471 -12.6640625 16.46875 C-13.29054687 16.60152344 -13.91703125 16.73429687 -14.5625 16.87109375 C-15.37976562 17.04769531 -16.19703125 17.22429688 -17.0390625 17.40625 C-17.85117187 17.58027344 -18.66328125 17.75429688 -19.5 17.93359375 C-21.6935255 18.39205693 -21.6935255 18.39205693 -23.6640625 19.46875 C-23.52296264 21.57323938 -23.37602075 23.6773377 -23.2265625 25.78125 C-23.14535156 26.95300781 -23.06414063 28.12476563 -22.98046875 29.33203125 C-22.7773254 32.49465958 -22.7773254 32.49465958 -21.6640625 35.46875 C-14.33645066 32.6978348 -14.33645066 32.6978348 -8.6640625 27.46875 C-8.32957991 24.300918 -8.32957991 24.300918 -8.6640625 21.46875 C-7.6740625 21.13875 -6.6840625 20.80875 -5.6640625 20.46875 C-4.14246236 16.8649602 -3.6640625 14.41654314 -3.6640625 10.46875 C-1.6840625 11.45875 0.2959375 12.44875 2.3359375 13.46875 C1.95473982 7.84608421 1.60033086 4.50263561 -2.6640625 0.46875 C-16.97922185 -8.02573392 -31.96876933 -1.03325474 -42.6640625 9.46875 Z " fill="#9F93BA" transform="translate(60.6640625,24.53125)"/>
<path d="M0 0 C0.721875 0.103125 1.44375 0.20625 2.1875 0.3125 C4.62175238 5.28243194 5.53365998 8.65855369 5.1875 14.3125 C1.5575 15.3025 -2.0725 16.2925 -5.8125 17.3125 C-5.1525 22.2625 -4.4925 27.2125 -3.8125 32.3125 C-6.2875 32.8075 -6.2875 32.8075 -8.8125 33.3125 C-9.1425 28.6925 -9.4725 24.0725 -9.8125 19.3125 C-14.18159495 22.80777596 -16.29581375 25.20129527 -19.1875 29.703125 C-20.8125 31.3125 -20.8125 31.3125 -23.5 31.546875 C-24.6446875 31.43085937 -24.6446875 31.43085937 -25.8125 31.3125 C-25.30285282 26.80657175 -23.68091543 24.52848156 -20.75 21.125 C-19.53376953 19.69220703 -19.53376953 19.69220703 -18.29296875 18.23046875 C-17.47441406 17.26753906 -16.65585937 16.30460937 -15.8125 15.3125 C-14.38965779 13.52573367 -12.97258501 11.73435118 -11.5625 9.9375 C-3.92176268 0.43575141 -3.92176268 0.43575141 0 0 Z " fill="#4F1D1F" transform="translate(42.8125,26.6875)"/>
<path d="M0 0 C1.45325542 2.90651084 0.51531192 4.43202469 -0.4375 7.5 C-3.87594376 17.28724264 -9.50964994 23.76937636 -18.5078125 28.84375 C-23.99301611 31.38860935 -28.49673146 32.27448343 -34.5625 32.25 C-35.84253906 32.25515625 -37.12257813 32.2603125 -38.44140625 32.265625 C-41.85625797 32.01072937 -44.05677239 31.72479468 -47 30 C-50.31926096 24.79760531 -51.63401848 19.08657738 -51 13 C-50.67 12.34 -50.34 11.68 -50 11 C-49.34 11 -48.68 11 -48 11 C-48.03480469 12.03060547 -48.03480469 12.03060547 -48.0703125 13.08203125 C-48.08835937 13.98308594 -48.10640625 14.88414063 -48.125 15.8125 C-48.15980469 17.15248047 -48.15980469 17.15248047 -48.1953125 18.51953125 C-48.18285827 21.25402714 -48.18285827 21.25402714 -46 24 C-43.8716709 24.54370178 -43.8716709 24.54370178 -41.5 24.625 C-37.15789474 24.92105263 -37.15789474 24.92105263 -35 26 C-34.34 25.34 -33.68 24.68 -33 24 C-32.67 24.66 -32.34 25.32 -32 26 C-29.47266765 26.65555119 -29.47266765 26.65555119 -27 27 C-26.505 26.2575 -26.01 25.515 -25.5 24.75 C-22.36851746 21.3053692 -19.16585794 19.92032113 -15 18 C-9.83286339 15.64542113 -9.83286339 15.64542113 -7 11 C-6.34 11 -5.68 11 -5 11 C-5 9.35 -5 7.7 -5 6 C-4.34 6 -3.68 6 -3 6 C-2.814375 4.7934375 -2.814375 4.7934375 -2.625 3.5625 C-2.41875 2.716875 -2.2125 1.87125 -2 1 C-1.34 0.67 -0.68 0.34 0 0 Z " fill="#BDD8ED" transform="translate(62,41)"/>
<path d="M0 0 C2.64 0 5.28 0 8 0 C8.33 2.64 8.66 5.28 9 8 C7.02 7.01 5.04 6.02 3 5 C2.855625 6.093125 2.71125 7.18625 2.5625 8.3125 C2 12 2 12 1 15 C0.01 15.33 -0.98 15.66 -2 16 C-1.87625 16.886875 -1.7525 17.77375 -1.625 18.6875 C-2 22 -2 22 -4.6875 24.6875 C-11.93649194 30 -11.93649194 30 -15 30 C-16.19088986 24.61972975 -17.2919519 19.54708616 -17 14 C-15.73160474 13.49384702 -14.46016898 12.99530901 -13.1875 12.5 C-12.47980469 12.2215625 -11.77210937 11.943125 -11.04296875 11.65625 C-9 11 -9 11 -6 11 C-5.67 9.68 -5.34 8.36 -5 7 C-0.25 6 -0.25 6 2 6 C2 5.01 2 4.02 2 3 C1.34 3 0.68 3 0 3 C0 2.01 0 1.02 0 0 Z " fill="#CEE1F5" transform="translate(54,30)"/>
<path d="M0 0 C0.66 0 1.32 0 2 0 C2.495 6.93 2.495 6.93 3 14 C5.475 14.495 5.475 14.495 8 15 C7.505 15.45375 7.01 15.9075 6.5 16.375 C4.77390663 17.87635519 4.77390663 17.87635519 5 20 C4.34 20 3.68 20 3 20 C3 19.34 3 18.68 3 18 C1.02 18.33 -0.96 18.66 -3 19 C-3.33 19.99 -3.66 20.98 -4 22 C-4.66 21.67 -5.32 21.34 -6 21 C-7.47745349 20.87384173 -8.95711283 20.77257972 -10.4375 20.6875 C-14.70273291 20.22732189 -14.70273291 20.22732189 -17.125 18.375 C-18.36221275 15.01685111 -17.72888416 12.44563423 -17 9 C-16.01 9.33 -15.02 9.66 -14 10 C-14 10.66 -14 11.32 -14 12 C-10.56344623 11.71161787 -9.25033923 11.2556656 -6.796875 8.75 C-6.12140625 7.8425 -5.4459375 6.935 -4.75 6 C-3.72132812 4.63875 -3.72132812 4.63875 -2.671875 3.25 C-2.12015625 2.5075 -1.5684375 1.765 -1 1 C-0.67 0.67 -0.34 0.34 0 0 Z " fill="#D7F1F9" transform="translate(31,46)"/>
<path d="M0 0 C2.97 0.495 2.97 0.495 6 1 C5.54625 1.721875 5.0925 2.44375 4.625 3.1875 C2.97508488 5.84296066 2.97508488 5.84296066 2.1875 8.3125 C0.41021094 12.33478576 -2.30928937 15.54502649 -5 19 C-6.12785587 20.49785384 -7.25298009 21.99776955 -8.375 23.5 C-9.25 24.66666667 -10.125 25.83333333 -11 27 C-12.32 26.34 -13.64 25.68 -15 25 C-14.67 24.34 -14.34 23.68 -14 23 C-14.66 23 -15.32 23 -16 23 C-16.40368295 29.45892714 -15.5915262 34.06108578 -13 40 C-16 39 -16 39 -17.171875 37.4375 C-18.34813799 33.97529196 -18.28926332 30.61222588 -18.25 27 C-18.25773437 26.2884375 -18.26546875 25.576875 -18.2734375 24.84375 C-18.25937762 21.07570168 -18.09678961 18.19510797 -16 15 C-15.34 16.32 -14.68 17.64 -14 19 C-13.814375 18.01 -13.62875 17.02 -13.4375 16 C-12.0376194 11.10041789 -8.90793928 7.21093207 -5 4 C-2.26953125 3.2734375 -2.26953125 3.2734375 0 3 C0 2.01 0 1.02 0 0 Z " fill="#E1F6FD" transform="translate(28,29)"/>
<path d="M0 0 C1.65 0.66 3.3 1.32 5 2 C5 3.65 5 5.3 5 7 C4.34 7 3.68 7 3 7 C2.67 8.65 2.34 10.3 2 12 C1.34 12 0.68 12 0 12 C0 13.65 0 15.3 0 17 C-0.66 17 -1.32 17 -2 17 C-2.020625 17.5775 -2.04125 18.155 -2.0625 18.75 C-3.53934406 22.29442574 -6.72643095 23.34502898 -10 25 C-11.58860717 25.82323517 -13.17189945 26.65679922 -14.75 27.5 C-15.48734375 27.8815625 -16.2246875 28.263125 -16.984375 28.65625 C-19.24120294 30.16080196 -20.49984024 31.75925504 -22 34 C-23.65 33.67 -25.3 33.34 -27 33 C-27.33 32.01 -27.66 31.02 -28 30 C-26.35 29.67 -24.7 29.34 -23 29 C-23 29.66 -23 30.32 -23 31 C-22.34 31 -21.68 31 -21 31 C-21.33 30.01 -21.66 29.02 -22 28 C-21.01 27.34 -20.02 26.68 -19 26 C-18.67 25.34 -18.34 24.68 -18 24 C-15.59040641 22.89288943 -13.3550832 22.06904395 -10.75 21.5625 C-10.1725 21.376875 -9.595 21.19125 -9 21 C-8.67 20.01 -8.34 19.02 -8 18 C-7.34 17.67 -6.68 17.34 -6 17 C-6 14.69 -6 12.38 -6 10 C-4.68 10 -3.36 10 -2 10 C-1.34 6.7 -0.68 3.4 0 0 Z " fill="#89BFD0" transform="translate(57,35)"/>
<path d="M0 0 C0.66 0.33 1.32 0.66 2 1 C0.73046875 2.46484375 -0.5390625 3.9296875 -1.80859375 5.39453125 C-3.20871231 7.10712971 -3.20871231 7.10712971 -4 10 C-3.01 10.33 -2.02 10.66 -1 11 C-0.505 18.92 -0.505 18.92 0 27 C-1.65 27.33 -3.3 27.66 -5 28 C-5.33 23.38 -5.66 18.76 -6 14 C-10.34831775 17.4786542 -12.53620899 19.93308178 -15.47265625 24.390625 C-15.97667969 24.92171875 -16.48070312 25.4528125 -17 26 C-18.32 26 -19.64 26 -21 26 C-19.27176636 21.76844611 -16.28621996 18.64425519 -13.3125 15.25 C-12.77592773 14.63108887 -12.23935547 14.01217773 -11.68652344 13.37451172 C-10.12849142 11.57934704 -8.56503732 9.78905753 -7 8 C-6.22527344 7.11054687 -5.45054688 6.22109375 -4.65234375 5.3046875 C-3.10579259 3.53266379 -1.55576588 1.76393173 0 0 Z " fill="#291012" transform="translate(39,32)"/>
<path d="M0 0 C1.11148969 2.77210821 1.03501738 3.89988984 0.03125 6.76953125 C-6.1146847 18.98300862 -13.3356928 25.07576226 -26 30 C-32.71183085 31.61533123 -39.50792224 31.48494359 -46 29 C-49.0625 26.875 -49.0625 26.875 -51 25 C-50.505 23.515 -50.505 23.515 -50 22 C-49.4225 22.639375 -48.845 23.27875 -48.25 23.9375 C-43.51737254 28.27574183 -36.94754953 27.39689413 -30.83203125 27.27734375 C-21.66471527 26.61385809 -13.73525205 22.13932689 -7.53515625 15.41015625 C-3.94594108 10.77363209 -1.97301419 5.47814554 0 0 Z " fill="#958BB5" transform="translate(62,45)"/>
<path d="M0 0 C2.97 0.495 2.97 0.495 6 1 C5.54625 1.721875 5.0925 2.44375 4.625 3.1875 C2.95807877 5.91359571 2.95807877 5.91359571 1.9375 8.6875 C1 11 1 11 -1 13 C-1.99 13.33 -2.98 13.66 -4 14 C-4 13.01 -4 12.02 -4 11 C-5.1446875 12.2065625 -5.1446875 12.2065625 -6.3125 13.4375 C-9 16 -9 16 -12 17 C-12.2685261 13.98829554 -12.25089574 12.40779596 -10.64453125 9.796875 C-10.03996094 9.12140625 -9.43539063 8.4459375 -8.8125 7.75 C-8.22082031 7.06421875 -7.62914062 6.3784375 -7.01953125 5.671875 C-4.67504263 3.73098306 -2.98862142 3.35099526 0 3 C0 2.01 0 1.02 0 0 Z " fill="#D5E3FD" transform="translate(28,29)"/>
<path d="M0 0 C-2.31 1.32 -4.62 2.64 -7 4 C-6.67 4.99 -6.34 5.98 -6 7 C-4.02 7 -2.04 7 0 7 C-1.35236577 9.93879484 -2.89942659 12.29232911 -5 14.75 C-5.515625 15.36359375 -6.03125 15.9771875 -6.5625 16.609375 C-8 18 -8 18 -10 18 C-11.19088986 12.61972975 -12.2919519 7.54708616 -12 2 C-10.75579353 1.4654744 -9.50429064 0.94791389 -8.25 0.4375 C-7.55390625 0.14746094 -6.8578125 -0.14257812 -6.140625 -0.44140625 C-3.69987216 -1.07831803 -2.3596345 -0.80248831 0 0 Z " fill="#E0F3FA" transform="translate(49,42)"/>
<path d="M0 0 C0.721875 0.103125 1.44375 0.20625 2.1875 0.3125 C2.1875 1.3025 2.1875 2.2925 2.1875 3.3125 C1.07568359 3.41498047 1.07568359 3.41498047 -0.05859375 3.51953125 C-3.65248815 4.55436893 -4.63013666 6.03712643 -6.875 9 C-7.64070313 9.98226562 -8.40640625 10.96453125 -9.1953125 11.9765625 C-9.60942383 12.51055664 -10.02353516 13.04455078 -10.45019531 13.59472656 C-12.96222231 16.76222154 -15.6114215 19.81288218 -18.25 22.875 C-18.77021729 23.48239014 -19.29043457 24.08978027 -19.82641602 24.71557617 C-21.76863818 26.9770765 -23.70377375 29.20377375 -25.8125 31.3125 C-25.30285282 26.80657175 -23.68091543 24.52848156 -20.75 21.125 C-19.53376953 19.69220703 -19.53376953 19.69220703 -18.29296875 18.23046875 C-17.47441406 17.26753906 -16.65585937 16.30460937 -15.8125 15.3125 C-14.38965779 13.52573367 -12.97258501 11.73435118 -11.5625 9.9375 C-3.92176268 0.43575141 -3.92176268 0.43575141 0 0 Z " fill="#66A4B9" transform="translate(42.8125,26.6875)"/>
<path d="M0 0 C0.66 0 1.32 0 2 0 C1.96519531 1.03060547 1.96519531 1.03060547 1.9296875 2.08203125 C1.91164063 2.98308594 1.89359375 3.88414063 1.875 4.8125 C1.84019531 6.15248047 1.84019531 6.15248047 1.8046875 7.51953125 C1.81714173 10.25402714 1.81714173 10.25402714 4 13 C6.19454681 13.57993699 6.19454681 13.57993699 8.625 13.6875 C9.44226562 13.75324219 10.25953125 13.81898437 11.1015625 13.88671875 C11.72804688 13.92410156 12.35453125 13.96148437 13 14 C14.125 17.75 14.125 17.75 13 20 C10.12433539 20.95855487 8.41057267 21.1123205 5.47265625 20.30859375 C1.65062653 18.2858766 1.12489594 15.53121207 -0.28125 11.61328125 C-1.38906467 7.58541162 -1.93128635 3.86257271 0 0 Z " fill="#AACDDC" transform="translate(12,52)"/>
<path d="M0 0 C4.48861684 0.2493676 7.53686377 2.24523254 11 5 C11.875 7.25 11.875 7.25 12 9 C9.69 8.67 7.38 8.34 5 8 C5 8.99 5 9.98 5 11 C5.66 11 6.32 11 7 11 C7 11.99 7 12.98 7 14 C5.34385343 14.38218767 3.67542976 14.71395102 2 15 C1 14 1 14 0.9375 11.4375 C0.958125 10.633125 0.97875 9.82875 1 9 C1.66 9 2.32 9 3 9 C1.70700306 6.11562221 0.34058637 4.12780579 -2 2 C-1.34 1.34 -0.68 0.68 0 0 Z " fill="#EEF2FB" transform="translate(49,22)"/>
<path d="M0 0 C2.475 0.99 2.475 0.99 5 2 C5 3.65 5 5.3 5 7 C4.34 7 3.68 7 3 7 C2.67 8.65 2.34 10.3 2 12 C1.34 12 0.68 12 0 12 C0 13.65 0 15.3 0 17 C-1.32 16.67 -2.64 16.34 -4 16 C-4 16.66 -4 17.32 -4 18 C-4.66 17.67 -5.32 17.34 -6 17 C-6 14.69 -6 12.38 -6 10 C-4.68 10 -3.36 10 -2 10 C-1.34 6.7 -0.68 3.4 0 0 Z " fill="#5AAEC8" transform="translate(57,35)"/>
<path d="M0 0 C1.65 0 3.3 0 5 0 C6.52106634 3.04213267 6.37429338 6.28047572 6.5625 9.625 C6.60568359 10.33140625 6.64886719 11.0378125 6.69335938 11.765625 C6.79944751 13.51018537 6.90022889 15.25506697 7 17 C5.35 17.33 3.7 17.66 2 18 C1.95101562 17.00097656 1.90203125 16.00195312 1.8515625 14.97265625 C1.77679688 13.68230469 1.70203125 12.39195313 1.625 11.0625 C1.55539063 9.77472656 1.48578125 8.48695312 1.4140625 7.16015625 C1.27742188 6.11730469 1.14078125 5.07445312 1 4 C0.34 3.67 -0.32 3.34 -1 3 C-0.67 2.01 -0.34 1.02 0 0 Z " fill="#5C0E10" transform="translate(32,42)"/>
<path d="M0 0 C0.66 0.66 1.32 1.32 2 2 C1.57847656 2.53109375 1.15695313 3.0621875 0.72265625 3.609375 C0.17480469 4.31578125 -0.37304688 5.0221875 -0.9375 5.75 C-1.48277344 6.44609375 -2.02804688 7.1421875 -2.58984375 7.859375 C-5.52063388 12.30833065 -5.15300717 16.87650491 -5.125 22.0625 C-5.12886719 22.78244141 -5.13273438 23.50238281 -5.13671875 24.24414062 C-5.13080799 27.42708639 -5.01350713 29.95947862 -4 33 C-4.99 33 -5.98 33 -7 33 C-9.37363247 25.87910258 -9.24372666 15.75090179 -6.25 8.8125 C-4.51850287 5.58449463 -2.45983622 2.72339011 0 0 Z " fill="#A99FC1" transform="translate(16,34)"/>
<path d="M0 0 C0.66 0.33 1.32 0.66 2 1 C2.99 1 3.98 1 5 1 C5.99 1.33 6.98 1.66 8 2 C7.46823005 6.13813705 5.22067834 8.27082318 2.4375 11.25 C1.61121094 12.14203125 0.78492188 13.0340625 -0.06640625 13.953125 C-0.70449219 14.62859375 -1.34257812 15.3040625 -2 16 C-2.33 15.34 -2.66 14.68 -3 14 C-1.35 11.69 0.3 9.38 2 7 C0.68 6.34 -0.64 5.68 -2 5 C-2 3.68 -2 2.36 -2 1 C-1.34 0.67 -0.68 0.34 0 0 Z " fill="#E4EBFB" transform="translate(31,24)"/>
<path d="M0 0 C1.11375 0.9590625 1.11375 0.9590625 2.25 1.9375 C7.53735005 5.90301254 13.45681386 5.30714163 19.8828125 5.62109375 C23 6 23 6 25 8 C16.63703566 9.15674647 9.28933598 9.71366154 1.9375 5.0625 C0 3 0 3 0 0 Z " fill="#A4A0C1" transform="translate(11,67)"/>
<path d="M0 0 C-2.31 1.32 -4.62 2.64 -7 4 C-7 5.32 -7 6.64 -7 8 C-7.66 8 -8.32 8 -9 8 C-9.33 8.99 -9.66 9.98 -10 11 C-12.29013653 7.5647952 -12.17842973 6.014669 -12 2 C-10.75579353 1.4654744 -9.50429064 0.94791389 -8.25 0.4375 C-7.55390625 0.14746094 -6.8578125 -0.14257812 -6.140625 -0.44140625 C-3.69987216 -1.07831803 -2.3596345 -0.80248831 0 0 Z " fill="#F1F3F6" transform="translate(49,42)"/>
<path d="M0 0 C2.64 0 5.28 0 8 0 C8.33 2.64 8.66 5.28 9 8 C7.02 7.01 5.04 6.02 3 5 C2.67 6.32 2.34 7.64 2 9 C2 7.02 2 5.04 2 3 C1.34 3 0.68 3 0 3 C0 2.01 0 1.02 0 0 Z " fill="#B1D5E1" transform="translate(54,30)"/>
<path d="M0 0 C1.125 3.75 1.125 3.75 0 6 C-3.73487777 5.5020163 -5.81237635 5.12508244 -9 3 C-9 2.34 -9 1.68 -9 1 C-6.04335481 -0.4783226 -3.25770263 -0.06032783 0 0 Z " fill="#94C5D4" transform="translate(25,66)"/>
<path d="M0 0 C0.99 0.33 1.98 0.66 3 1 C3 2.65 3 4.3 3 6 C-2.625 9 -2.625 9 -6 9 C-4.47291037 5.56404834 -2.40072955 2.88087546 0 0 Z " fill="#B1CAD4" transform="translate(41,32)"/>
<path d="M0 0 C1.65 0 3.3 0 5 0 C5 0.99 5 1.98 5 3 C3.34928604 4.02611949 1.68029994 5.02308143 0 6 C-1.78344178 8.06954847 -1.78344178 8.06954847 -3 10 C-4.65 9.67 -6.3 9.34 -8 9 C-8.33 8.01 -8.66 7.02 -9 6 C-7.35 5.67 -5.7 5.34 -4 5 C-4 5.66 -4 6.32 -4 7 C-3.34 7 -2.68 7 -2 7 C-2.33 6.01 -2.66 5.02 -3 4 C-2.01 3.34 -1.02 2.68 0 2 C0 1.34 0 0.68 0 0 Z " fill="#9BC6D6" transform="translate(38,59)"/>
<path d="M0 0 C0.66 0.66 1.32 1.32 2 2 C1.90396703 4.38045351 1.69878239 6.75698126 1.4375 9.125 C0.86127164 15.22748412 1.19504555 19.50228927 4 25 C1 24 1 24 -0.17578125 22.4375 C-1.34716398 18.97331599 -1.24964819 15.611137 -1.1875 12 C-1.18685547 11.2884375 -1.18621094 10.576875 -1.18554688 9.84375 C-1.1568988 6.43144624 -1.06157986 3.26117332 0 0 Z " fill="#E9EEF4" transform="translate(11,44)"/>
<path d="M0 0 C1.32 0.66 2.64 1.32 4 2 C3.01 2.66 2.02 3.32 1 4 C0.34 3.67 -0.32 3.34 -1 3 C-1 3.99 -1 4.98 -1 6 C-0.34 6 0.32 6 1 6 C1 6.99 1 7.98 1 9 C-0.65614657 9.38218767 -2.32457024 9.71395102 -4 10 C-5 9 -5 9 -5.0625 6.4375 C-5.041875 5.633125 -5.02125 4.82875 -5 4 C-4.34 4 -3.68 4 -3 4 C-3 3.34 -3 2.68 -3 2 C-2.01 2 -1.02 2 0 2 C0 1.34 0 0.68 0 0 Z " fill="#DDE9FE" transform="translate(55,27)"/>
<path d="M0 0 C0.66 0 1.32 0 2 0 C2.3125 2.1875 2.3125 2.1875 2 5 C-0.3125 7.8125 -0.3125 7.8125 -3 10 C-3.99 10 -4.98 10 -6 10 C-5.49259538 5.60249328 -2.91706686 3.13051078 0 0 Z " fill="#E8F9FE" transform="translate(29,48)"/>
<path d="M0 0 C-0.6290625 0.36351563 -1.258125 0.72703125 -1.90625 1.1015625 C-7.55243063 4.41784329 -12.85618513 7.94816818 -18 12 C-16.57646476 8.66863403 -14.8664687 6.72335243 -12.125 4.375 C-11.44695313 3.78460937 -10.76890625 3.19421875 -10.0703125 2.5859375 C-6.48145021 -0.16326645 -4.44504168 -1.58751489 0 0 Z " fill="#9C8FB7" transform="translate(35,23)"/>
<path d="M0 0 C1 2 1 2 0.22265625 4.8203125 C-0.16019531 5.91085938 -0.54304688 7.00140625 -0.9375 8.125 C-1.31777344 9.22070312 -1.69804688 10.31640625 -2.08984375 11.4453125 C-2.39019531 12.28835937 -2.69054688 13.13140625 -3 14 C-5 12 -5 12 -5.125 8.875 C-5.08375 7.92625 -5.0425 6.9775 -5 6 C-4.34 6 -3.68 6 -3 6 C-2.87625 5.195625 -2.7525 4.39125 -2.625 3.5625 C-2.41875 2.716875 -2.2125 1.87125 -2 1 C-1.34 0.67 -0.68 0.34 0 0 Z " fill="#AACCDC" transform="translate(62,41)"/>
<path d="M0 0 C0.66 0 1.32 0 2 0 C2.04898438 0.99902344 2.09796875 1.99804688 2.1484375 3.02734375 C2.22320312 4.31769531 2.29796875 5.60804687 2.375 6.9375 C2.44460937 8.22527344 2.51421875 9.51304688 2.5859375 10.83984375 C2.72257812 11.88269531 2.85921875 12.92554688 3 14 C3.66 14.33 4.32 14.66 5 15 C3.68 15 2.36 15 1 15 C0.63911385 12.68853911 0.28645809 10.37579171 -0.0625 8.0625 C-0.25972656 6.77472656 -0.45695312 5.48695312 -0.66015625 4.16015625 C-0.82837891 2.59587891 -0.82837891 2.59587891 -1 1 C-0.67 0.67 -0.34 0.34 0 0 Z " fill="#75AFC1" transform="translate(31,46)"/>
<path d="M0 0 C1.32 0 2.64 0 4 0 C2.62901008 2.95290136 1.22467373 5.60419752 -1 8 C-2.32 8 -3.64 8 -5 8 C-3.62901008 5.04709864 -2.22467373 2.39580248 0 0 Z " fill="#301C1E" transform="translate(23,50)"/>
<path d="M0 0 C0.33 0 0.66 0 1 0 C1.33 2.97 1.66 5.94 2 9 C0.35 9.33 -1.3 9.66 -3 10 C-2.67 8.02 -2.34 6.04 -2 4 C-1.34 4 -0.68 4 0 4 C0 2.68 0 1.36 0 0 Z " fill="#4F1E20" transform="translate(37,50)"/>
<path d="M0 0 C0.33 1.32 0.66 2.64 1 4 C-5.28571429 9.42857143 -5.28571429 9.42857143 -9 11 C-7.55873214 7.63704165 -5.79407345 5.37072898 -3 3 C-2.01 3 -1.02 3 0 3 C0 2.01 0 1.02 0 0 Z " fill="#BADEE9" transform="translate(51,48)"/>
<path d="M0 0 C2 2 2 2 2 6 C-3.625 9 -3.625 9 -7 9 C-7 8.34 -7 7.68 -7 7 C-4.35261084 5.5393715 -3.10551666 5 0 5 C0 3.35 0 1.7 0 0 Z " fill="#83090B" transform="translate(45,33)"/>
<path d="M0 0 C0 0.66 0 1.32 0 2 C-1.76913824 2.22226864 -3.54044371 2.42733873 -5.3125 2.625 C-6.29863281 2.74101562 -7.28476562 2.85703125 -8.30078125 2.9765625 C-11 3 -11 3 -14 1 C-12.23103898 0.63659714 -10.45973374 0.28459117 -8.6875 -0.0625 C-7.70136719 -0.25972656 -6.71523438 -0.45695312 -5.69921875 -0.66015625 C-3 -1 -3 -1 0 0 Z " fill="#B3A9C8" transform="translate(46,20)"/>
<path d="M0 0 C0.33 0 0.66 0 1 0 C1.06058594 0.83144531 1.12117187 1.66289063 1.18359375 2.51953125 C1.26738281 3.60621094 1.35117188 4.69289063 1.4375 5.8125 C1.55931641 7.43091797 1.55931641 7.43091797 1.68359375 9.08203125 C1.90212461 12.05989905 1.90212461 12.05989905 3 15 C2.01 15 1.02 15 0 15 C-1.0024305 9.65370398 -0.84888195 5.37625234 0 0 Z " fill="#B1A8C7" transform="translate(9,52)"/>
<path d="M0 0 C0.721875 0.61875 1.44375 1.2375 2.1875 1.875 C4.78381938 3.83666353 6.94671666 4.95316 10 6 C10 6.33 10 6.66 10 7 C3.55192878 6.39169139 3.55192878 6.39169139 1.0625 4.625 C0 3 0 3 0 0 Z " fill="#8D7FAC" transform="translate(11,67)"/>
<path d="M0 0 C1.65 0 3.3 0 5 0 C5.33 2.64 5.66 5.28 6 8 C4.68 7.01 3.36 6.02 2 5 C2.66 5 3.32 5 4 5 C4 4.34 4 3.68 4 3 C3.34 3 2.68 3 2 3 C2 2.34 2 1.68 2 1 C1.34 0.67 0.68 0.34 0 0 Z " fill="#CADCEC" transform="translate(57,30)"/>
<path d="M0 0 C0 0.66 0 1.32 0 2 C0.99 1.67 1.98 1.34 3 1 C2.34 2.32 1.68 3.64 1 5 C-0.65 4.67 -2.3 4.34 -4 4 C-4.33 3.01 -4.66 2.02 -5 1 C-2 0 -2 0 0 0 Z " fill="#A7CFE0" transform="translate(34,64)"/>
<path d="M0 0 C0.66 0.33 1.32 0.66 2 1 C-2.625 6.875 -2.625 6.875 -6 8 C-4.55746343 4.63408134 -2.66735273 2.48952921 0 0 Z " fill="#2C1719" transform="translate(39,32)"/>
<path d="M0 0 C0.8125 1.6875 0.8125 1.6875 1 4 C-1.4375 6.75 -1.4375 6.75 -4 9 C-3.46930939 5.17902761 -2.50298434 2.93828597 0 0 Z " fill="#75B0C3" transform="translate(21,49)"/>
<path d="M0 0 C0.66 0.33 1.32 0.66 2 1 C0.41641358 4.16717283 -0.45263699 5.73268318 -3.6875 7.3125 C-4.450625 7.539375 -5.21375 7.76625 -6 8 C-4.02 5.36 -2.04 2.72 0 0 Z " fill="#E5E3E4" transform="translate(29,48)"/>
<path d="M0 0 C0.99 0.33 1.98 0.66 3 1 C2.67 3.64 2.34 6.28 2 9 C0.14223235 5.86501708 -0.20140476 3.62528568 0 0 Z " fill="#A2A5C5" transform="translate(62,38)"/>
<path d="M0 0 C0.66 0 1.32 0 2 0 C0.44499019 3.81684226 -2.03595495 6.19195732 -5 9 C-3.7580393 5.56072421 -2.44259716 2.74792181 0 0 Z " fill="#F1F7FC" transform="translate(33,31)"/>
</svg>
