<?xml version="1.0" encoding="UTF-8"?>
<svg version="1.1" xmlns="http://www.w3.org/2000/svg" width="75" height="100">
<path d="M0 0 C4.16619433 4.58037739 4.89107897 9.848066 4.68359375 15.79296875 C3.24261551 26.88364399 -2.8147298 36.8749514 -11.40625 43.8984375 C-19.60390163 49.59991839 -28.20668221 52.23301568 -38.1796875 51.2109375 C-42.92749348 50.34627085 -46.27283928 49.05945694 -49.6640625 45.46875 C-53.71214492 39.25205199 -54.21065469 32.65451545 -53.0390625 25.46875 C-50.28119398 13.86421234 -42.37084127 5.2157763 -32.7265625 -1.53125 C-23.01205782 -7.00174262 -8.84149158 -7.41822708 0 0 Z " fill="#DEF5FD" transform="translate(60.6640625,24.53125)"/>
<path d="M0 0 C4.16619433 4.58037739 4.89107897 9.848066 4.68359375 15.79296875 C3.24261551 26.88364399 -2.8147298 36.8749514 -11.40625 43.8984375 C-19.60390163 49.59991839 -28.20668221 52.23301568 -38.1796875 51.2109375 C-42.92749348 50.34627085 -46.27283928 49.05945694 -49.6640625 45.46875 C-53.71214492 39.25205199 -54.21065469 32.65451545 -53.0390625 25.46875 C-50.28119398 13.86421234 -42.37084127 5.2157763 -32.7265625 -1.53125 C-23.01205782 -7.00174262 -8.84149158 -7.41822708 0 0 Z M-42.6640625 9.46875 C-48.77222128 16.82434965 -50.84581005 21.84240514 -50.9765625 31.34375 C-51.00556641 32.03855469 -51.03457031 32.73335937 -51.06445312 33.44921875 C-51.12807355 38.64651787 -49.89160353 41.45677878 -46.6640625 45.46875 C-42.60422611 49.52858639 -36.98383122 48.77750659 -31.51708984 48.78344727 C-21.41909853 48.57768882 -13.91247312 44.30173788 -6.6640625 37.46875 C-3.55502243 33.91231148 -0.93879151 30.05777445 0.3359375 25.46875 C-0.1590625 23.98375 -0.1590625 23.98375 -0.6640625 22.46875 C-0.9940625 23.78875 -1.3240625 25.10875 -1.6640625 26.46875 C-2.3034375 26.571875 -2.9428125 26.675 -3.6015625 26.78125 C-4.2821875 27.008125 -4.9628125 27.235 -5.6640625 27.46875 C-6.1590625 28.95375 -6.1590625 28.95375 -6.6640625 30.46875 C-8.97643086 31.91398023 -11.2572644 33.20108102 -13.6640625 34.46875 C-15.31149488 35.38253975 -16.95732505 36.29922384 -18.6015625 37.21875 C-19.95549328 37.96917574 -21.30957552 38.71932863 -22.6640625 39.46875 C-23.1590625 38.97375 -23.1590625 38.97375 -23.6640625 38.46875 C-22.54257812 37.78039063 -22.54257812 37.78039063 -21.3984375 37.078125 C-20.41359375 36.46453125 -19.42875 35.8509375 -18.4140625 35.21875 C-17.43953125 34.61546875 -16.465 34.0121875 -15.4609375 33.390625 C-12.83347094 31.58515915 -10.7145246 29.90609174 -8.6640625 27.46875 C-8.32957991 24.300918 -8.32957991 24.300918 -8.6640625 21.46875 C-7.6740625 21.13875 -6.6840625 20.80875 -5.6640625 20.46875 C-4.14246236 16.8649602 -3.6640625 14.41654314 -3.6640625 10.46875 C-1.6840625 11.45875 0.2959375 12.44875 2.3359375 13.46875 C1.95473982 7.84608421 1.60033086 4.50263561 -2.6640625 0.46875 C-16.97922185 -8.02573392 -31.96876933 -1.03325474 -42.6640625 9.46875 Z " fill="#9F93BA" transform="translate(60.6640625,24.53125)"/>
<path d="M0 0 C1.61671541 1.77046644 1.9704877 3.14449016 2.35546875 5.484375 C0.04546875 5.154375 -2.26453125 4.824375 -4.64453125 4.484375 C-4.64453125 5.474375 -4.64453125 6.464375 -4.64453125 7.484375 C-3.98453125 7.484375 -3.32453125 7.484375 -2.64453125 7.484375 C-2.64453125 8.474375 -2.64453125 9.464375 -2.64453125 10.484375 C-3.63453125 10.814375 -4.62453125 11.144375 -5.64453125 11.484375 C-7.01581479 14.2004011 -8.06810905 16.98461982 -9.16796875 19.8203125 C-10.90837556 22.96041156 -12.50111244 23.85778051 -15.64453125 25.484375 C-16.30453125 26.144375 -16.96453125 26.804375 -17.64453125 27.484375 C-19.63274438 27.88201763 -21.63397464 28.22212849 -23.64453125 28.484375 C-23.64453125 27.494375 -23.64453125 26.504375 -23.64453125 25.484375 C-22.37761618 24.81029192 -21.10582376 24.14537003 -19.83203125 23.484375 C-19.12433594 23.113125 -18.41664062 22.741875 -17.6875 22.359375 C-15.64453125 21.484375 -15.64453125 21.484375 -12.64453125 21.484375 C-12.97453125 20.659375 -13.30453125 19.834375 -13.64453125 18.984375 C-15.29989705 13.1905947 -15.40826952 8.01185153 -12.64453125 2.484375 C-18.00085751 3.78811424 -20.4555713 5.9674756 -24.01953125 10.109375 C-24.46941406 10.625 -24.91929688 11.140625 -25.3828125 11.671875 C-26.48082045 12.93341605 -27.56422162 14.20764544 -28.64453125 15.484375 C-28.97453125 14.824375 -29.30453125 14.164375 -29.64453125 13.484375 C-27.99453125 11.174375 -26.34453125 8.864375 -24.64453125 6.484375 C-25.63453125 5.824375 -26.62453125 5.164375 -27.64453125 4.484375 C-27.64453125 3.824375 -27.64453125 3.164375 -27.64453125 2.484375 C-26.43796875 2.5153125 -26.43796875 2.5153125 -25.20703125 2.546875 C-22.7109824 2.78071121 -22.7109824 2.78071121 -21.64453125 1.484375 C-23.62453125 1.484375 -25.60453125 1.484375 -27.64453125 1.484375 C-26.95703125 -0.453125 -26.95703125 -0.453125 -25.64453125 -2.515625 C-17.14859329 -4.90125975 -7.39336794 -5.10757188 0 0 Z " fill="#EAEFF9" transform="translate(58.64453125,25.515625)"/>
<path d="M0 0 C0.721875 0.103125 1.44375 0.20625 2.1875 0.3125 C2.0225 0.9725 1.8575 1.6325 1.6875 2.3125 C0.70691028 8.19603832 1.14392236 13.48999937 2.1875 19.3125 C1.02992187 19.75980469 -0.12765625 20.20710938 -1.3203125 20.66796875 C-2.859609 21.27805578 -4.39865855 21.8887661 -5.9375 22.5 C-6.69804688 22.79197266 -7.45859375 23.08394531 -8.2421875 23.38476562 C-12.01166252 24.89580518 -15.12027511 26.3695693 -18.1875 29.0625 C-20.8125 31.3125 -20.8125 31.3125 -23.6875 31.125 C-24.38875 30.856875 -25.09 30.58875 -25.8125 30.3125 C-24.46891308 26.47852721 -22.77620539 23.7448541 -20.1875 20.625 C-19.47722656 19.76132812 -18.76695313 18.89765625 -18.03515625 18.0078125 C-17.30167969 17.11835937 -16.56820313 16.22890625 -15.8125 15.3125 C-14.4148996 13.54306096 -13.01900915 11.7722697 -11.625 10 C-3.91252643 0.43472516 -3.91252643 0.43472516 0 0 Z " fill="#680707" transform="translate(43.8125,27.6875)"/>
<path d="M0 0 C1 3 1 3 0.43359375 4.796875 C-4.68837924 14.83995929 -11.30079813 20.87583968 -21.83984375 25.15234375 C-25.51943343 26.13932887 -28.75550979 26.26536626 -32.5625 26.25 C-33.84253906 26.25515625 -35.12257813 26.2603125 -36.44140625 26.265625 C-39.85625797 26.01072937 -42.05677239 25.72479468 -45 24 C-48.31926096 18.79760531 -49.63401848 13.08657738 -49 7 C-48.67 6.34 -48.34 5.68 -48 5 C-47.34 5 -46.68 5 -46 5 C-46.03480469 6.03060547 -46.03480469 6.03060547 -46.0703125 7.08203125 C-46.08835937 7.98308594 -46.10640625 8.88414063 -46.125 9.8125 C-46.15980469 11.15248047 -46.15980469 11.15248047 -46.1953125 12.51953125 C-46.18285827 15.25402714 -46.18285827 15.25402714 -44 18 C-41.8716709 18.54370178 -41.8716709 18.54370178 -39.5 18.625 C-35.15789474 18.92105263 -35.15789474 18.92105263 -33 20 C-32.67 19.34 -32.34 18.68 -32 18 C-28.9375 17.375 -28.9375 17.375 -26 17 C-26 17.66 -26 18.32 -26 19 C-25.35933594 18.60167969 -24.71867187 18.20335938 -24.05859375 17.79296875 C-19.1328604 14.77586531 -14.34198785 12.1804032 -9 10 C-5.75150023 8.27773504 -5.75150023 8.27773504 -5 5 C-2.9375 4.3125 -2.9375 4.3125 -1 4 C-0.67 2.68 -0.34 1.36 0 0 Z " fill="#BDD7ED" transform="translate(60,47)"/>
<path d="M0 0 C2.64 0 5.28 0 8 0 C8.495 3.96 8.495 3.96 9 8 C7.02 7.01 5.04 6.02 3 5 C2.855625 6.093125 2.71125 7.18625 2.5625 8.3125 C2 12 2 12 1 15 C0.01 15.33 -0.98 15.66 -2 16 C-1.87625 16.886875 -1.7525 17.77375 -1.625 18.6875 C-2 22 -2 22 -4.375 24.4375 C-5.56426903 25.3180165 -6.77617489 26.16818137 -8 27 C-9.79293927 28.22730962 -11.5845482 29.45656439 -13.375 30.6875 C-14.24898437 31.26886719 -15.12296875 31.85023437 -16.0234375 32.44921875 C-16.67570312 32.96097656 -17.32796875 33.47273438 -18 34 C-18 34.66 -18 35.32 -18 36 C-18.66 36 -19.32 36 -20 36 C-20 35.34 -20 34.68 -20 34 C-22.97 34.495 -22.97 34.495 -26 35 C-26.33 35.99 -26.66 36.98 -27 38 C-27.66 37.67 -28.32 37.34 -29 37 C-30.53668865 36.77532169 -32.07968054 36.59203195 -33.625 36.4375 C-34.44226563 36.35371094 -35.25953125 36.26992187 -36.1015625 36.18359375 C-37.04128906 36.09271484 -37.04128906 36.09271484 -38 36 C-38 35.67 -38 35.34 -38 35 C-35.36 34.67 -32.72 34.34 -30 34 C-30 33.01 -30 32.02 -30 31 C-29.01 31 -28.02 31 -27 31 C-26.67 30.34 -26.34 29.68 -26 29 C-26.66 28.67 -27.32 28.34 -28 28 C-27.175 27.566875 -26.35 27.13375 -25.5 26.6875 C-24.675 26.130625 -23.85 25.57375 -23 25 C-23 24.01 -23 23.02 -23 22 C-21.68 21.67 -20.36 21.34 -19 21 C-18.67 21.66 -18.34 22.32 -18 23 C-14.04800013 21.83236367 -11.2274473 20.53585145 -8 18 C-7.34 18 -6.68 18 -6 18 C-5.896875 17.319375 -5.79375 16.63875 -5.6875 15.9375 C-4.85274981 12.37084011 -3.50527246 9.33777806 -2 6 C-0.68 6 0.64 6 2 6 C2 5.01 2 4.02 2 3 C1.34 3 0.68 3 0 3 C0 2.01 0 1.02 0 0 Z " fill="#D9F2FA" transform="translate(54,30)"/>
<path d="M0 0 C2 1 2 1 3 2 C4.66014616 2.36442233 6.32706064 2.69972883 8 3 C7.01 3.99 6.02 4.98 5 6 C5 5.34 5 4.68 5 4 C3.35 4 1.7 4 0 4 C0 4.66 0 5.32 0 6 C1.32 6.66 2.64 7.32 4 8 C3.65066406 8.45890625 3.30132812 8.9178125 2.94140625 9.390625 C2.48636719 10.00421875 2.03132813 10.6178125 1.5625 11.25 C1.11003906 11.85328125 0.65757813 12.4565625 0.19140625 13.078125 C-1.03900997 15.06292756 -1.56112668 16.71987655 -2 19 C-3.32 19.33 -4.64 19.66 -6 20 C-6 19.01 -6 18.02 -6 17 C-8.24071094 18.00445663 -9.87754985 18.87754985 -11.625 20.625 C-12.305625 21.305625 -12.305625 21.305625 -13 22 C-13.66 22 -14.32 22 -15 22 C-15.41670951 18.58053076 -15.2031817 17.28567 -13.171875 14.4296875 C-12.37265625 13.58664063 -11.5734375 12.74359375 -10.75 11.875 C-9.96109375 11.02679688 -9.1721875 10.17859375 -8.359375 9.3046875 C-6 7 -6 7 -3.703125 5.3828125 C-3.14109375 4.92648438 -2.5790625 4.47015625 -2 4 C-2 3.01 -2 2.02 -2 1 C-1.34 0.67 -0.68 0.34 0 0 Z " fill="#D2E0FE" transform="translate(31,24)"/>
<path d="M0 0 C1.65 0.66 3.3 1.32 5 2 C5 3.65 5 5.3 5 7 C4.34 7 3.68 7 3 7 C2.67 8.65 2.34 10.3 2 12 C1.34 12 0.68 12 0 12 C0 13.65 0 15.3 0 17 C-0.66 17 -1.32 17 -2 17 C-2.020625 17.5775 -2.04125 18.155 -2.0625 18.75 C-3.54457534 22.30698081 -6.73285139 23.31802349 -10 25 C-10.77859375 25.46148437 -11.5571875 25.92296875 -12.359375 26.3984375 C-13.14828125 26.86507812 -13.9371875 27.33171875 -14.75 27.8125 C-15.48734375 28.25207031 -16.2246875 28.69164063 -16.984375 29.14453125 C-19 30 -19 30 -22 29 C-12.28571429 21 -12.28571429 21 -9 21 C-8.67 20.01 -8.34 19.02 -8 18 C-7.34 17.67 -6.68 17.34 -6 17 C-6 14.69 -6 12.38 -6 10 C-4.68 10 -3.36 10 -2 10 C-1.34 6.7 -0.68 3.4 0 0 Z " fill="#5AAEC8" transform="translate(57,35)"/>
<path d="M0 0 C0.97582031 0.00902344 1.95164062 0.01804687 2.95703125 0.02734375 C4.06111328 0.04474609 4.06111328 0.04474609 5.1875 0.0625 C4.8575 1.0525 4.5275 2.0425 4.1875 3.0625 C5.8375 4.3825 7.4875 5.7025 9.1875 7.0625 C8.8575 8.0525 8.5275 9.0425 8.1875 10.0625 C6.125 10.75 6.125 10.75 4.1875 11.0625 C3.5275 9.7425 2.8675 8.4225 2.1875 7.0625 C-0.01164497 6.47052387 -0.01164497 6.47052387 -2.8125 7.0625 C-5.40647407 9.15422397 -7.5775231 11.59842524 -9.8125 14.0625 C-10.78555088 15.0477445 -11.76387435 16.02784213 -12.75 17 C-13.7709375 18.0209375 -13.7709375 18.0209375 -14.8125 19.0625 C-13.5633258 15.60324837 -12.13722205 12.91556797 -9.8125 10.0625 C-10.8025 9.4025 -11.7925 8.7425 -12.8125 8.0625 C-12.8125 7.4025 -12.8125 6.7425 -12.8125 6.0625 C-11.6059375 6.0934375 -11.6059375 6.0934375 -10.375 6.125 C-7.87895115 6.35883621 -7.87895115 6.35883621 -6.8125 5.0625 C-8.7925 5.0625 -10.7725 5.0625 -12.8125 5.0625 C-12.125 3.125 -12.125 3.125 -10.8125 1.0625 C-7.18953724 0.04194711 -3.74663629 -0.0451402 0 0 Z " fill="#F8FAFD" transform="translate(43.8125,21.9375)"/>
<path d="M0 0 C2.64 0 5.28 0 8 0 C8.33 2.64 8.66 5.28 9 8 C7.02 7.01 5.04 6.02 3 5 C2.855625 6.093125 2.71125 7.18625 2.5625 8.3125 C2 12 2 12 1 15 C0.01 15.33 -0.98 15.66 -2 16 C-1.87625 16.886875 -1.7525 17.77375 -1.625 18.6875 C-2 22 -2 22 -4.75 24.75 C-7.15406396 26.41435197 -9.32105036 27.86659823 -12 29 C-10.32598022 25.04322598 -7.86850715 22.15535787 -5 19 C-4.34 19 -3.68 19 -3 19 C-3 18.34 -3 17.68 -3 17 C-3.99 17 -4.98 17 -6 17 C-4.7874262 13.27566618 -3.49140021 9.62197194 -2 6 C-0.68 6 0.64 6 2 6 C2 5.01 2 4.02 2 3 C1.34 3 0.68 3 0 3 C0 2.01 0 1.02 0 0 Z " fill="#C3DFF0" transform="translate(54,30)"/>
<path d="M0 0 C0.98187035 2.57888838 1.12277753 3.68611658 0.1015625 6.296875 C-5.98466083 16.40837832 -13.6281157 23.35597078 -25 27 C-31.78016403 28.42345985 -38.46416807 28.50169118 -45 26 C-48.0625 23.875 -48.0625 23.875 -50 22 C-49.505 20.515 -49.505 20.515 -49 19 C-48.4225 19.639375 -47.845 20.27875 -47.25 20.9375 C-42.51737254 25.27574183 -35.94754953 24.39689413 -29.83203125 24.27734375 C-20.70299386 23.61662851 -12.56090379 19.15477147 -6.5 12.3046875 C-3.61073786 8.46953596 -1.73115031 4.46454555 0 0 Z " fill="#958BB5" transform="translate(61,48)"/>
<path d="M0 0 C0.7425 0.0825 1.485 0.165 2.25 0.25 C1.92 1.57 1.59 2.89 1.25 4.25 C1.25 3.59 1.25 2.93 1.25 2.25 C-2.51381862 3.75721148 -4.33463482 5.89916931 -6.8125 9.0625 C-7.58851562 10.03832031 -8.36453125 11.01414062 -9.1640625 12.01953125 C-9.57817383 12.54111816 -9.99228516 13.06270508 -10.41894531 13.60009766 C-13.24443531 17.10241999 -16.19168547 20.50424545 -19.11938477 23.92114258 C-21.14808513 26.30176411 -23.01216402 28.64324603 -24.75 31.25 C-25.08 30.26 -25.41 29.27 -25.75 28.25 C-21.69748677 21.07054754 -8.36611474 0.76055589 0 0 Z " fill="#68A5BA" transform="translate(43.75,27.75)"/>
<path d="M0 0 C0.66 0 1.32 0 2 0 C1.96519531 1.03060547 1.96519531 1.03060547 1.9296875 2.08203125 C1.91164063 2.98308594 1.89359375 3.88414063 1.875 4.8125 C1.84019531 6.15248047 1.84019531 6.15248047 1.8046875 7.51953125 C1.81714173 10.25402714 1.81714173 10.25402714 4 13 C6.19454681 13.57993699 6.19454681 13.57993699 8.625 13.6875 C9.44226562 13.75324219 10.25953125 13.81898437 11.1015625 13.88671875 C11.72804688 13.92410156 12.35453125 13.96148437 13 14 C14.125 17.75 14.125 17.75 13 20 C10.12433539 20.95855487 8.41057267 21.1123205 5.47265625 20.30859375 C1.65062653 18.2858766 1.12489594 15.53121207 -0.28125 11.61328125 C-1.38906467 7.58541162 -1.93128635 3.86257271 0 0 Z " fill="#AACDDC" transform="translate(12,52)"/>
<path d="M0 0 C0.66 0.66 1.32 1.32 2 2 C-0.97 5.96 -3.94 9.92 -7 14 C-5.35 14 -3.7 14 -2 14 C-4.3239433 15.78764869 -6.67580652 17.4460323 -9.125 19.0625 C-11.98233955 20.85486566 -11.98233955 20.85486566 -14 23 C-14.99 23 -15.98 23 -17 23 C-16.13498732 18.58080987 -13.66172763 15.92445115 -10.75 12.625 C-9.78626029 11.51319247 -8.8227176 10.40121412 -7.859375 9.2890625 C-7.38693359 8.74797852 -6.91449219 8.20689453 -6.42773438 7.64941406 C-4.24740102 5.13054741 -2.12429907 2.5662153 0 0 Z " fill="#2C1415" transform="translate(37,36)"/>
<path d="M0 0 C-1.8619874 4.51909375 -5.12233716 6.84766984 -8.80859375 9.90234375 C-12.75603593 13.6809114 -14.43776658 17.83261253 -16 23 C-18 20 -18 20 -17.8515625 17.625 C-15.79459417 11.28425358 -7.41523529 0 0 0 Z " fill="#F6F7FB" transform="translate(30,26)"/>
<path d="M0 0 C0.66 0.66 1.32 1.32 2 2 C1.57847656 2.53109375 1.15695313 3.0621875 0.72265625 3.609375 C0.17480469 4.31578125 -0.37304688 5.0221875 -0.9375 5.75 C-1.48277344 6.44609375 -2.02804688 7.1421875 -2.58984375 7.859375 C-5.52063388 12.30833065 -5.15300717 16.87650491 -5.125 22.0625 C-5.12886719 22.78244141 -5.13273438 23.50238281 -5.13671875 24.24414062 C-5.13080799 27.42708639 -5.01350713 29.95947862 -4 33 C-4.99 33 -5.98 33 -7 33 C-9.51852543 21.7247554 -9.0958743 13.84661465 -3.21875 3.8125 C-2 2 -2 2 0 0 Z " fill="#AEA4C5" transform="translate(16,34)"/>
<path d="M0 0 C0.66 0.33 1.32 0.66 2 1 C2 3.64 2 6.28 2 9 C0.73308493 9.67408308 -0.53870749 10.33900497 -1.8125 11 C-2.52019531 11.37125 -3.22789063 11.7425 -3.95703125 12.125 C-6 13 -6 13 -9 13 C-7.50923566 9.7173068 -5.61379679 7.06922559 -3.375 4.25 C-2.74335937 3.45078125 -2.11171875 2.6515625 -1.4609375 1.828125 C-0.97882812 1.22484375 -0.49671875 0.6215625 0 0 Z " fill="#9FC3D4" transform="translate(39,37)"/>
<path d="M0 0 C0.66 0 1.32 0 2 0 C1.9375 2.25 1.9375 2.25 1 5 C-1.33791389 6.55860926 -3.50551034 7.7573746 -6 9 C-8.33054802 10.37749278 -10.65903221 11.7582692 -12.984375 13.14453125 C-15 14 -15 14 -18 13 C-8.28571429 5 -8.28571429 5 -5 5 C-4.67 4.01 -4.34 3.02 -4 2 C-2.68 2 -1.36 2 0 2 C0 1.34 0 0.68 0 0 Z " fill="#8CC0D1" transform="translate(53,51)"/>
<path d="M0 0 C1.11375 0.9590625 1.11375 0.9590625 2.25 1.9375 C7.53735005 5.90301254 13.45681386 5.30714163 19.8828125 5.62109375 C23 6 23 6 25 8 C16.63703566 9.15674647 9.28933598 9.71366154 1.9375 5.0625 C0 3 0 3 0 0 Z " fill="#A4A0C1" transform="translate(11,67)"/>
<path d="M0 0 C2 1 2 1 3 2 C4.66014616 2.36442233 6.32706064 2.69972883 8 3 C7.01 3.99 6.02 4.98 5 6 C5 5.34 5 4.68 5 4 C3.35 4 1.7 4 0 4 C0.33 4.99 0.66 5.98 1 7 C0.030625 7.2475 -0.93875 7.495 -1.9375 7.75 C-2.948125 8.1625 -3.95875 8.575 -5 9 C-5.96877057 11.03243548 -5.96877057 11.03243548 -6 13 C-6.598125 13.12375 -7.19625 13.2475 -7.8125 13.375 C-10.26231348 13.95475985 -10.26231348 13.95475985 -13 16 C-11.1181796 11.37816639 -7.66884377 9.00073754 -3.8984375 5.90234375 C-1.64681016 4.09401003 -1.64681016 4.09401003 -2 1 C-1.34 0.67 -0.68 0.34 0 0 Z " fill="#DFE7FC" transform="translate(31,24)"/>
<path d="M0 0 C0.99 0.33 1.98 0.66 3 1 C2.25 8.625 2.25 8.625 0 12 C-0.66 11.34 -1.32 10.68 -2 10 C-2.33 10.99 -2.66 11.98 -3 13 C-3.66 13 -4.32 13 -5 13 C-5 11.68 -5 10.36 -5 9 C-4.34 9 -3.68 9 -3 9 C-2.67 7.35 -2.34 5.7 -2 4 C-1.34 4 -0.68 4 0 4 C0 2.68 0 1.36 0 0 Z " fill="#A3B7CF" transform="translate(62,38)"/>
<path d="M0 0 C2.64 0 5.28 0 8 0 C8.33 2.64 8.66 5.28 9 8 C7.02 7.01 5.04 6.02 3 5 C2.67 6.32 2.34 7.64 2 9 C2 7.02 2 5.04 2 3 C1.34 3 0.68 3 0 3 C0 2.01 0 1.02 0 0 Z " fill="#B1D5E1" transform="translate(54,30)"/>
<path d="M0 0 C1.125 3.75 1.125 3.75 0 6 C-3.73487777 5.5020163 -5.81237635 5.12508244 -9 3 C-9 2.34 -9 1.68 -9 1 C-6.04335481 -0.4783226 -3.25770263 -0.06032783 0 0 Z " fill="#94C5D4" transform="translate(25,66)"/>
<path d="M0 0 C0.66 0.66 1.32 1.32 2 2 C1.90396703 4.38045351 1.69878239 6.75698126 1.4375 9.125 C0.86127164 15.22748412 1.19504555 19.50228927 4 25 C1 24 1 24 -0.17578125 22.4375 C-1.34716398 18.97331599 -1.24964819 15.611137 -1.1875 12 C-1.18685547 11.2884375 -1.18621094 10.576875 -1.18554688 9.84375 C-1.1568988 6.43144624 -1.06157986 3.26117332 0 0 Z " fill="#E9EEF4" transform="translate(11,44)"/>
<path d="M0 0 C3.97041037 -0.22057835 5.23312136 0.11656068 9 2 C5.7 5.63 2.4 9.26 -1 13 C-1.33 12.34 -1.66 11.68 -2 11 C-0.35 8.69 1.3 6.38 3 4 C2.01 3.34 1.02 2.68 0 2 C0 1.34 0 0.68 0 0 Z " fill="#E8F0FB" transform="translate(31,28)"/>
<path d="M0 0 C-0.6290625 0.36351563 -1.258125 0.72703125 -1.90625 1.1015625 C-7.55243063 4.41784329 -12.85618513 7.94816818 -18 12 C-16.57646476 8.66863403 -14.8664687 6.72335243 -12.125 4.375 C-11.44695313 3.78460937 -10.76890625 3.19421875 -10.0703125 2.5859375 C-6.48145021 -0.16326645 -4.44504168 -1.58751489 0 0 Z " fill="#9C8FB7" transform="translate(35,23)"/>
<path d="M0 0 C-1.3363414 4.00902419 -3.49427032 4.80891895 -7 7 C-7.33 7.33 -7.66 7.66 -8 8 C-9.66617115 8.04063832 -11.33388095 8.042721 -13 8 C-13 7.34 -13 6.68 -13 6 C-12.278125 5.7525 -11.55625 5.505 -10.8125 5.25 C-7.88432515 4.09414485 -7.88432515 4.09414485 -5.375 1.875 C-3 0 -3 0 0 0 Z " fill="#F7F9FA" transform="translate(32,53)"/>
<path d="M0 0 C0.66 0.66 1.32 1.32 2 2 C-0.64 5.3 -3.28 8.6 -6 12 C-6.99 11.34 -7.98 10.68 -9 10 C-6.03 6.7 -3.06 3.4 0 0 Z " fill="#372224" transform="translate(37,36)"/>
<path d="M0 0 C0.99 0.33 1.98 0.66 3 1 C2.27683594 1.81404297 2.27683594 1.81404297 1.5390625 2.64453125 C0.59160156 3.71767578 0.59160156 3.71767578 -0.375 4.8125 C-1.31472656 5.87404297 -1.31472656 5.87404297 -2.2734375 6.95703125 C-4.140599 9.08803819 -4.140599 9.08803819 -6 12 C-6.33 11.01 -6.66 10.02 -7 9 C-5.8203125 6.9921875 -5.8203125 6.9921875 -4.125 4.875 C-3.57070313 4.17117187 -3.01640625 3.46734375 -2.4453125 2.7421875 C-1 1 -1 1 0 0 Z " fill="#64A1B5" transform="translate(25,47)"/>
<path d="M0 0 C0.99 1.32 1.98 2.64 3 4 C3.66 3.67 4.32 3.34 5 3 C5 3.99 5 4.98 5 6 C1.37 7.32 -2.26 8.64 -6 10 C-6.66 9.34 -7.32 8.68 -8 8 C-6.2984375 7.4121875 -6.2984375 7.4121875 -4.5625 6.8125 C-0.79660949 5.41389118 -0.79660949 5.41389118 -0.0625 2.3125 C-0.041875 1.549375 -0.02125 0.78625 0 0 Z " fill="#5E282B" transform="translate(41,41)"/>
<path d="M0 0 C0 0.66 0 1.32 0 2 C-1.76913824 2.22226864 -3.54044371 2.42733873 -5.3125 2.625 C-6.29863281 2.74101562 -7.28476562 2.85703125 -8.30078125 2.9765625 C-11 3 -11 3 -14 1 C-12.23103898 0.63659714 -10.45973374 0.28459117 -8.6875 -0.0625 C-7.70136719 -0.25972656 -6.71523438 -0.45695312 -5.69921875 -0.66015625 C-3 -1 -3 -1 0 0 Z " fill="#B3A9C8" transform="translate(46,20)"/>
<path d="M0 0 C0.721875 0.61875 1.44375 1.2375 2.1875 1.875 C4.78381938 3.83666353 6.94671666 4.95316 10 6 C10 6.33 10 6.66 10 7 C3.55192878 6.39169139 3.55192878 6.39169139 1.0625 4.625 C0 3 0 3 0 0 Z " fill="#8D7FAC" transform="translate(11,67)"/>
<path d="M0 0 C-0.33 1.32 -0.66 2.64 -1 4 C-2.32 4.33 -3.64 4.66 -5 5 C-5 4.01 -5 3.02 -5 2 C-5.66 1.67 -6.32 1.34 -7 1 C-3.375 -1.125 -3.375 -1.125 0 0 Z " fill="#D8EAFC" transform="translate(30,39)"/>
<path d="M0 0 C0.33 1.32 0.66 2.64 1 4 C-0.65 5.32 -2.3 6.64 -4 8 C-4.66 7.67 -5.32 7.34 -6 7 C-4.02 4.69 -2.04 2.38 0 0 Z " fill="#E4E6EA" transform="translate(39,37)"/>
<path d="M0 0 C1.65 0 3.3 0 5 0 C5.33 2.64 5.66 5.28 6 8 C4.68 7.01 3.36 6.02 2 5 C2.66 5 3.32 5 4 5 C4 4.34 4 3.68 4 3 C3.34 3 2.68 3 2 3 C2 2.34 2 1.68 2 1 C1.34 0.67 0.68 0.34 0 0 Z " fill="#CADCEC" transform="translate(57,30)"/>
<path d="M0 0 C0 0.66 0 1.32 0 2 C0.99 1.67 1.98 1.34 3 1 C2.34 2.32 1.68 3.64 1 5 C-0.65 4.67 -2.3 4.34 -4 4 C-4.33 3.01 -4.66 2.02 -5 1 C-2 0 -2 0 0 0 Z " fill="#A7CFE0" transform="translate(34,64)"/>
<path d="M0 0 C0.99 0 1.98 0 3 0 C2.67 2.64 2.34 5.28 2 8 C1.34 6.68 0.68 5.36 0 4 C-0.99 4.495 -0.99 4.495 -2 5 C-1.125 1.125 -1.125 1.125 0 0 Z " fill="#682325" transform="translate(42,30)"/>
<path d="M0 0 C0.66 0 1.32 0 2 0 C0.44499019 3.81684226 -2.03595495 6.19195732 -5 9 C-3.7580393 5.56072421 -2.44259716 2.74792181 0 0 Z " fill="#F1F7FC" transform="translate(34,32)"/>
</svg>
