<?xml version="1.0" encoding="UTF-8"?>
<svg version="1.1" xmlns="http://www.w3.org/2000/svg" width="75" height="100">
<path d="M0 0 C3.86921011 4.45751106 4.97012075 10.20120254 4.75 15.984375 C2.93753675 27.16693129 -2.83723646 37.08426947 -11.62890625 44.15625 C-20.47496953 50.16681891 -29.94282427 52.78134099 -40.5390625 50.8515625 C-45.55550261 49.49891526 -48.549967 47.37962417 -51.26953125 42.88671875 C-52.85719158 39.0754445 -53.16388577 35.78965342 -53.1015625 31.7265625 C-53.09181396 31.01806152 -53.08206543 30.30956055 -53.07202148 29.57958984 C-52.69679178 18.48042246 -47.47103535 12.07727071 -39.6640625 4.5390625 C-28.68897276 -4.67013909 -12.56670508 -10.48247107 0 0 Z " fill="#BFD9EC" transform="translate(60.6640625,24.4609375)"/>
<path d="M0 0 C1.61671541 1.77046644 1.9704877 3.14449016 2.35546875 5.484375 C1.61296875 4.96875 0.87046875 4.453125 0.10546875 3.921875 C-2.46099988 2.2816991 -2.46099988 2.2816991 -4.89453125 2.609375 C-5.47203125 2.898125 -6.04953125 3.186875 -6.64453125 3.484375 C-6.97453125 4.474375 -7.30453125 5.464375 -7.64453125 6.484375 C-10.62912254 8.43979688 -11.90867916 8.484375 -15.64453125 8.484375 C-15.64453125 7.164375 -15.64453125 5.844375 -15.64453125 4.484375 C-26.42478717 7.98984283 -34.55258121 22.34644994 -40.64453125 31.484375 C-37.01453125 30.494375 -33.38453125 29.504375 -29.64453125 28.484375 C-29.64453125 31.124375 -29.64453125 33.764375 -29.64453125 36.484375 C-28.98453125 36.814375 -28.32453125 37.144375 -27.64453125 37.484375 C-27.64453125 38.144375 -27.64453125 38.804375 -27.64453125 39.484375 C-28.63453125 39.484375 -29.62453125 39.484375 -30.64453125 39.484375 C-30.97453125 40.474375 -31.30453125 41.464375 -31.64453125 42.484375 C-32.13953125 41.989375 -32.13953125 41.989375 -32.64453125 41.484375 C-35.16161798 41.28138413 -37.67629315 41.16524804 -40.19921875 41.05859375 C-42.64453125 40.484375 -42.64453125 40.484375 -44.44921875 38.69921875 C-46.37175076 35.13688002 -45.90320004 32.49374129 -45.64453125 28.484375 C-45.31453125 27.824375 -44.98453125 27.164375 -44.64453125 26.484375 C-45.30453125 26.484375 -45.96453125 26.484375 -46.64453125 26.484375 C-47.0482142 32.94330214 -46.23605745 37.54546078 -43.64453125 43.484375 C-46.64453125 42.484375 -46.64453125 42.484375 -47.8125 40.91015625 C-48.97876642 37.50991473 -48.97343006 34.22385778 -48.95703125 30.671875 C-48.97314453 29.98544922 -48.98925781 29.29902344 -49.00585938 28.59179688 C-49.01488933 19.04713208 -44.01350672 12.19761942 -37.64453125 5.484375 C-27.33269085 -3.28068934 -12.15432439 -8.39659084 0 0 Z " fill="#DEF3FA" transform="translate(58.64453125,25.515625)"/>
<path d="M0 0 C3.86921011 4.45751106 4.97012075 10.20120254 4.75 15.984375 C2.93753675 27.16693129 -2.83723646 37.08426947 -11.62890625 44.15625 C-20.47496953 50.16681891 -29.94282427 52.78134099 -40.5390625 50.8515625 C-45.55550261 49.49891526 -48.549967 47.37962417 -51.26953125 42.88671875 C-52.85719158 39.0754445 -53.16388577 35.78965342 -53.1015625 31.7265625 C-53.09181396 31.01806152 -53.08206543 30.30956055 -53.07202148 29.57958984 C-52.69679178 18.48042246 -47.47103535 12.07727071 -39.6640625 4.5390625 C-28.68897276 -4.67013909 -12.56670508 -10.48247107 0 0 Z M-44.8828125 12.2109375 C-49.6632476 18.83301563 -50.86444193 23.26663435 -50.9765625 31.4140625 C-51.00556641 32.10886719 -51.03457031 32.80367187 -51.06445312 33.51953125 C-51.12807355 38.71683037 -49.89160353 41.52709128 -46.6640625 45.5390625 C-42.60422611 49.59889889 -36.98383122 48.84781909 -31.51708984 48.85375977 C-20.71133043 48.63357971 -12.52451164 43.6088134 -5.1328125 35.953125 C0.41827698 29.01426315 3.10929833 19.52506314 2.64453125 10.72265625 C1.9345438 5.69882101 -0.02055349 2.70519148 -3.9765625 -0.3359375 C-18.68039046 -8.745876 -35.39901972 0.7903138 -44.8828125 12.2109375 Z " fill="#A095BB" transform="translate(60.6640625,24.4609375)"/>
<path d="M0 0 C1.32 0 2.64 0 4 0 C4.41176754 3.60296594 4.1535853 4.78402067 2 7.8125 C1.34 8.534375 0.68 9.25625 0 10 C0.66 10 1.32 10 2 10 C2 10.66 2 11.32 2 12 C1.01 12.495 1.01 12.495 0 13 C0.12375 13.886875 0.2475 14.77375 0.375 15.6875 C0 19 0 19 -2.5625 21.6875 C-5.59234104 23.92381124 -10.13744372 27 -14 27 C-15.03590199 21.94997778 -15.10251672 17.12583611 -15 12 C-15.99 11.67 -16.98 11.34 -18 11 C-16.68 8.03 -15.36 5.06 -14 2 C-13.34 2 -12.68 2 -12 2 C-12 3.98 -12 5.96 -12 8 C-10.96875 7.505 -9.9375 7.01 -8.875 6.5 C-5.47548422 5.02526098 -2.72978451 4.72708894 1 5 C0.67 3.35 0.34 1.7 0 0 Z " fill="#DBE7FA" transform="translate(52,33)"/>
<path d="M0 0 C1.61671541 1.77046644 1.9704877 3.14449016 2.35546875 5.484375 C1.61296875 4.96875 0.87046875 4.453125 0.10546875 3.921875 C-2.46099988 2.2816991 -2.46099988 2.2816991 -4.89453125 2.609375 C-5.47203125 2.898125 -6.04953125 3.186875 -6.64453125 3.484375 C-6.97453125 4.474375 -7.30453125 5.464375 -7.64453125 6.484375 C-10.62912254 8.43979688 -11.90867916 8.484375 -15.64453125 8.484375 C-15.64453125 6.504375 -15.64453125 4.524375 -15.64453125 2.484375 C-17.95453125 2.814375 -20.26453125 3.144375 -22.64453125 3.484375 C-22.64453125 2.824375 -22.64453125 2.164375 -22.64453125 1.484375 C-23.30453125 1.484375 -23.96453125 1.484375 -24.64453125 1.484375 C-25.63453125 2.969375 -25.63453125 2.969375 -26.64453125 4.484375 C-27.96453125 4.154375 -29.28453125 3.824375 -30.64453125 3.484375 C-30.64453125 4.474375 -30.64453125 5.464375 -30.64453125 6.484375 C-31.51078125 6.814375 -32.37703125 7.144375 -33.26953125 7.484375 C-38.69141521 10.69734327 -41.73242034 15.16263813 -44.01953125 20.984375 C-44.22578125 21.809375 -44.43203125 22.634375 -44.64453125 23.484375 C-46.64453125 20.484375 -46.64453125 20.484375 -46.484375 18.1015625 C-43.66164762 9.30515625 -35.391444 2.8909937 -27.64453125 -1.515625 C-19.08445655 -5.30181189 -7.80442855 -5.39154552 0 0 Z " fill="#F3F5FB" transform="translate(58.64453125,25.515625)"/>
<path d="M0 0 C0.33 1.65 0.66 3.3 1 5 C4.465 4.505 4.465 4.505 8 4 C8 4.99 8 5.98 8 7 C6.5437455 7.67119549 5.08492133 8.33681807 3.625 9 C2.81289063 9.37125 2.00078125 9.7425 1.1640625 10.125 C-1 11 -1 11 -3 11 C-3 9.02 -3 7.04 -3 5 C-3.66 5 -4.32 5 -5 5 C-5.33644531 5.78117187 -5.33644531 5.78117187 -5.6796875 6.578125 C-7.49424109 9.90659609 -9.78914175 12.77292576 -12.125 15.75 C-12.59292969 16.35199219 -13.06085937 16.95398438 -13.54296875 17.57421875 C-14.69225007 19.05186616 -15.84571235 20.52626005 -17 22 C-14.03 21.01 -11.06 20.02 -8 19 C-7.0318352 22.8726592 -6.92377142 26.03611362 -7 30 C-8.32 30.33 -9.64 30.66 -11 31 C-11 28.36 -11 25.72 -11 23 C-11.59167969 23.28875 -12.18335938 23.5775 -12.79296875 23.875 C-20.64147627 27.56239016 -20.64147627 27.56239016 -25 27 C-23.33651947 23.23671617 -20.94647025 20.1037412 -18.4375 16.875 C-17.99712402 16.30821533 -17.55674805 15.74143066 -17.10302734 15.1574707 C-5.21106086 0 -5.21106086 0 0 0 Z " fill="#661516" transform="translate(43,30)"/>
<path d="M0 0 C0.99 0.33 1.98 0.66 3 1 C2.67 1.66 2.34 2.32 2 3 C5.465 2.505 5.465 2.505 9 2 C9 2.66 9 3.32 9 4 C8.26265625 4.23976563 7.5253125 4.47953125 6.765625 4.7265625 C-2.62593358 9.05092422 -10.35548019 22.53322029 -16 31 C-14.68 31.33 -13.36 31.66 -12 32 C-14.31 31.67 -16.62 31.34 -19 31 C-16.78345476 27.06903951 -14.21117126 23.70413323 -11.3125 20.25 C-8.51003585 17.45185432 -8.51003585 17.45185432 -7 14 C-10.97614372 15.32538124 -13.11189884 17.01230914 -16 20 C-16.66 20 -17.32 20 -18 20 C-18.2685261 16.98829554 -18.25089574 15.40779596 -16.64453125 12.796875 C-16.03996094 12.12140625 -15.43539063 11.4459375 -14.8125 10.75 C-14.22082031 10.06421875 -13.62914062 9.3784375 -13.01953125 8.671875 C-10.67504263 6.73098306 -8.98862142 6.35099526 -6 6 C-6 5.01 -6 4.02 -6 3 C-4.68 3 -3.36 3 -2 3 C-1.34 2.01 -0.68 1.02 0 0 Z " fill="#D7E4FC" transform="translate(34,26)"/>
<path d="M0 0 C1.65 0.66 3.3 1.32 5 2 C5 3.65 5 5.3 5 7 C4.34 7 3.68 7 3 7 C2.67 8.65 2.34 10.3 2 12 C1.34 12 0.68 12 0 12 C0 13.65 0 15.3 0 17 C-0.66 17 -1.32 17 -2 17 C-2.020625 17.5775 -2.04125 18.155 -2.0625 18.75 C-3.54457534 22.30698081 -6.73285139 23.31802349 -10 25 C-10.77859375 25.46148437 -11.5571875 25.92296875 -12.359375 26.3984375 C-13.14828125 26.86507812 -13.9371875 27.33171875 -14.75 27.8125 C-15.48734375 28.25207031 -16.2246875 28.69164063 -16.984375 29.14453125 C-19 30 -19 30 -22 29 C-12.28571429 21 -12.28571429 21 -9 21 C-8.67 20.01 -8.34 19.02 -8 18 C-7.34 17.67 -6.68 17.34 -6 17 C-6 14.69 -6 12.38 -6 10 C-4.68 10 -3.36 10 -2 10 C-1.34 6.7 -0.68 3.4 0 0 Z " fill="#5AAEC8" transform="translate(57,35)"/>
<path d="M0 0 C0.33 0 0.66 0 1 0 C0.68808036 9.35758924 -2.74720387 17.75033178 -9 24.8125 C-16.10937078 31.21407944 -25.87688541 35.85821091 -35.46484375 36.140625 C-42.13208888 35.77079322 -47.05503197 34.78545293 -52 30 C-51.505 28.515 -51.505 28.515 -51 27 C-50.4225 27.639375 -49.845 28.27875 -49.25 28.9375 C-44.51737254 33.27574183 -37.94754953 32.39689413 -31.83203125 32.27734375 C-21.79613312 31.55099434 -13.97737434 26.34736265 -7.3125 19.0625 C-3.55390454 13.43739115 -1.94024689 6.41519929 0 0 Z " fill="#9992B9" transform="translate(63,40)"/>
<path d="M0 0 C0.5625 1.9375 0.5625 1.9375 1 4 C0.67 4.33 0.34 4.66 0 5 C0.66 5.33 1.32 5.66 2 6 C2.42343395 8.49885668 2.69718236 10.85747653 2.875 13.375 C2.9471875 14.06078125 3.019375 14.7465625 3.09375 15.453125 C3.2421875 17.4609375 3.2421875 17.4609375 3 21 C0.72914192 23.44105087 -0.36986881 23.94138315 -3.6875 24.25 C-6 24 -6 24 -7 23 C-7.23728814 16.47457627 -7.23728814 16.47457627 -6 14 C-5.01 14 -4.02 14 -3 14 C-3 16.64 -3 19.28 -3 22 C-1.68 21.67 -0.36 21.34 1 21 C0.67 17.37 0.34 13.74 0 10 C-4.455 11.485 -4.455 11.485 -9 13 C-7.31626595 9.6325319 -5.68918436 7.16415809 -3.375 4.25 C-2.74335937 3.45078125 -2.11171875 2.6515625 -1.4609375 1.828125 C-0.97882812 1.22484375 -0.49671875 0.6215625 0 0 Z " fill="#D5E7ED" transform="translate(35,39)"/>
<path d="M0 0 C0.66 0 1.32 0 2 0 C1.96519531 1.03060547 1.96519531 1.03060547 1.9296875 2.08203125 C1.91164063 2.98308594 1.89359375 3.88414063 1.875 4.8125 C1.84019531 6.15248047 1.84019531 6.15248047 1.8046875 7.51953125 C1.81714173 10.25402714 1.81714173 10.25402714 4 13 C6.29657708 13.4332151 6.29657708 13.4332151 8.875 13.4375 C13.69044556 13.77151935 13.69044556 13.77151935 16.625 15.9375 C18 18 18 18 18 20 C16.43969749 20.22419881 14.8765495 20.42863758 13.3125 20.625 C12.00732422 20.79902344 12.00732422 20.79902344 10.67578125 20.9765625 C7.53370036 21.00408438 5.73152481 20.55493896 3 19 C-0.31926096 13.79760531 -1.63401848 8.08657738 -1 2 C-0.67 1.34 -0.34 0.68 0 0 Z " fill="#A5CEDF" transform="translate(12,52)"/>
<path d="M0 0 C0.66 0.33 1.32 0.66 2 1 C2 1.99 2 2.98 2 4 C4.97 3.01 7.94 2.02 11 1 C11.9681648 4.8726592 12.07622858 8.03611362 12 12 C10.68 12.33 9.36 12.66 8 13 C8 10.36 8 7.72 8 5 C7.40832031 5.28875 6.81664062 5.5775 6.20703125 5.875 C-1.64147627 9.56239016 -1.64147627 9.56239016 -6 9 C-4.47291037 5.56404834 -2.40072955 2.88087546 0 0 Z " fill="#301B1D" transform="translate(24,48)"/>
<path d="M0 0 C3.42156355 1.11399743 5.87422944 2.63717115 8.6875 4.875 C9.5625 7.125 9.5625 7.125 9.6875 8.875 C8.945 8.359375 8.2025 7.84375 7.4375 7.3125 C4.87103137 5.6723241 4.87103137 5.6723241 2.4375 6 C1.86 6.28875 1.2825 6.5775 0.6875 6.875 C0.3575 7.865 0.0275 8.855 -0.3125 9.875 C-3.29709129 11.83042188 -4.57664791 11.875 -8.3125 11.875 C-8.3125 9.565 -8.3125 7.255 -8.3125 4.875 C-5.875 5.25 -5.875 5.25 -3.3125 5.875 C-2.9825 6.535 -2.6525 7.195 -2.3125 7.875 C-2.88594937 5.00775314 -3.1739515 4.0135485 -5.3125 1.875 C-2.3125 -0.125 -2.3125 -0.125 0 0 Z " fill="#E6EFFB" transform="translate(51.3125,22.125)"/>
<path d="M0 0 C2.625 -0.1875 2.625 -0.1875 5 0 C5 0.66 5 1.32 5 2 C3.89398438 2.35964844 3.89398438 2.35964844 2.765625 2.7265625 C-6.62593358 7.05092422 -14.35548019 20.53322029 -20 29 C-18.68 29.33 -17.36 29.66 -16 30 C-18.31 29.67 -20.62 29.34 -23 29 C-20.68204503 24.83540756 -17.85243898 21.28113641 -14.75 17.6875 C-14.26345947 17.11789551 -13.77691895 16.54829102 -13.27563477 15.96142578 C-10.00163847 12.13625349 -6.69358731 8.3414743 -3.33984375 4.5859375 C-1.80413162 2.82887141 -1.80413162 2.82887141 0 0 Z " fill="#699FB1" transform="translate(38,28)"/>
<path d="M0 0 C0.99 1.485 0.99 1.485 2 3 C5.3 2.67 8.6 2.34 12 2 C10.02129165 5.9574167 8.00883087 8.77625264 5 12 C3.68 12.33 2.36 12.66 1 13 C0.67 8.71 0.34 4.42 0 0 Z " fill="#DDF5FE" transform="translate(37,47)"/>
<path d="M0 0 C0.66 0.66 1.32 1.32 2 2 C1.57847656 2.53109375 1.15695313 3.0621875 0.72265625 3.609375 C0.17480469 4.31578125 -0.37304688 5.0221875 -0.9375 5.75 C-1.48277344 6.44609375 -2.02804688 7.1421875 -2.58984375 7.859375 C-5.52063388 12.30833065 -5.15300717 16.87650491 -5.125 22.0625 C-5.12886719 22.78244141 -5.13273438 23.50238281 -5.13671875 24.24414062 C-5.13080799 27.42708639 -5.01350713 29.95947862 -4 33 C-4.99 33 -5.98 33 -7 33 C-9.37363247 25.87910258 -9.24372666 15.75090179 -6.25 8.8125 C-4.51850287 5.58449463 -2.45983622 2.72339011 0 0 Z " fill="#AA9FC1" transform="translate(16,34)"/>
<path d="M0 0 C0.66 0 1.32 0 2 0 C1.9375 2.25 1.9375 2.25 1 5 C-1.33791389 6.55860926 -3.50551034 7.7573746 -6 9 C-8.33054802 10.37749278 -10.65903221 11.7582692 -12.984375 13.14453125 C-15 14 -15 14 -18 13 C-8.28571429 5 -8.28571429 5 -5 5 C-4.67 4.01 -4.34 3.02 -4 2 C-2.68 2 -1.36 2 0 2 C0 1.34 0 0.68 0 0 Z " fill="#8CC0D2" transform="translate(53,51)"/>
<path d="M0 0 C1.49080078 0.02707031 1.49080078 0.02707031 3.01171875 0.0546875 C3.77097656 0.07789062 4.53023437 0.10109375 5.3125 0.125 C4.9825 1.115 4.6525 2.105 4.3125 3.125 C4.9725 3.785 5.6325 4.445 6.3125 5.125 C5.9375 7.25 5.9375 7.25 5.3125 9.125 C4.9825 8.135 4.6525 7.145 4.3125 6.125 C3.219375 6.145625 2.12625 6.16625 1 6.1875 C-2.6875 6.125 -2.6875 6.125 -5.6875 5.125 C-5.6875 4.465 -5.6875 3.805 -5.6875 3.125 C-6.6775 2.795 -7.6675 2.465 -8.6875 2.125 C-5.26655758 -0.15562828 -4.00562778 -0.09425007 0 0 Z " fill="#FBFCFE" transform="translate(43.6875,21.875)"/>
<path d="M0 0 C0.5625 1.9375 0.5625 1.9375 1 4 C0.67 4.33 0.34 4.66 0 5 C0.66 5.33 1.32 5.66 2 6 C1.67 8.64 1.34 11.28 1 14 C0.67 12.68 0.34 11.36 0 10 C-4.455 11.485 -4.455 11.485 -9 13 C-7.31626595 9.6325319 -5.68918436 7.16415809 -3.375 4.25 C-2.74335937 3.45078125 -2.11171875 2.6515625 -1.4609375 1.828125 C-0.97882812 1.22484375 -0.49671875 0.6215625 0 0 Z " fill="#E1E2E5" transform="translate(35,39)"/>
<path d="M0 0 C0.66 0 1.32 0 2 0 C1.95359375 0.66386719 1.9071875 1.32773437 1.859375 2.01171875 C1.57488443 7.88116257 1.57488443 7.88116257 4 13.125 C4.66 13.74375 5.32 14.3625 6 15 C5.34 15 4.68 15 4 15 C5.63412443 16.70840281 6.86906094 17.93453047 9 19 C8.67 19.66 8.34 20.32 8 21 C4.96624357 20.08936996 3.37190251 19.58289591 1.63671875 16.86328125 C-0.29292367 11.67786354 -1.57723209 7.54142806 -1 2 C-0.67 1.34 -0.34 0.68 0 0 Z " fill="#A7C8D8" transform="translate(12,52)"/>
<path d="M0 0 C0.33 0 0.66 0 1 0 C1.64323227 8.07613852 -0.1082716 14.48666996 -3 22 C-5 20 -5 20 -5.125 16.875 C-5.08375 15.92625 -5.0425 14.9775 -5 14 C-4.34 14 -3.68 14 -3 14 C-2.67 12.35 -2.34 10.7 -2 9 C-1.34 9 -0.68 9 0 9 C-0.185625 8.071875 -0.37125 7.14375 -0.5625 6.1875 C-1 3 -1 3 0 0 Z " fill="#AACCDC" transform="translate(62,33)"/>
<path d="M0 0 C0.66 0.66 1.32 1.32 2 2 C1.90396703 4.38045351 1.69878239 6.75698126 1.4375 9.125 C0.86127164 15.22748412 1.19504555 19.50228927 4 25 C1 24 1 24 -0.17578125 22.4375 C-1.34716398 18.97331599 -1.24964819 15.611137 -1.1875 12 C-1.18685547 11.2884375 -1.18621094 10.576875 -1.18554688 9.84375 C-1.1568988 6.43144624 -1.06157986 3.26117332 0 0 Z " fill="#E9EEF4" transform="translate(11,44)"/>
<path d="M0 0 C1.65 0.33 3.3 0.66 5 1 C5 1.66 5 2.32 5 3 C5.66 3 6.32 3 7 3 C7 3.66 7 4.32 7 5 C5.68 5 4.36 5 3 5 C2.814375 6.6396875 2.814375 6.6396875 2.625 8.3125 C2 12 2 12 0 15 C0 14.34 0 13.68 0 13 C-0.66 13 -1.32 13 -2 13 C-1.71125 12.46375 -1.4225 11.9275 -1.125 11.375 C0.16711808 8.64719516 1.08558592 5.87387282 2 3 C1.34 3 0.68 3 0 3 C0 2.01 0 1.02 0 0 Z " fill="#B0D4E3" transform="translate(54,30)"/>
<path d="M0 0 C0.66 0.33 1.32 0.66 2 1 C2.1875 3.875 2.1875 3.875 2 7 C-1.22791555 9.1519437 -2.28400809 9.20086443 -6 9 C-4.47291037 5.56404834 -2.40072955 2.88087546 0 0 Z " fill="#2F0909" transform="translate(24,48)"/>
<path d="M0 0 C-0.6290625 0.36351563 -1.258125 0.72703125 -1.90625 1.1015625 C-7.55243063 4.41784329 -12.85618513 7.94816818 -18 12 C-16.57646476 8.66863403 -14.8664687 6.72335243 -12.125 4.375 C-11.44695313 3.78460937 -10.76890625 3.19421875 -10.0703125 2.5859375 C-6.48145021 -0.16326645 -4.44504168 -1.58751489 0 0 Z " fill="#9C8FB7" transform="translate(35,23)"/>
<path d="M0 0 C0.33 0.99 0.66 1.98 1 3 C1.66 3 2.32 3 3 3 C3 2.34 3 1.68 3 1 C3.99 1.33 4.98 1.66 6 2 C6.6875 4.0625 6.6875 4.0625 7 6 C3.26512223 5.5020163 1.18762365 5.12508244 -2 3 C-2 2.34 -2 1.68 -2 1 C-1.34 0.67 -0.68 0.34 0 0 Z " fill="#8FC2D2" transform="translate(18,66)"/>
<path d="M0 0 C5.28798182 0.41474367 8.11690718 1.35224614 12 5 C11.67 5.99 11.34 6.98 11 8 C9 6.625 9 6.625 7 5 C7 4.34 7 3.68 7 3 C5.35 3 3.7 3 2 3 C2 2.34 2 1.68 2 1 C1.34 0.67 0.68 0.34 0 0 Z " fill="#F4F5FB" transform="translate(49,23)"/>
<path d="M0 0 C0.33 1.32 0.66 2.64 1 4 C-5.28571429 9.42857143 -5.28571429 9.42857143 -9 11 C-7.55873214 7.63704165 -5.79407345 5.37072898 -3 3 C-2.01 3 -1.02 3 0 3 C0 2.01 0 1.02 0 0 Z " fill="#BBDFEA" transform="translate(51,48)"/>
<path d="M0 0 C0 0.66 0 1.32 0 2 C-1.76913824 2.22226864 -3.54044371 2.42733873 -5.3125 2.625 C-6.29863281 2.74101562 -7.28476562 2.85703125 -8.30078125 2.9765625 C-11 3 -11 3 -14 1 C-12.23103898 0.63659714 -10.45973374 0.28459117 -8.6875 -0.0625 C-7.70136719 -0.25972656 -6.71523438 -0.45695312 -5.69921875 -0.66015625 C-3 -1 -3 -1 0 0 Z " fill="#B4AAC8" transform="translate(46,20)"/>
<path d="M0 0 C0.33 0 0.66 0 1 0 C1.06058594 0.83144531 1.12117187 1.66289063 1.18359375 2.51953125 C1.26738281 3.60621094 1.35117188 4.69289063 1.4375 5.8125 C1.55931641 7.43091797 1.55931641 7.43091797 1.68359375 9.08203125 C1.90212461 12.05989905 1.90212461 12.05989905 3 15 C2.01 15 1.02 15 0 15 C-1.0024305 9.65370398 -0.84888195 5.37625234 0 0 Z " fill="#B1A8C7" transform="translate(9,52)"/>
<path d="M0 0 C0.721875 0.61875 1.44375 1.2375 2.1875 1.875 C4.78381938 3.83666353 6.94671666 4.95316 10 6 C10 6.33 10 6.66 10 7 C3.55192878 6.39169139 3.55192878 6.39169139 1.0625 4.625 C0 3 0 3 0 0 Z " fill="#8D7FAC" transform="translate(11,67)"/>
<path d="M0 0 C0.66 0.33 1.32 0.66 2 1 C2 1.99 2 2.98 2 4 C3.65 4.33 5.3 4.66 7 5 C6.67 5.66 6.34 6.32 6 7 C3.69 6.67 1.38 6.34 -1 6 C-1.33 4.35 -1.66 2.7 -2 1 C-1.34 0.67 -0.68 0.34 0 0 Z " fill="#F1F8FA" transform="translate(15,53)"/>
<path d="M0 0 C0 0.99 0 1.98 0 3 C-1.97746603 3.73080266 -3.98072489 4.39421747 -6 5 C-6.66 4.67 -7.32 4.34 -8 4 C-7.67 3.01 -7.34 2.02 -7 1 C-2.25 0 -2.25 0 0 0 Z " fill="#31181B" transform="translate(51,34)"/>
<path d="M0 0 C0 0.66 0 1.32 0 2 C0.99 1.67 1.98 1.34 3 1 C2.34 2.32 1.68 3.64 1 5 C-0.65 4.67 -2.3 4.34 -4 4 C-4.33 3.01 -4.66 2.02 -5 1 C-2 0 -2 0 0 0 Z " fill="#A7CFE0" transform="translate(34,64)"/>
<path d="M0 0 C0 0.66 0 1.32 0 2 C-4.455 3.485 -4.455 3.485 -9 5 C-8.67 4.01 -8.34 3.02 -8 2 C-5.27366306 0.89786379 -2.95855967 0 0 0 Z " fill="#6FA4B6" transform="translate(35,47)"/>
<path d="M0 0 C0.66 0 1.32 0 2 0 C1.67 2.97 1.34 5.94 1 9 C0.34 9 -0.32 9 -1 9 C-1.125 2.25 -1.125 2.25 0 0 Z " fill="#B3D7E3" transform="translate(12,52)"/>
<path d="M0 0 C0.33 0 0.66 0 1 0 C1 1.65 1 3.3 1 5 C1.66 5 2.32 5 3 5 C3 5.66 3 6.32 3 7 C1.68 7.33 0.36 7.66 -1 8 C-1.04241723 5.66705225 -1.04092937 3.33297433 -1 1 C-0.67 0.67 -0.34 0.34 0 0 Z " fill="#560A0A" transform="translate(42,33)"/>
</svg>
