<?xml version="1.0" encoding="UTF-8"?>
<svg version="1.1" xmlns="http://www.w3.org/2000/svg" width="75" height="100">
<path d="M0 0 C2.75 2.3125 2.75 2.3125 5 5 C5.763125 5.86625 6.52625 6.7325 7.3125 7.625 C10.75236199 14.50472398 9.39367687 21.3699034 7.375 28.5625 C3.17623214 40.91009607 -3.52515509 49.79942373 -15.1875 55.9375 C-18.8159777 57.60101747 -21.98003232 58.74340632 -26 59 C-26.67546875 59.05027344 -27.3509375 59.10054687 -28.046875 59.15234375 C-36.20445833 59.50396372 -43.67965869 57.29144854 -50 52 C-54.68817502 45.66462836 -55.62510211 39.55273484 -54.55859375 31.78515625 C-51.92292555 18.87791253 -46.58241654 10.95419482 -36 3 C-32.44110569 0.9332337 -28.87923035 -0.63782751 -25 -2 C-24.28972656 -2.25523438 -23.57945313 -2.51046875 -22.84765625 -2.7734375 C-15.20298357 -5.10468422 -6.99745984 -3.69821891 0 0 Z " fill="#F0CD14" transform="translate(59,20)"/>
<path d="M0 0 C2.75 2.3125 2.75 2.3125 5 5 C5.763125 5.86625 6.52625 6.7325 7.3125 7.625 C10.75236199 14.50472398 9.39367687 21.3699034 7.375 28.5625 C3.17623214 40.91009607 -3.52515509 49.79942373 -15.1875 55.9375 C-18.8159777 57.60101747 -21.98003232 58.74340632 -26 59 C-26.67546875 59.05027344 -27.3509375 59.10054687 -28.046875 59.15234375 C-36.20445833 59.50396372 -43.67965869 57.29144854 -50 52 C-54.68817502 45.66462836 -55.62510211 39.55273484 -54.55859375 31.78515625 C-51.92292555 18.87791253 -46.58241654 10.95419482 -36 3 C-32.44110569 0.9332337 -28.87923035 -0.63782751 -25 -2 C-24.28972656 -2.25523438 -23.57945313 -2.51046875 -22.84765625 -2.7734375 C-15.20298357 -5.10468422 -6.99745984 -3.69821891 0 0 Z M-33 7 C-33.86238281 7.63164062 -34.72476563 8.26328125 -35.61328125 8.9140625 C-41.99507043 14.11403887 -46.47092077 20.09233598 -49 28 C-48.74547569 30.27691283 -48.74547569 30.27691283 -48 32 C-47.01 32 -46.02 32 -45 32 C-45.165 32.721875 -45.33 33.44375 -45.5 34.1875 C-46.43821097 39.29929374 -46.43821097 39.29929374 -44.87109375 44.10546875 C-42.28136162 46.72764011 -40.43987297 46.59398396 -36.8125 46.75 C-35.72582031 46.80671875 -34.63914062 46.8634375 -33.51953125 46.921875 C-32.68808594 46.94765625 -31.85664063 46.9734375 -31 47 C-31 46.34 -31 45.68 -31 45 C-29.6696875 44.8453125 -29.6696875 44.8453125 -28.3125 44.6875 C-24.84394919 43.9676121 -22.91448784 42.96727929 -20 41 C-18.3603125 39.9790625 -18.3603125 39.9790625 -16.6875 38.9375 C-15.800625 38.298125 -14.91375 37.65875 -14 37 C-14 36.34 -14 35.68 -14 35 C-13.34 34.814375 -12.68 34.62875 -12 34.4375 C-7.73094732 32.39191226 -4.25836294 29.42815357 -1 26 C-1 25.34 -1 24.68 -1 24 C-0.34 24 0.32 24 1 24 C1 23.34 1 22.68 1 22 C1.66 22 2.32 22 3 22 C4.53597454 18.92805092 4.2265038 16.39755707 4 13 C2.54744166 8.7277696 0.37552448 5.43877727 -3.45703125 2.921875 C-13.09848835 -0.57333833 -24.82484168 1.00582195 -33 7 Z " fill="#B78125" transform="translate(59,20)"/>
<path d="M0 0 C3.19902811 1.88735371 5.49854509 4.13385061 7.375 7.375 C8.30905974 11.29805092 8.84413855 15.3117229 7 19 C6.34 19 5.68 19 5 19 C5 19.66 5 20.32 5 21 C4.34 21 3.68 21 3 21 C2.7525 21.61875 2.505 22.2375 2.25 22.875 C0.75608298 25.41465893 -0.21539622 26.09909878 -3 27 C-5.25 26.625 -5.25 26.625 -7 26 C-7.66 26.99 -8.32 27.98 -9 29 C-11.625 29.1875 -11.625 29.1875 -14 29 C-14 28.34 -14 27.68 -14 27 C-20.74378654 30.14982478 -20.74378654 30.14982478 -26.875 34.3125 C-29 36 -29 36 -33 36 C-33 35.01 -33 34.02 -33 33 C-30.8125 31.17578125 -30.8125 31.17578125 -28 29.3125 C-27.071875 28.68988281 -26.14375 28.06726563 -25.1875 27.42578125 C-24.465625 26.95527344 -23.74375 26.48476563 -23 26 C-24.68152073 22.25979502 -26.69039473 20.43865652 -30 18 C-29.70494708 14.86681903 -29.0347585 14.03000327 -26.6015625 11.9296875 C-25.12816406 10.91261719 -25.12816406 10.91261719 -23.625 9.875 C-22.64789063 9.19179688 -21.67078125 8.50859375 -20.6640625 7.8046875 C-15.03948577 3.99449036 -15.03948577 3.99449036 -12.3125 4.375 C-11.549375 4.58125 -10.78625 4.7875 -10 5 C-10.33 3.68 -10.66 2.36 -11 1 C-7.1993633 -1.58443296 -4.34103224 -1.12268075 0 0 Z " fill="#ECB913" transform="translate(55,23)"/>
<path d="M0 0 C2.75 2.3125 2.75 2.3125 5 5 C5.763125 5.86625 6.52625 6.7325 7.3125 7.625 C10.75236199 14.50472398 9.39367687 21.3699034 7.375 28.5625 C3.17623214 40.91009607 -3.52515509 49.79942373 -15.1875 55.9375 C-18.8159777 57.60101747 -21.98003232 58.74340632 -26 59 C-26.67546875 59.05027344 -27.3509375 59.10054687 -28.046875 59.15234375 C-36.20445833 59.50396372 -43.67965869 57.29144854 -50 52 C-54.68817502 45.66462836 -55.62510211 39.55273484 -54.55859375 31.78515625 C-51.92292555 18.87791253 -46.58241654 10.95419482 -36 3 C-32.44110569 0.9332337 -28.87923035 -0.63782751 -25 -2 C-24.28972656 -2.25523438 -23.57945313 -2.51046875 -22.84765625 -2.7734375 C-15.20298357 -5.10468422 -6.99745984 -3.69821891 0 0 Z M-29 3 C-29.70382813 3.4021875 -30.40765625 3.804375 -31.1328125 4.21875 C-39.52973681 9.34229704 -47.4925791 17.22531239 -50.58203125 26.8046875 C-52.02073864 34.36126278 -52.0238148 42.33989274 -48 49 C-44.35122865 53.19608705 -42.19389716 54.8238844 -36.59375 55.2734375 C-27.60944238 55.58894732 -20.84656044 54.8335838 -13 50 C-12.27296875 49.56558594 -11.5459375 49.13117188 -10.796875 48.68359375 C-0.98594183 42.11176638 3.50664312 32.24223635 6 21 C6.77892438 15.06070159 5.28151701 10.89031269 2 6 C-3.09118528 1.03935794 -7.86040894 -0.28947618 -14.875 -0.3125 C-20.32679766 -0.21605821 -24.22057115 0.18857126 -29 3 Z " fill="#FCE6C0" transform="translate(59,20)"/>
<path d="M0 0 C1.28775891 2.9655248 0.9642958 4.0993666 -0.15234375 7.20703125 C-0.72835584 8.41809499 -1.32454446 9.61970881 -1.9375 10.8125 C-2.2581543 11.43761475 -2.57880859 12.06272949 -2.90917969 12.70678711 C-8.18675369 22.49686569 -16.5115466 27.41443661 -27.0390625 30.62109375 C-29.26539846 31.05128217 -31.35789752 31.16854429 -33.625 31.1875 C-34.78902344 31.20876953 -34.78902344 31.20876953 -35.9765625 31.23046875 C-38 31 -38 31 -40 29 C-36.37 29 -32.74 29 -29 29 C-28.67 27.68 -28.34 26.36 -28 25 C-26.55712891 23.67553711 -26.55712891 23.67553711 -24.7265625 22.52734375 C-24.0665625 22.10259766 -23.4065625 21.67785156 -22.7265625 21.24023438 C-22.03304687 20.81033203 -21.33953125 20.38042969 -20.625 19.9375 C-19.26102579 19.07476067 -17.89897529 18.2089709 -16.5390625 17.33984375 C-15.93271973 16.96206787 -15.32637695 16.58429199 -14.70166016 16.19506836 C-12.92936125 15.03805536 -12.92936125 15.03805536 -11.46630859 13.35375977 C-10 12 -10 12 -7 12 C-6.67 10.68 -6.34 9.36 -6 8 C-5.34 8 -4.68 8 -4 8 C-4 7.01 -4 6.02 -4 5 C-3.34 5 -2.68 5 -2 5 C-2 4.01 -2 3.02 -2 2 C-1.34 2 -0.68 2 0 2 C0 1.34 0 0.68 0 0 Z " fill="#EAA3EB" transform="translate(61,43)"/>
<path d="M0 0 C4.8251953 3.75292968 7.17360261 8.21694588 7.921875 14.203125 C7.51002848 25.32298092 2.33827102 35.60549315 -5.5546875 43.234375 C-14.49337729 50.68854741 -23.25892949 53.08456159 -34.78125 52.59375 C-39.51552954 52.09010324 -41.89021022 51.33153797 -45.453125 48.203125 C-46.390625 45.953125 -46.390625 45.953125 -46.453125 44.203125 C-45.40125 44.821875 -44.349375 45.440625 -43.265625 46.078125 C-36.27301786 50.01408351 -30.70293223 51.53448822 -22.7421875 49.515625 C-12.27688129 45.99787501 -4.60281433 41.15814754 0.546875 31.203125 C4.33690007 23.12718372 6.30935431 15.49056294 3.421875 6.828125 C1.10030562 3.57792787 -0.94709153 2.13345837 -4.453125 0.203125 C-7.37381212 -0.2153529 -9.79923564 -0.41906173 -12.703125 -0.359375 C-13.45529297 -0.34841797 -14.20746094 -0.33746094 -14.98242188 -0.32617188 C-26.0006086 0.10088963 -32.76724011 5.72145444 -40.453125 13.203125 C-40.453125 10.203125 -40.453125 10.203125 -38.73046875 8.30078125 C-28.0435084 -0.99455488 -13.86092617 -8.41133127 0 0 Z " fill="#9C702B" transform="translate(57.453125,22.796875)"/>
<path d="M0 0 C-0.34485543 2.8842454 -0.78255407 3.8207818 -3.06640625 5.703125 C-3.89011719 6.21359375 -4.71382812 6.7240625 -5.5625 7.25 C-6.80193359 8.03117187 -6.80193359 8.03117187 -8.06640625 8.828125 C-8.70449219 9.21484375 -9.34257813 9.6015625 -10 10 C-8.58774766 13.03242639 -8.58774766 13.03242639 -6.3125 15.4375 C-5 17 -5 17 -5.0859375 19.328125 C-6.33060691 22.96638944 -8.19384442 24.11911442 -11.3125 26.3125 C-12.27800781 27.00988281 -13.24351563 27.70726563 -14.23828125 28.42578125 C-17 30 -17 30 -21 30 C-21 29.01 -21 28.02 -21 27 C-18.8125 25.17578125 -18.8125 25.17578125 -16 23.3125 C-15.071875 22.68988281 -14.14375 22.06726563 -13.1875 21.42578125 C-12.465625 20.95527344 -11.74375 20.48476563 -11 20 C-12.41791563 17.06553114 -13.98332607 14.56667591 -16 12 C-14.47317422 7.98869439 -11.9985939 6.21413108 -8.5625 3.75 C-7.59441406 3.04359375 -6.62632813 2.3371875 -5.62890625 1.609375 C-3 0 -3 0 0 0 Z " fill="#521816" transform="translate(43,29)"/>
<path d="M0 0 C0.495 1.485 0.495 1.485 1 3 C0.34 3 -0.32 3 -1 3 C-1 3.66 -1 4.32 -1 5 C-1.66 5 -2.32 5 -3 5 C-3 5.99 -3 6.98 -3 8 C-3.66 8 -4.32 8 -5 8 C-5 8.99 -5 9.98 -5 11 C-5.66 11 -6.32 11 -7 11 C-7.0928125 11.8971875 -7.0928125 11.8971875 -7.1875 12.8125 C-8.33285916 15.89615928 -10.17559961 16.36856313 -13 18 C-14.84609462 19.31560766 -16.67913188 20.6496933 -18.5 22 C-21.21511743 24.01345787 -23.83297428 25.90616532 -26.78125 27.5625 C-29.3029888 28.86856792 -29.3029888 28.86856792 -30 32 C-42.66970387 33.70159453 -42.66970387 33.70159453 -48 30 C-48 29.67 -48 29.34 -48 29 C-46.22882812 28.97873047 -46.22882812 28.97873047 -44.421875 28.95703125 C-42.86454458 28.91012371 -41.3072541 28.86187635 -39.75 28.8125 C-38.97269531 28.80669922 -38.19539063 28.80089844 -37.39453125 28.79492188 C-32.48976829 28.64820113 -32.48976829 28.64820113 -28.734375 25.640625 C-28.16203125 24.76921875 -27.5896875 23.8978125 -27 23 C-24.78125 21.33984375 -24.78125 21.33984375 -22.5 19.9375 C-19.2167577 17.90796152 -16.70476136 15.74677707 -14 13 C-11.67492903 11.14775859 -9.30425713 9.36882122 -6.92578125 7.5859375 C-4.89826707 6.13498287 -4.89826707 6.13498287 -4 4 C-3.34 4 -2.68 4 -2 4 C-2 3.34 -2 2.68 -2 2 C-1.34 2 -0.68 2 0 2 C0 1.34 0 0.68 0 0 Z " fill="#CD878A" transform="translate(62,40)"/>
<path d="M0 0 C3.80862562 3.68576673 5.16471803 5.500127 5.3125 10.8125 C5.17686897 22.32606729 0.82918684 33.96483483 -7.2109375 42.2890625 C-10.88923808 45.64963612 -14.55494086 48.69981133 -19 51 C-19.66 50.67 -20.32 50.34 -21 50 C-20.22914062 49.45730469 -19.45828125 48.91460937 -18.6640625 48.35546875 C-17.15972656 47.28232422 -17.15972656 47.28232422 -15.625 46.1875 C-14.62726562 45.47980469 -13.62953125 44.77210937 -12.6015625 44.04296875 C-9.83319352 42.08757661 -9.83319352 42.08757661 -8 39 C-7.34 39 -6.68 39 -6 39 C-5.9175 38.01 -5.835 37.02 -5.75 36 C-5.33266709 32.99399336 -4.48705346 30.73684758 -3.0625 28.0625 C1.21350713 19.91476277 1.53429519 12.08301815 1 3 C0.67 2.01 0.34 1.02 0 0 Z " fill="#FBE3BC" transform="translate(63,25)"/>
<path d="M0 0 C1.32 0 2.64 0 4 0 C3.61402985 2.79828356 3.19863427 3.8205884 1.0625 5.75 C-1 7 -1 7 -3 7 C-3.33 7.99 -3.66 8.98 -4 10 C-8.99740142 13.71899641 -13.67418164 17 -20 17 C-20 17.66 -20 18.32 -20 19 C-23.96 18.67 -27.92 18.34 -32 18 C-32 17.67 -32 17.34 -32 17 C-30.906875 16.9175 -29.81375 16.835 -28.6875 16.75 C-24.96723336 16.36310791 -24.96723336 16.36310791 -23.0625 13.9375 C-22.711875 13.298125 -22.36125 12.65875 -22 12 C-19.03 12.495 -19.03 12.495 -16 13 C-16 12.34 -16 11.68 -16 11 C-13.4453125 9.2734375 -13.4453125 9.2734375 -10.125 7.375 C-9.03445312 6.74335937 -7.94390625 6.11171875 -6.8203125 5.4609375 C-4 4 -4 4 -2 4 C-1.34 2.68 -0.68 1.36 0 0 Z " fill="#EAC825" transform="translate(48,48)"/>
<path d="M0 0 C2.80655613 2.80655613 2.98666573 4.61997321 3.125 8.5625 C3 12 3 12 2 14 C1.34 14 0.68 14 0 14 C0 14.66 0 15.32 0 16 C-0.66 16 -1.32 16 -2 16 C-2.2475 16.61875 -2.495 17.2375 -2.75 17.875 C-4.20628639 20.35068687 -5.37812506 20.95125002 -8 22 C-8.33 20.35 -8.66 18.7 -9 17 C-8.01 17 -7.02 17 -6 17 C-6 16.34 -6 15.68 -6 15 C-6.66 15 -7.32 15 -8 15 C-7.690625 14.443125 -7.38125 13.88625 -7.0625 13.3125 C-5.23412412 9.33309368 -4.59929387 6.20211839 -6 2 C-4.02 2 -2.04 2 0 2 C0 1.34 0 0.68 0 0 Z " fill="#E0AA13" transform="translate(60,28)"/>
<path d="M0 0 C-0.495 0.433125 -0.99 0.86625 -1.5 1.3125 C-3.33218192 2.99740483 -3.33218192 2.99740483 -3 6 C-3.99 5.67 -4.98 5.34 -6 5 C-6.33 4.01 -6.66 3.02 -7 2 C-9.93443402 2.26656572 -9.93443402 2.26656572 -13 3 C-13.99 4.485 -13.99 4.485 -15 6 C-16.32 6 -17.64 6 -19 6 C-19 6.66 -19 7.32 -19 8 C-20.32 8 -21.64 8 -23 8 C-23.09925781 8.6084375 -23.19851562 9.216875 -23.30078125 9.84375 C-24.14428314 12.44494019 -24.96942459 12.97231892 -27.1875 14.5 C-32.24912654 18.53675175 -34.43602802 24.19584365 -37 30 C-38.05874641 27.2985925 -38.034724 26.10857142 -37.13671875 23.30078125 C-32.15472685 13.02794081 -25.11189534 5.65115197 -14.671875 0.796875 C-9.82814814 -0.64774529 -4.99543244 -0.38624478 0 0 Z " fill="#F3E5A5" transform="translate(48,22)"/>
<path d="M0 0 C0.66 0.33 1.32 0.66 2 1 C-0.4080517 11.77889809 -5.56997434 20.08961686 -14.640625 26.52734375 C-23.7153726 32.19154879 -32.51174626 33.11577167 -43 32 C-46.17709656 31.04492189 -47.45840119 30.23164773 -50 28 C-50.9375 25.75 -50.9375 25.75 -51 24 C-49.948125 24.61875 -48.89625 25.2375 -47.8125 25.875 C-40.81989286 29.81095851 -35.24980723 31.33136322 -27.2890625 29.3125 C-16.87074483 25.81054448 -9.07552158 20.96591776 -4 11 C-2.49919721 7.38124188 -1.18620152 3.73304597 0 0 Z " fill="#A16F6B" transform="translate(62,43)"/>
<path d="M0 0 C1.34936069 3.03227121 0.94741647 4.13848084 -0.2578125 7.3125 C-0.8675951 8.54797256 -1.49049394 9.77704075 -2.125 11 C-2.42148437 11.61617187 -2.71796875 12.23234375 -3.0234375 12.8671875 C-5.07608053 16.92028771 -7.275366 19.42239861 -11 22 C-11 21.01 -11 20.02 -11 19 C-13.97 19.66 -16.94 20.32 -20 21 C-16.84538104 17.72404954 -13.60820469 14.76373125 -10 12 C-9.01 12 -8.02 12 -7 12 C-6.67 10.68 -6.34 9.36 -6 8 C-5.34 8 -4.68 8 -4 8 C-4 7.01 -4 6.02 -4 5 C-3.34 5 -2.68 5 -2 5 C-2 4.01 -2 3.02 -2 2 C-1.34 2 -0.68 2 0 2 C0 1.34 0 0.68 0 0 Z " fill="#DB8FDB" transform="translate(61,43)"/>
<path d="M0 0 C1.10794922 -0.04350586 1.10794922 -0.04350586 2.23828125 -0.08789062 C7.88705987 -0.15264735 11.11580894 1.05620057 15.75 4.3125 C18.50057507 8.39399849 19.09849021 11.4336371 18.75 16.3125 C16.75 14.3125 16.75 14.3125 15.5 11.4375 C12.95601396 6.89466778 9.62240901 4.93663634 4.75 3.3125 C3.34175107 3.23228001 1.93002769 3.20484023 0.51953125 3.21484375 C-0.68413086 3.21967773 -0.68413086 3.21967773 -1.91210938 3.22460938 C-2.74548828 3.23298828 -3.57886719 3.24136719 -4.4375 3.25 C-5.7049707 3.25676758 -5.7049707 3.25676758 -6.99804688 3.26367188 C-9.08206155 3.27544597 -11.16603977 3.2933811 -13.25 3.3125 C-9.49188262 -0.44561738 -5.00526333 0.06417004 0 0 Z " fill="#F9DFB3" transform="translate(46.25,17.6875)"/>
<path d="M0 0 C0.495 1.485 0.495 1.485 1 3 C-2.96954957 9.50950611 -10.01196064 15.74317118 -17.48046875 17.625 C-23.09117245 18.32090123 -28.4257234 17.80916918 -34 17 C-34 16.67 -34 16.34 -34 16 C-33.26136719 15.98582031 -32.52273437 15.97164062 -31.76171875 15.95703125 C-20.6257283 15.43348405 -11.24826208 11.60629829 -3 4 C-1.96915965 2.69036419 -0.96067864 1.36193771 0 0 Z " fill="#F3D1A3" transform="translate(57,59)"/>
<path d="M0 0 C0 0.99 0 1.98 0 3 C0.61875 3.12375 1.2375 3.2475 1.875 3.375 C5.16657884 4.34311142 6.11239022 6.16858533 8 9 C7.67 9.99 7.34 10.98 7 12 C5.68 11.34 4.36 10.68 3 10 C2.34 10.66 1.68 11.32 1 12 C-0.19959375 10.74057614 -1.38439443 9.46704714 -2.5625 8.1875 C-3.55443359 7.12595703 -3.55443359 7.12595703 -4.56640625 6.04296875 C-5.03949219 5.36878906 -5.51257812 4.69460937 -6 4 C-5.67 3.01 -5.34 2.02 -5 1 C-3 0 -3 0 0 0 Z " fill="#F3D211" transform="translate(38,37)"/>
<path d="M0 0 C0.66 0 1.32 0 2 0 C2 0.66 2 1.32 2 2 C2.99 2 3.98 2 5 2 C5 3.65 5 5.3 5 7 C4.34 7 3.68 7 3 7 C3 7.66 3 8.32 3 9 C2.34 9 1.68 9 1 9 C0.7525 9.61875 0.505 10.2375 0.25 10.875 C-1.20628639 13.35068687 -2.37812506 13.95125002 -5 15 C-5.33 13.35 -5.66 11.7 -6 10 C-4.68 10 -3.36 10 -2 10 C-1.34 6.7 -0.68 3.4 0 0 Z " fill="#B76E22" transform="translate(57,35)"/>
<path d="M0 0 C0.66 0 1.32 0 2 0 C2 1.65 2 3.3 2 5 C2.66 5 3.32 5 4 5 C2.6190998 8.33717549 1.1798762 10.22301036 -2 12 C-4.25 11.6875 -4.25 11.6875 -6 11 C-4.54997977 6.89160936 -2.6020866 3.49655387 0 0 Z " fill="#F8CE23" transform="translate(18,38)"/>
<path d="M0 0 C0 0.99 0 1.98 0 3 C-0.66 3 -1.32 3 -2 3 C-2.33 3.99 -2.66 4.98 -3 6 C-8.94 6 -14.88 6 -21 6 C-18 3 -18 3 -15.58984375 2.671875 C-14.71457031 2.69765625 -13.83929687 2.7234375 -12.9375 2.75 C-12.05964844 2.76546875 -11.18179687 2.7809375 -10.27734375 2.796875 C-8 3 -8 3 -6 4 C-6 3.34 -6 2.68 -6 2 C-4.02 1.34 -2.04 0.68 0 0 Z " fill="#CF8D32" transform="translate(34,63)"/>
<path d="M0 0 C1 3 1 3 0.1015625 5.19921875 C-4.65133283 13.20872755 -10.63711652 19.67245131 -19 24 C-19.66 23.67 -20.32 23.34 -21 23 C-20.22914062 22.45730469 -19.45828125 21.91460937 -18.6640625 21.35546875 C-17.66117188 20.64003906 -16.65828125 19.92460938 -15.625 19.1875 C-14.62726562 18.47980469 -13.62953125 17.77210937 -12.6015625 17.04296875 C-9.83319352 15.08757661 -9.83319352 15.08757661 -8 12 C-7.34 12 -6.68 12 -6 12 C-5.34 10.02 -4.68 8.04 -4 6 C-3.34 6 -2.68 6 -2 6 C-1.34 4.02 -0.68 2.04 0 0 Z " fill="#FEECCD" transform="translate(63,52)"/>
<path d="M0 0 C0.33 0.66 0.66 1.32 1 2 C-0.58941406 2.97839844 -0.58941406 2.97839844 -2.2109375 3.9765625 C-3.59951604 4.85849752 -4.98750644 5.74135903 -6.375 6.625 C-7.42300781 7.26501953 -7.42300781 7.26501953 -8.4921875 7.91796875 C-12.03084356 10.19767987 -13.72885554 11.38741436 -15.4765625 15.3359375 C-15.64929688 16.21507813 -15.82203125 17.09421875 -16 18 C-17.5625 16.75 -17.5625 16.75 -19 15 C-19.125 13.0625 -19.125 13.0625 -18 11 C-16.40015676 10.00009798 -14.78734148 9.01448802 -13.11328125 8.14453125 C-9.90165022 6.40514513 -6.93594804 4.32134161 -3.91796875 2.26953125 C-2 1 -2 1 0 0 Z " fill="#F9D613" transform="translate(41,25)"/>
<path d="M0 0 C5.29397231 0.30542148 8.13397287 1.36827755 12 5 C11.67 5.99 11.34 6.98 11 8 C10.401875 7.835 9.80375 7.67 9.1875 7.5 C6.88655664 6.8885876 6.88655664 6.8885876 4 7 C2.0750353 5.17806158 0.62464469 3.10764717 -1 1 C-0.67 0.67 -0.34 0.34 0 0 Z " fill="#F4CE14" transform="translate(48,22)"/>
<path d="M0 0 C0.54269531 0.39445312 1.08539063 0.78890625 1.64453125 1.1953125 C0.02282746 2.20064917 -1.60294112 3.19943157 -3.23046875 4.1953125 C-4.13539062 4.7521875 -5.0403125 5.3090625 -5.97265625 5.8828125 C-8.35546875 7.1953125 -8.35546875 7.1953125 -10.35546875 7.1953125 C-10.35546875 7.8553125 -10.35546875 8.5153125 -10.35546875 9.1953125 C-11.67546875 9.5253125 -12.99546875 9.8553125 -14.35546875 10.1953125 C-14.05856126 7.08814112 -13.42841493 6.25680432 -10.9921875 4.203125 C-10.01894531 3.58179688 -9.04570313 2.96046875 -8.04296875 2.3203125 C-7.07746094 1.68351562 -6.11195312 1.04671875 -5.1171875 0.390625 C-2.35546875 -0.8046875 -2.35546875 -0.8046875 0 0 Z " fill="#EED016" transform="translate(42.35546875,51.8046875)"/>
<path d="M0 0 C0.33 0.99 0.66 1.98 1 3 C0.34 3 -0.32 3 -1 3 C-1 3.66 -1 4.32 -1 5 C-1.66 5 -2.32 5 -3 5 C-3 5.99 -3 6.98 -3 8 C-3.66 8 -4.32 8 -5 8 C-5 8.99 -5 9.98 -5 11 C-7.08203125 12.60546875 -7.08203125 12.60546875 -9.8125 14.1875 C-10.70582031 14.71730469 -11.59914063 15.24710938 -12.51953125 15.79296875 C-15 17 -15 17 -18 17 C-14.57508603 13.44185139 -10.86881233 10.54159746 -6.92578125 7.5859375 C-4.89826707 6.13498287 -4.89826707 6.13498287 -4 4 C-3.34 4 -2.68 4 -2 4 C-2 3.34 -2 2.68 -2 2 C-1.34 2 -0.68 2 0 2 C0 1.34 0 0.68 0 0 Z " fill="#CC866D" transform="translate(62,40)"/>
<path d="M0 0 C0.8971875 0.309375 0.8971875 0.309375 1.8125 0.625 C1.4825 1.615 1.1525 2.605 0.8125 3.625 C0.8125 2.965 0.8125 2.305 0.8125 1.625 C-4.74567861 4.0477958 -9.84434627 7.37328109 -14.1875 11.625 C-14.9940791 13.74226784 -14.9940791 13.74226784 -15.1875 15.625 C-15.8475 14.965 -16.5075 14.305 -17.1875 13.625 C-17.1484375 11.7578125 -17.1484375 11.7578125 -16.1875 9.625 C-13.7890625 7.5546875 -13.7890625 7.5546875 -10.8125 5.5 C-9.83539063 4.81679688 -8.85828125 4.13359375 -7.8515625 3.4296875 C-2.22550217 -0.38151466 -2.22550217 -0.38151466 0 0 Z " fill="#B6650E" transform="translate(42.1875,27.375)"/>
<path d="M0 0 C0.66 0 1.32 0 2 0 C5 3.46153846 5 3.46153846 5 6 C2.8828125 7.7265625 2.8828125 7.7265625 0.125 9.625 C-0.77992187 10.25664063 -1.68484375 10.88828125 -2.6171875 11.5390625 C-5 13 -5 13 -7 13 C-7.33 13.66 -7.66 14.32 -8 15 C-7.61177951 12.45742918 -7.27568599 11.25849694 -5.37109375 9.47265625 C-4.73300781 9.00730469 -4.09492188 8.54195312 -3.4375 8.0625 C-0.44150676 5.76187149 -0.44150676 5.76187149 0.4375 2.125 C0.293125 1.42375 0.14875 0.7225 0 0 Z " fill="#F9D711" transform="translate(26,43)"/>
<path d="M0 0 C1.051875 0.61875 2.10375 1.2375 3.1875 1.875 C9.49610257 5.43144328 14.8025552 6.4689264 22 7 C22 7.33 22 7.66 22 8 C6.69080861 8.76439791 6.69080861 8.76439791 1 4 C0.0625 1.75 0.0625 1.75 0 0 Z " fill="#956155" transform="translate(11,67)"/>
<path d="M0 0 C0.66 0.33 1.32 0.66 2 1 C2 1.99 2 2.98 2 4 C2.99 4 3.98 4 5 4 C4.1875 5.9375 4.1875 5.9375 3 8 C2.01 8.33 1.02 8.66 0 9 C0 8.01 0 7.02 0 6 C-1.65 6.66 -3.3 7.32 -5 8 C-5 7.34 -5 6.68 -5 6 C-4.01 5.34 -3.02 4.68 -2 4 C-0.80767387 1.94996045 -0.80767387 1.94996045 0 0 Z " fill="#F7D011" transform="translate(45,27)"/>
<path d="M0 0 C0.33 0 0.66 0 1 0 C1.33 6.6 1.66 13.2 2 20 C1.01 19.67 0.02 19.34 -1 19 C-1.02705308 16.58325776 -1.04686438 14.1668206 -1.0625 11.75 C-1.07087891 11.06808594 -1.07925781 10.38617188 -1.08789062 9.68359375 C-1.10428392 6.30657446 -1.05628768 3.22708361 0 0 Z " fill="#F7DAA7" transform="translate(7,46)"/>
<path d="M0 0 C1.65 1.32 3.3 2.64 5 4 C3.51697598 8.44907205 -0.08285501 10.74579392 -4 13 C-4.66 13 -5.32 13 -6 13 C-6.33 13.99 -6.66 14.98 -7 16 C-7.33 15.01 -7.66 14.02 -8 13 C-6.54634731 11.82750647 -5.08692581 10.66216184 -3.625 9.5 C-2.81289063 8.8503125 -2.00078125 8.200625 -1.1640625 7.53125 C1 6 1 6 3 6 C2.2575 5.071875 2.2575 5.071875 1.5 4.125 C0 2 0 2 0 0 Z " fill="#B8660D" transform="translate(28,43)"/>
<path d="M0 0 C1.09570312 0.00902344 2.19140625 0.01804687 3.3203125 0.02734375 C4.16335937 0.03894531 5.00640625 0.05054687 5.875 0.0625 C5.38 0.495625 4.885 0.92875 4.375 1.375 C2.54281808 3.05990483 2.54281808 3.05990483 2.875 6.0625 C1.885 5.7325 0.895 5.4025 -0.125 5.0625 C-0.455 4.0725 -0.785 3.0825 -1.125 2.0625 C-3.435 2.3925 -5.745 2.7225 -8.125 3.0625 C-8.125 2.4025 -8.125 1.7425 -8.125 1.0625 C-5.36047967 -0.31976016 -3.0788637 -0.03275387 0 0 Z " fill="#F5E293" transform="translate(42.125,21.9375)"/>
<path d="M0 0 C0.33 0.99 0.66 1.98 1 3 C-0.29296875 4.97265625 -0.29296875 4.97265625 -2.1875 7.0625 C-2.79980469 7.75472656 -3.41210938 8.44695312 -4.04296875 9.16015625 C-5.95147843 10.95438391 -7.60631797 11.9756527 -10 13 C-8.60004691 8.10016418 -5.91794204 6.10170412 -2 3 C-1.34 2.01 -0.68 1.02 0 0 Z " fill="#FADAA5" transform="translate(57,59)"/>
<path d="M0 0 C0.66 0 1.32 0 2 0 C2 0.66 2 1.32 2 2 C2.66 2 3.32 2 4 2 C4 2.66 4 3.32 4 4 C2.68 4 1.36 4 0 4 C-0.185625 5.6396875 -0.185625 5.6396875 -0.375 7.3125 C-1 11 -1 11 -3 14 C-3 13.34 -3 12.68 -3 12 C-3.66 12 -4.32 12 -5 12 C-4.71125 11.443125 -4.4225 10.88625 -4.125 10.3125 C-2.9586747 7.91505355 -1.9660119 5.48403061 -1 3 C-0.34 3 0.32 3 1 3 C0.67 2.01 0.34 1.02 0 0 Z " fill="#D99D11" transform="translate(57,31)"/>
<path d="M0 0 C0 0.99 0 1.98 0 3 C-0.66 3 -1.32 3 -2 3 C-2.33 3.99 -2.66 4.98 -3 6 C-5.64 6 -8.28 6 -11 6 C-8 4 -8 4 -6 4 C-6 3.34 -6 2.68 -6 2 C-4.02 1.34 -2.04 0.68 0 0 Z " fill="#D0925B" transform="translate(34,63)"/>
<path d="M0 0 C0 0.66 0 1.32 0 2 C-2.5614657 4.29648649 -3.47967572 5 -7 5 C-7.66 6.32 -8.32 7.64 -9 9 C-9.33 8.01 -9.66 7.02 -10 6 C-4.30769231 0 -4.30769231 0 0 0 Z " fill="#EDB714" transform="translate(30,31)"/>
<path d="M0 0 C0 0.33 0 0.66 0 1 C-1.22976562 1.09087891 -1.22976562 1.09087891 -2.484375 1.18359375 C-4.10085937 1.30927734 -4.10085937 1.30927734 -5.75 1.4375 C-7.35101563 1.55931641 -7.35101563 1.55931641 -8.984375 1.68359375 C-11.43679962 1.94090773 -13.63921291 2.31812218 -16 3 C-16.33 2.34 -16.66 1.68 -17 1 C-11.2364368 -1.64812363 -6.09067424 -0.8019749 0 0 Z " fill="#AB843F" transform="translate(48,21)"/>
<path d="M0 0 C0.33 0.99 0.66 1.98 1 3 C-3.75 7 -3.75 7 -6 7 C-6.33 7.99 -6.66 8.98 -7 10 C-7.66 10 -8.32 10 -9 10 C-7.61811547 6.78956118 -6.07578097 4.95063635 -3.375 2.75 C-2.74335937 2.22921875 -2.11171875 1.7084375 -1.4609375 1.171875 C-0.73777344 0.59179688 -0.73777344 0.59179688 0 0 Z " fill="#DEAB3D" transform="translate(51,48)"/>
<path d="M0 0 C0.66 0 1.32 0 2 0 C1.34 1.98 0.68 3.96 0 6 C-3.3 6 -6.6 6 -10 6 C-10 5.67 -10 5.34 -10 5 C-8.906875 4.9175 -7.81375 4.835 -6.6875 4.75 C-2.96556057 4.37989701 -2.96556057 4.37989701 -1.1875 1.9375 C-0.795625 1.298125 -0.40375 0.65875 0 0 Z " fill="#E6BE1C" transform="translate(26,60)"/>
<path d="M0 0 C-3.5087188 3.09592835 -6.49197399 4.74194623 -11 6 C-11 5.01 -11 4.02 -11 3 C-9.35 2.67 -7.7 2.34 -6 2 C-6 1.34 -6 0.68 -6 0 C-3 -1 -3 -1 0 0 Z " fill="#DDAD43" transform="translate(42,59)"/>
<path d="M0 0 C-1.65 0.33 -3.3 0.66 -5 1 C-5 1.99 -5 2.98 -5 4 C-5.99 4 -6.98 4 -8 4 C-8 4.66 -8 5.32 -8 6 C-8.66 6 -9.32 6 -10 6 C-10 4.68 -10 3.36 -10 2 C-3.375 -1.125 -3.375 -1.125 0 0 Z " fill="#E7C22D" transform="translate(36,61)"/>
<path d="M0 0 C1.98 0 3.96 0 6 0 C2.53258866 2.95749791 -0.86873527 5.07848152 -5 7 C-4.34 5.68 -3.68 4.36 -3 3 C-2.01 3 -1.02 3 0 3 C0 2.01 0 1.02 0 0 Z " fill="#F5D8A6" transform="translate(27,21)"/>
<path d="M0 0 C0.33 0.66 0.66 1.32 1 2 C1.66 2 2.32 2 3 2 C2.67 4.97 2.34 7.94 2 11 C-0.14208427 7.7868736 -0.59687808 5.78934603 -1 2 C-0.67 1.34 -0.34 0.68 0 0 Z " fill="#DBA417" transform="translate(11,50)"/>
<path d="M0 0 C2.475 0.99 2.475 0.99 5 2 C4.67 3.32 4.34 4.64 4 6 C2.02 6 0.04 6 -2 6 C-1.67 5.38125 -1.34 4.7625 -1 4.125 C0.14193235 2.08981656 0.14193235 2.08981656 0 0 Z " fill="#CB940F" transform="translate(39,45)"/>
<path d="M0 0 C0.66 0.99 1.32 1.98 2 3 C0.35 6.3 -1.3 9.6 -3 13 C-4.08644535 8.6542186 -3.90680911 8.05039452 -2.0625 4.25 C-1.68222656 3.45078125 -1.30195313 2.6515625 -0.91015625 1.828125 C-0.60980469 1.22484375 -0.30945313 0.6215625 0 0 Z " fill="#F4DD96" transform="translate(14,39)"/>
<path d="M0 0 C0.66 0.33 1.32 0.66 2 1 C0.61423347 3.77153305 -1.34131141 4.48074938 -4 6 C-4.99 6.66 -5.98 7.32 -7 8 C-6.875 6.25 -6.875 6.25 -6 4 C-2.9375 1.75 -2.9375 1.75 0 0 Z " fill="#CE849C" transform="translate(53,52)"/>
<path d="M0 0 C0.625 1.8125 0.625 1.8125 1 4 C0.01 5.485 0.01 5.485 -1 7 C-1.66 6.67 -2.32 6.34 -3 6 C-3 6.99 -3 7.98 -3 9 C-3.99 8.67 -4.98 8.34 -6 8 C-5.34 8 -4.68 8 -4 8 C-4 7.01 -4 6.02 -4 5 C-3.34 5 -2.68 5 -2 5 C-2 4.01 -2 3.02 -2 2 C-1.34 2 -0.68 2 0 2 C0 1.34 0 0.68 0 0 Z " fill="#D88CC8" transform="translate(61,43)"/>
<path d="M0 0 C0 0.66 0 1.32 0 2 C-0.61875 2.2475 -1.2375 2.495 -1.875 2.75 C-4.35068687 4.20628639 -4.95125002 5.37812506 -6 8 C-6.99 7.34 -7.98 6.68 -9 6 C-7.8803014 4.99406757 -6.7540588 3.9954151 -5.625 3 C-4.68527344 2.1646875 -4.68527344 2.1646875 -3.7265625 1.3125 C-2 0 -2 0 0 0 Z " fill="#FCE8C4" transform="translate(27,22)"/>
<path d="M0 0 C0.99 0.33 1.98 0.66 3 1 C4.0625 3.375 4.0625 3.375 5 6 C5.99 7.485 5.99 7.485 7 9 C3.64564078 7.61198929 1.88709697 6.11371 0 3 C0 2.01 0 1.02 0 0 Z " fill="#FEECCD" transform="translate(6,65)"/>
<path d="M0 0 C0.66 0.33 1.32 0.66 2 1 C-0.31 2.65 -2.62 4.3 -5 6 C-5.66 5.67 -6.32 5.34 -7 5 C-4.63707344 2.47411298 -3.33537489 1.11179163 0 0 Z " fill="#F9D911" transform="translate(39,50)"/>
<path d="M0 0 C0.99 0 1.98 0 3 0 C5.29013653 3.4352048 5.17842973 4.985331 5 9 C2.3534665 6.3534665 1.40058003 3.43778736 0 0 Z " fill="#F2D39C" transform="translate(60,25)"/>
</svg>
