<?xml version="1.0" encoding="UTF-8"?>
<svg version="1.1" xmlns="http://www.w3.org/2000/svg" width="75" height="100">
<path d="M0 0 C3.86921011 4.45751106 4.97012075 10.20120254 4.75 15.984375 C2.93753675 27.16693129 -2.83723646 37.08426947 -11.62890625 44.15625 C-20.47496953 50.16681891 -29.94282427 52.78134099 -40.5390625 50.8515625 C-45.55550261 49.49891526 -48.549967 47.37962417 -51.26953125 42.88671875 C-52.85719158 39.0754445 -53.16388577 35.78965342 -53.1015625 31.7265625 C-53.09181396 31.01806152 -53.08206543 30.30956055 -53.07202148 29.57958984 C-52.69679178 18.48042246 -47.47103535 12.07727071 -39.6640625 4.5390625 C-28.68897276 -4.67013909 -12.56670508 -10.48247107 0 0 Z " fill="#DCF3FB" transform="translate(60.6640625,24.4609375)"/>
<path d="M0 0 C1.61671541 1.77046644 1.9704877 3.14449016 2.35546875 5.484375 C1.36546875 4.824375 0.37546875 4.164375 -0.64453125 3.484375 C-2.71363718 3.45688022 -2.71363718 3.45688022 -4.83203125 3.859375 C-6.71921875 4.16875 -6.71921875 4.16875 -8.64453125 4.484375 C-8.97453125 7.454375 -9.30453125 10.424375 -9.64453125 13.484375 C-12.21069757 9.63512552 -12.19550801 7.0494446 -12.64453125 2.484375 C-18.16789784 3.89107511 -20.81406624 7.76365861 -24.26953125 11.984375 C-25.40427233 13.35168688 -26.54217339 14.71638396 -27.68359375 16.078125 C-28.42923584 16.98594727 -28.42923584 16.98594727 -29.18994141 17.91210938 C-30.64453125 19.484375 -30.64453125 19.484375 -33.64453125 21.484375 C-33.33515625 20.618125 -33.33515625 20.618125 -33.01953125 19.734375 C-32.54708432 16.89969341 -33.0679517 15.84924432 -34.64453125 13.484375 C-35.63453125 12.824375 -36.62453125 12.164375 -37.64453125 11.484375 C-36.98453125 11.154375 -36.32453125 10.824375 -35.64453125 10.484375 C-34.98453125 10.814375 -34.32453125 11.144375 -33.64453125 11.484375 C-33.97453125 10.494375 -34.30453125 9.504375 -34.64453125 8.484375 C-33.32453125 7.824375 -32.00453125 7.164375 -30.64453125 6.484375 C-33.90501495 6.1772671 -33.90501495 6.1772671 -36.74609375 8.8984375 C-40.4563539 12.80143844 -40.72892693 16.65340627 -41.01953125 21.859375 C-41.08785156 22.69082031 -41.15617187 23.52226563 -41.2265625 24.37890625 C-41.39016525 26.41225471 -41.52073955 28.44821502 -41.64453125 30.484375 C-41.97453125 30.484375 -42.30453125 30.484375 -42.64453125 30.484375 C-42.64453125 26.194375 -42.64453125 21.904375 -42.64453125 17.484375 C-43.30453125 19.464375 -43.96453125 21.444375 -44.64453125 23.484375 C-45.30453125 23.484375 -45.96453125 23.484375 -46.64453125 23.484375 C-46.64453125 24.474375 -46.64453125 25.464375 -46.64453125 26.484375 C-45.98453125 26.484375 -45.32453125 26.484375 -44.64453125 26.484375 C-44.67933594 27.51498047 -44.67933594 27.51498047 -44.71484375 28.56640625 C-44.73289062 29.46746094 -44.7509375 30.36851563 -44.76953125 31.296875 C-44.80433594 32.63685547 -44.80433594 32.63685547 -44.83984375 34.00390625 C-44.82738952 36.73840214 -44.82738952 36.73840214 -42.64453125 39.484375 C-40.25144356 40.02928874 -40.25144356 40.02928874 -37.58203125 40.109375 C-32.726974 40.40193225 -32.726974 40.40193225 -31.64453125 41.484375 C-31.31453125 40.824375 -30.98453125 40.164375 -30.64453125 39.484375 C-27.58203125 38.859375 -27.58203125 38.859375 -24.64453125 38.484375 C-24.64453125 39.144375 -24.64453125 39.804375 -24.64453125 40.484375 C-23.98453125 40.484375 -23.32453125 40.484375 -22.64453125 40.484375 C-22.97453125 39.494375 -23.30453125 38.504375 -23.64453125 37.484375 C-22.57203125 36.88625 -21.49953125 36.288125 -20.39453125 35.671875 C-18.23999484 34.44879473 -16.3138868 33.23415758 -14.33203125 31.734375 C-12.64453125 30.484375 -12.64453125 30.484375 -10.64453125 30.484375 C-10.31453125 29.494375 -9.98453125 28.504375 -9.64453125 27.484375 C-8.98453125 27.484375 -8.32453125 27.484375 -7.64453125 27.484375 C-7.64453125 24.844375 -7.64453125 22.204375 -7.64453125 19.484375 C-6.32453125 19.484375 -5.00453125 19.484375 -3.64453125 19.484375 C-2.98453125 16.184375 -2.32453125 12.884375 -1.64453125 9.484375 C0.83046875 9.979375 0.83046875 9.979375 3.35546875 10.484375 C3.68546875 9.494375 4.01546875 8.504375 4.35546875 7.484375 C5.170592 17.71870025 2.88597227 26.56065973 -3.26953125 34.859375 C-8.75897166 41.22958383 -15.54437154 45.28704438 -23.64453125 47.484375 C-27.3359375 47.75 -27.3359375 47.75 -31.20703125 47.734375 C-33.12708984 47.74210937 -33.12708984 47.74210937 -35.0859375 47.75 C-39.96176659 47.38605227 -42.60884534 46.63513712 -45.89453125 42.984375 C-48.78837894 38.85030688 -48.85898688 35.72421333 -48.89453125 30.796875 C-48.91515625 30.10142578 -48.93578125 29.40597656 -48.95703125 28.68945312 C-49.02881441 19.07948221 -44.05998966 12.24661495 -37.64453125 5.484375 C-27.33269085 -3.28068934 -12.15432439 -8.39659084 0 0 Z " fill="#BFD9EE" transform="translate(58.64453125,25.515625)"/>
<path d="M0 0 C1.61671541 1.77046644 1.9704877 3.14449016 2.35546875 5.484375 C1.36546875 4.824375 0.37546875 4.164375 -0.64453125 3.484375 C-2.71363718 3.45688022 -2.71363718 3.45688022 -4.83203125 3.859375 C-6.71921875 4.16875 -6.71921875 4.16875 -8.64453125 4.484375 C-8.97453125 7.454375 -9.30453125 10.424375 -9.64453125 13.484375 C-12.21069757 9.63512552 -12.19550801 7.0494446 -12.64453125 2.484375 C-18.16789784 3.89107511 -20.81406624 7.76365861 -24.26953125 11.984375 C-25.40427233 13.35168688 -26.54217339 14.71638396 -27.68359375 16.078125 C-28.42923584 16.98594727 -28.42923584 16.98594727 -29.18994141 17.91210938 C-30.64453125 19.484375 -30.64453125 19.484375 -33.64453125 21.484375 C-33.33515625 20.618125 -33.33515625 20.618125 -33.01953125 19.734375 C-32.54708432 16.89969341 -33.0679517 15.84924432 -34.64453125 13.484375 C-35.63453125 12.824375 -36.62453125 12.164375 -37.64453125 11.484375 C-36.98453125 11.154375 -36.32453125 10.824375 -35.64453125 10.484375 C-34.98453125 10.814375 -34.32453125 11.144375 -33.64453125 11.484375 C-33.97453125 10.494375 -34.30453125 9.504375 -34.64453125 8.484375 C-33.32453125 7.824375 -32.00453125 7.164375 -30.64453125 6.484375 C-33.90501495 6.1772671 -33.90501495 6.1772671 -36.74609375 8.8984375 C-40.4563539 12.80143844 -40.72892693 16.65340627 -41.01953125 21.859375 C-41.08785156 22.69082031 -41.15617187 23.52226563 -41.2265625 24.37890625 C-41.39016525 26.41225471 -41.52073955 28.44821502 -41.64453125 30.484375 C-41.97453125 30.484375 -42.30453125 30.484375 -42.64453125 30.484375 C-42.64453125 26.194375 -42.64453125 21.904375 -42.64453125 17.484375 C-43.30453125 19.464375 -43.96453125 21.444375 -44.64453125 23.484375 C-45.30453125 23.484375 -45.96453125 23.484375 -46.64453125 23.484375 C-46.97905177 30.91816443 -46.78355977 36.68314655 -43.64453125 43.484375 C-46.64453125 42.484375 -46.64453125 42.484375 -47.8125 40.91015625 C-48.97876642 37.50991473 -48.97343006 34.22385778 -48.95703125 30.671875 C-48.97314453 29.98544922 -48.98925781 29.29902344 -49.00585938 28.59179688 C-49.01488933 19.04713208 -44.01350672 12.19761942 -37.64453125 5.484375 C-27.33269085 -3.28068934 -12.15432439 -8.39659084 0 0 Z " fill="#F1F4F9" transform="translate(58.64453125,25.515625)"/>
<path d="M0 0 C3.86921011 4.45751106 4.97012075 10.20120254 4.75 15.984375 C2.93753675 27.16693129 -2.83723646 37.08426947 -11.62890625 44.15625 C-20.47496953 50.16681891 -29.94282427 52.78134099 -40.5390625 50.8515625 C-45.55550261 49.49891526 -48.549967 47.37962417 -51.26953125 42.88671875 C-52.85719158 39.0754445 -53.16388577 35.78965342 -53.1015625 31.7265625 C-53.09181396 31.01806152 -53.08206543 30.30956055 -53.07202148 29.57958984 C-52.69679178 18.48042246 -47.47103535 12.07727071 -39.6640625 4.5390625 C-28.68897276 -4.67013909 -12.56670508 -10.48247107 0 0 Z M-44.8828125 12.2109375 C-49.6632476 18.83301563 -50.86444193 23.26663435 -50.9765625 31.4140625 C-51.00556641 32.10886719 -51.03457031 32.80367187 -51.06445312 33.51953125 C-51.12807355 38.71683037 -49.89160353 41.52709128 -46.6640625 45.5390625 C-42.60422611 49.59889889 -36.98383122 48.84781909 -31.51708984 48.85375977 C-20.71133043 48.63357971 -12.52451164 43.6088134 -5.1328125 35.953125 C0.41827698 29.01426315 3.10929833 19.52506314 2.64453125 10.72265625 C1.9345438 5.69882101 -0.02055349 2.70519148 -3.9765625 -0.3359375 C-18.68039046 -8.745876 -35.39901972 0.7903138 -44.8828125 12.2109375 Z " fill="#A095BB" transform="translate(60.6640625,24.4609375)"/>
<path d="M0 0 C1.61671541 1.77046644 1.9704877 3.14449016 2.35546875 5.484375 C1.36546875 4.824375 0.37546875 4.164375 -0.64453125 3.484375 C-2.71363718 3.45688022 -2.71363718 3.45688022 -4.83203125 3.859375 C-6.71921875 4.16875 -6.71921875 4.16875 -8.64453125 4.484375 C-8.97453125 7.454375 -9.30453125 10.424375 -9.64453125 13.484375 C-12.21069757 9.63512552 -12.19550801 7.0494446 -12.64453125 2.484375 C-18.16789784 3.89107511 -20.81406624 7.76365861 -24.26953125 11.984375 C-25.40427233 13.35168688 -26.54217339 14.71638396 -27.68359375 16.078125 C-28.18068848 16.68333984 -28.6777832 17.28855469 -29.18994141 17.91210938 C-30.64453125 19.484375 -30.64453125 19.484375 -33.64453125 21.484375 C-32.29601677 17.46001241 -30.55986518 15.10342219 -27.58203125 12.109375 C-23.92594035 8.16238356 -22.64453125 5.84189941 -22.64453125 0.484375 C-24.29453125 0.814375 -25.94453125 1.144375 -27.64453125 1.484375 C-26.95703125 -0.453125 -26.95703125 -0.453125 -25.64453125 -2.515625 C-17.14859329 -4.90125975 -7.39336794 -5.10757188 0 0 Z " fill="#F9FBFD" transform="translate(58.64453125,25.515625)"/>
<path d="M0 0 C2.08386889 5.27913453 2.57910004 10.39538469 3 16 C1.68 16.33 0.36 16.66 -1 17 C-1.66 13.37 -2.32 9.74 -3 6 C-7.15314177 10.0360419 -10.96682872 14.30497237 -14.75 18.6875 C-15.33910156 19.36361328 -15.92820312 20.03972656 -16.53515625 20.73632812 C-17.09589844 21.38408203 -17.65664063 22.03183594 -18.234375 22.69921875 C-18.74194336 23.28533936 -19.24951172 23.87145996 -19.77246094 24.4753418 C-21.08781959 25.9984929 -21.08781959 25.9984929 -22 28 C-23.32 27.67 -24.64 27.34 -26 27 C-26 22.05 -26 17.1 -26 12 C-24.68 12 -23.36 12 -22 12 C-21.67 14.97 -21.34 17.94 -21 21 C-20.52691406 20.40574219 -20.05382812 19.81148437 -19.56640625 19.19921875 C-18.16959484 17.44843954 -16.76819264 15.70131733 -15.36328125 13.95703125 C-13.75822716 11.9487239 -12.17284705 9.92456623 -10.60546875 7.88671875 C-9.82816406 6.89285156 -9.05085938 5.89898437 -8.25 4.875 C-7.53328125 3.94429687 -6.8165625 3.01359375 -6.078125 2.0546875 C-4 0 -4 0 0 0 Z " fill="#611A1B" transform="translate(46,30)"/>
<path d="M0 0 C1.65 0.66 3.3 1.32 5 2 C5 3.65 5 5.3 5 7 C4.34 7 3.68 7 3 7 C2.67 8.65 2.34 10.3 2 12 C1.34 12 0.68 12 0 12 C0 13.65 0 15.3 0 17 C-0.66 17 -1.32 17 -2 17 C-2.33 18.32 -2.66 19.64 -3 21 C-3.66 21 -4.32 21 -5 21 C-5 21.66 -5 22.32 -5 23 C-5.88751953 23.38091797 -5.88751953 23.38091797 -6.79296875 23.76953125 C-10.30143305 25.2976878 -13.63131886 26.76757058 -16.875 28.8125 C-17.57625 29.204375 -18.2775 29.59625 -19 30 C-19.99 29.67 -20.98 29.34 -22 29 C-12.28571429 21 -12.28571429 21 -9 21 C-8.67 20.01 -8.34 19.02 -8 18 C-7.34 18 -6.68 18 -6 18 C-6 15.36 -6 12.72 -6 10 C-4.68 10 -3.36 10 -2 10 C-1.34 6.7 -0.68 3.4 0 0 Z " fill="#5AAEC8" transform="translate(57,35)"/>
<path d="M0 0 C1.32 0 2.64 0 4 0 C4 0.66 4 1.32 4 2 C2.68 2 1.36 2 0 2 C-0.24234375 2.56203125 -0.4846875 3.1240625 -0.734375 3.703125 C-2.2501063 6.45389663 -4.10388242 8.45788803 -6.25 10.75 C-9.73945991 14.54338061 -12.91953268 18.40356538 -15.90625 22.6015625 C-16.2671875 23.06304687 -16.628125 23.52453125 -17 24 C-17.33 24 -17.66 24 -18 24 C-18 20.7 -18 17.4 -18 14 C-19.32 14 -20.64 14 -22 14 C-21.67 19.28 -21.34 24.56 -21 30 C-21.99 29.67 -22.98 29.34 -24 29 C-25.06708268 12.04524181 -25.06708268 12.04524181 -22.546875 7.21484375 C-19.82357458 4.52014943 -17.63752059 3.21250686 -14 2 C-14 2.66 -14 3.32 -14 4 C-15 5 -16 6 -17 7 C-17 7.66 -17 8.32 -17 9 C-17.99 9 -18.98 9 -20 9 C-19.360625 9.4125 -18.72125 9.825 -18.0625 10.25 C-15.79009069 12.17810487 -15.39803561 13.11424181 -15 16 C-14.67 16 -14.34 16 -14 16 C-13.00052704 14.94628182 -12.03875043 13.85674004 -11.09375 12.75390625 C-10.51496094 12.08166016 -9.93617187 11.40941406 -9.33984375 10.71679688 C-8.73269531 10.00587891 -8.12554687 9.29496094 -7.5 8.5625 C-6.3023279 7.16775871 -5.10442328 5.77321703 -3.90625 4.37890625 C-3.37322266 3.7557251 -2.84019531 3.13254395 -2.29101562 2.49047852 C-1.55250037 1.6378621 -0.79760878 0.79760878 0 0 Z " fill="#DFEAFA" transform="translate(42,28)"/>
<path d="M0 0 C0 1.98 0 3.96 0 6 C-1.65 5.67 -3.3 5.34 -5 5 C-5.12375 6.093125 -5.2475 7.18625 -5.375 8.3125 C-6 12 -6 12 -8 15 C-8 14.34 -8 13.68 -8 13 C-9.32 13.33 -10.64 13.66 -12 14 C-12 14.99 -12 15.98 -12 17 C-12.66 16.67 -13.32 16.34 -14 16 C-13.91297874 13.72844502 -13.80480478 11.45769257 -13.6875 9.1875 C-13.62949219 7.92292969 -13.57148437 6.65835938 -13.51171875 5.35546875 C-13 2 -13 2 -11.64453125 0.11328125 C-7.30709519 -2.82298782 -4.58165536 -1.52721845 0 0 Z " fill="#D1E1F5" transform="translate(62,30)"/>
<path d="M0 0 C0.33 0 0.66 0 1 0 C0.68808036 9.35758924 -2.74720387 17.75033178 -9 24.8125 C-16.10937078 31.21407944 -25.87688541 35.85821091 -35.46484375 36.140625 C-42.13208888 35.77079322 -47.05503197 34.78545293 -52 30 C-51.505 28.515 -51.505 28.515 -51 27 C-50.4225 27.639375 -49.845 28.27875 -49.25 28.9375 C-44.51737254 33.27574183 -37.94754953 32.39689413 -31.83203125 32.27734375 C-21.79613312 31.55099434 -13.97737434 26.34736265 -7.3125 19.0625 C-3.55390454 13.43739115 -1.94024689 6.41519929 0 0 Z " fill="#9992B9" transform="translate(63,40)"/>
<path d="M0 0 C0.66 0 1.32 0 2 0 C1.96519531 1.03060547 1.96519531 1.03060547 1.9296875 2.08203125 C1.91164063 2.98308594 1.89359375 3.88414063 1.875 4.8125 C1.84019531 6.15248047 1.84019531 6.15248047 1.8046875 7.51953125 C1.81714173 10.25402714 1.81714173 10.25402714 4 13 C6.29657708 13.4332151 6.29657708 13.4332151 8.875 13.4375 C13.69044556 13.77151935 13.69044556 13.77151935 16.625 15.9375 C18 18 18 18 18 20 C16.43969749 20.22419881 14.8765495 20.42863758 13.3125 20.625 C12.00732422 20.79902344 12.00732422 20.79902344 10.67578125 20.9765625 C7.53370036 21.00408438 5.73152481 20.55493896 3 19 C-0.31926096 13.79760531 -1.63401848 8.08657738 -1 2 C-0.67 1.34 -0.34 0.68 0 0 Z " fill="#A5CEDF" transform="translate(12,52)"/>
<path d="M0 0 C0.66 0 1.32 0 2 0 C2.5598619 2.86151638 2.74646002 4.22394935 2 7 C-0.70486117 10.63284472 -3.77834757 13.82309274 -7 17 C-7.433125 16.38125 -7.86625 15.7625 -8.3125 15.125 C-9.99740483 12.7802755 -9.99740483 12.7802755 -13 11 C-12.34 10.67 -11.68 10.34 -11 10 C-10.34 10.33 -9.68 10.66 -9 11 C-9.33 10.01 -9.66 9.02 -10 8 C-8.68 7.34 -7.36 6.68 -6 6 C-6 5.01 -6 4.02 -6 3 C-5.34 3 -4.68 3 -4 3 C-4 3.66 -4 4.32 -4 5 C-3.01 5 -2.02 5 -1 5 C-0.67 3.35 -0.34 1.7 0 0 Z " fill="#D4E1FE" transform="translate(34,26)"/>
<path d="M0 0 C0.66 0 1.32 0 2 0 C3.42258812 3.82320557 4.24042276 6.91281305 4 11 C4.99 11.33 5.98 11.66 7 12 C3.25 15 3.25 15 1 15 C-1.625 12.625 -1.625 12.625 -4 10 C-4 9.34 -4 8.68 -4 8 C-4.66 7.67 -5.32 7.34 -6 7 C-5.04882866 5.8274869 -4.08882991 4.66212985 -3.125 3.5 C-2.59132812 2.8503125 -2.05765625 2.200625 -1.5078125 1.53125 C-0.76144531 0.77328125 -0.76144531 0.77328125 0 0 Z " fill="#D5E4FC" transform="translate(41,36)"/>
<path d="M0 0 C1.32 0 2.64 0 4 0 C4.33 2.97 4.66 5.94 5 9 C5.66 8.67 6.32 8.34 7 8 C6.45276317 11.37462715 5.9451 13.08235 4 16 C2.68 15.67 1.36 15.34 0 15 C0 10.05 0 5.1 0 0 Z " fill="#280C0C" transform="translate(20,42)"/>
<path d="M0 0 C0.33 0.99 0.66 1.98 1 3 C1.99 3 2.98 3 4 3 C3.67 4.65 3.34 6.3 3 8 C2.34 8 1.68 8 1 8 C1 8.66 1 9.32 1 10 C0.40832031 10.25394531 -0.18335938 10.50789063 -0.79296875 10.76953125 C-4.30143305 12.2976878 -7.63131886 13.76757058 -10.875 15.8125 C-11.57625 16.204375 -12.2775 16.59625 -13 17 C-13.99 16.67 -14.98 16.34 -16 16 C-6.28571429 8 -6.28571429 8 -3 8 C-2.67 7.01 -2.34 6.02 -2 5 C-1.34 5 -0.68 5 0 5 C0 3.35 0 1.7 0 0 Z " fill="#8CC1D2" transform="translate(51,48)"/>
<path d="M0 0 C0.66 0.66 1.32 1.32 2 2 C1.57847656 2.53109375 1.15695313 3.0621875 0.72265625 3.609375 C0.17480469 4.31578125 -0.37304688 5.0221875 -0.9375 5.75 C-1.48277344 6.44609375 -2.02804688 7.1421875 -2.58984375 7.859375 C-5.52063388 12.30833065 -5.15300717 16.87650491 -5.125 22.0625 C-5.12886719 22.78244141 -5.13273438 23.50238281 -5.13671875 24.24414062 C-5.13080799 27.42708639 -5.01350713 29.95947862 -4 33 C-4.99 33 -5.98 33 -7 33 C-9.37363247 25.87910258 -9.24372666 15.75090179 -6.25 8.8125 C-4.51850287 5.58449463 -2.45983622 2.72339011 0 0 Z " fill="#AA9FC1" transform="translate(16,34)"/>
<path d="M0 0 C1.32 0 2.64 0 4 0 C4 0.66 4 1.32 4 2 C2.68 2 1.36 2 0 2 C-0.24234375 2.56203125 -0.4846875 3.1240625 -0.734375 3.703125 C-2.2501063 6.45389663 -4.10388242 8.45788803 -6.25 10.75 C-10.13397608 14.97907897 -13.67025658 19.3253014 -17 24 C-17.6796875 22.19140625 -17.6796875 22.19140625 -18 20 C-16.8828125 18.46484375 -16.8828125 18.46484375 -15.125 16.9375 C-10.94883523 13.07223683 -7.47207893 8.79045994 -3.91796875 4.35546875 C-2 2 -2 2 0 0 Z " fill="#66A2B6" transform="translate(42,28)"/>
<path d="M0 0 C0.75 2.125 0.75 2.125 1 4 C0.01 3.34 -0.98 2.68 -2 2 C-4.06910593 1.97250522 -4.06910593 1.97250522 -6.1875 2.375 C-8.0746875 2.684375 -8.0746875 2.684375 -10 3 C-10.33 5.97 -10.66 8.94 -11 12 C-13.56616632 8.15075052 -13.55097676 5.5650696 -14 1 C-11.525 1.495 -11.525 1.495 -9 2 C-9 1.01 -9 0.02 -9 -1 C-5.30729773 -2.02575063 -3.15786978 -2.36840234 0 0 Z " fill="#EAEFF9" transform="translate(60,27)"/>
<path d="M0 0 C0.66 0 1.32 0 2 0 C1.95359375 0.66386719 1.9071875 1.32773437 1.859375 2.01171875 C1.57488443 7.88116257 1.57488443 7.88116257 4 13.125 C4.66 13.74375 5.32 14.3625 6 15 C5.34 15 4.68 15 4 15 C5.63412443 16.70840281 6.86906094 17.93453047 9 19 C8.67 19.66 8.34 20.32 8 21 C4.96624357 20.08936996 3.37190251 19.58289591 1.63671875 16.86328125 C-0.29292367 11.67786354 -1.57723209 7.54142806 -1 2 C-0.67 1.34 -0.34 0.68 0 0 Z " fill="#AACDDC" transform="translate(12,52)"/>
<path d="M0 0 C0.33 0 0.66 0 1 0 C1.64323227 8.07613852 -0.1082716 14.48666996 -3 22 C-5 20 -5 20 -5.125 16.875 C-5.08375 15.92625 -5.0425 14.9775 -5 14 C-4.34 14 -3.68 14 -3 14 C-2.67 12.35 -2.34 10.7 -2 9 C-1.34 9 -0.68 9 0 9 C-0.185625 8.071875 -0.37125 7.14375 -0.5625 6.1875 C-1 3 -1 3 0 0 Z " fill="#AACCDC" transform="translate(62,33)"/>
<path d="M0 0 C1.98 0 3.96 0 6 0 C6 0.66 6 1.32 6 2 C4.68 2 3.36 2 2 2 C2.33 7.28 2.66 12.56 3 18 C2.01 17.67 1.02 17.34 0 17 C0 11.39 0 5.78 0 0 Z " fill="#6293A5" transform="translate(18,40)"/>
<path d="M0 0 C0.66 0 1.32 0 2 0 C2 0.66 2 1.32 2 2 C2.66 2 3.32 2 4 2 C4 2.66 4 3.32 4 4 C2.68 4 1.36 4 0 4 C-0.12375 5.093125 -0.2475 6.18625 -0.375 7.3125 C-1 11 -1 11 -3 14 C-3 13.34 -3 12.68 -3 12 C-4.32 12.33 -5.64 12.66 -7 13 C-7 13.99 -7 14.98 -7 16 C-7.66 15.67 -8.32 15.34 -9 15 C-8.67 14.01 -8.34 13.02 -8 12 C-7.34 12 -6.68 12 -6 12 C-6 11.34 -6 10.68 -6 10 C-5.360625 9.54625 -4.72125 9.0925 -4.0625 8.625 C-1.7323843 6.78915127 -1.39598702 5.87090587 -1 3 C-0.34 3 0.32 3 1 3 C0.67 2.01 0.34 1.02 0 0 Z " fill="#ACCDDE" transform="translate(57,31)"/>
<path d="M0 0 C0.66 0 1.32 0 2 0 C2.36552803 1.41377782 2.71695495 2.83120576 3.0625 4.25 C3.25972656 5.03890625 3.45695312 5.8278125 3.66015625 6.640625 C4.01497267 9.10394822 3.76877544 10.65604132 3 13 C2.01 13 1.02 13 0 13 C-1.25316456 5.75949367 -1.25316456 5.75949367 0 2 C0 1.34 0 0.68 0 0 Z " fill="#2E1214" transform="translate(45,34)"/>
<path d="M0 0 C-0.6290625 0.36351563 -1.258125 0.72703125 -1.90625 1.1015625 C-7.55243063 4.41784329 -12.85618513 7.94816818 -18 12 C-16.57646476 8.66863403 -14.8664687 6.72335243 -12.125 4.375 C-11.44695313 3.78460937 -10.76890625 3.19421875 -10.0703125 2.5859375 C-6.48145021 -0.16326645 -4.44504168 -1.58751489 0 0 Z " fill="#9C8FB7" transform="translate(35,23)"/>
<path d="M0 0 C0.66 0 1.32 0 2 0 C1.52794881 4.24846075 -0.88877522 6.26819288 -4 9 C-4.66 9 -5.32 9 -6 9 C-6.33 9.99 -6.66 10.98 -7 12 C-7.33 11.01 -7.66 10.02 -8 9 C-6.71520959 7.49410612 -5.42195918 5.99542625 -4.125 4.5 C-3.04605469 3.24703125 -3.04605469 3.24703125 -1.9453125 1.96875 C-1.30335937 1.3190625 -0.66140625 0.669375 0 0 Z " fill="#E8F0F3" transform="translate(35,44)"/>
<path d="M0 0 C0.517487 2.84617849 0.34894002 4.49283192 -1.30078125 6.890625 C-2.81279921 8.6660733 -4.31852091 10.38373063 -6 12 C-6.33 12 -6.66 12 -7 12 C-7.517487 9.15382151 -7.34894002 7.50716808 -5.69921875 5.109375 C-1.34794207 0 -1.34794207 0 0 0 Z " fill="#551B1D" transform="translate(34,41)"/>
<path d="M0 0 C0.64428711 1.81152344 0.64428711 1.81152344 1 4 C-0.74748644 6.28267265 -2.43162684 8.22229751 -4.4375 10.25 C-4.96666016 10.80429687 -5.49582031 11.35859375 -6.04101562 11.9296875 C-7.34956405 13.29717954 -8.6733804 14.65003189 -10 16 C-10 11.7349984 -7.55526586 9.49967621 -5 6.3125 C-4.52304687 5.70599609 -4.04609375 5.09949219 -3.5546875 4.47460938 C-2.37623606 2.97797604 -1.18894812 1.48830827 0 0 Z " fill="#EDF4FA" transform="translate(36,31)"/>
<path d="M0 0 C0.33 0.99 0.66 1.98 1 3 C1.66 3 2.32 3 3 3 C3 2.34 3 1.68 3 1 C3.99 1.33 4.98 1.66 6 2 C6.6875 4.0625 6.6875 4.0625 7 6 C3.26512223 5.5020163 1.18762365 5.12508244 -2 3 C-2 2.34 -2 1.68 -2 1 C-1.34 0.67 -0.68 0.34 0 0 Z " fill="#8FC2D2" transform="translate(18,66)"/>
<path d="M0 0 C0.66 0 1.32 0 2 0 C2 1.32 2 2.64 2 4 C-0.74690118 6.59429556 -3.55261628 8.46782946 -7 10 C-5.32598022 6.04322598 -2.86850715 3.15535787 0 0 Z " fill="#C1E2ED" transform="translate(49,49)"/>
<path d="M0 0 C0.66 0 1.32 0 2 0 C2.99 3.96 3.98 7.92 5 12 C3.68 11.34 2.36 10.68 1 10 C0.390625 7.6171875 0.390625 7.6171875 0.25 4.875 C0.19328125 3.96492188 0.1365625 3.05484375 0.078125 2.1171875 C0.05234375 1.41851562 0.0265625 0.71984375 0 0 Z " fill="#6EA7BC" transform="translate(41,36)"/>
<path d="M0 0 C0 0.66 0 1.32 0 2 C-1.76913824 2.22226864 -3.54044371 2.42733873 -5.3125 2.625 C-6.29863281 2.74101562 -7.28476562 2.85703125 -8.30078125 2.9765625 C-11 3 -11 3 -14 1 C-12.23103898 0.63659714 -10.45973374 0.28459117 -8.6875 -0.0625 C-7.70136719 -0.25972656 -6.71523438 -0.45695312 -5.69921875 -0.66015625 C-3 -1 -3 -1 0 0 Z " fill="#B4AAC8" transform="translate(46,20)"/>
<path d="M0 0 C0.33 0 0.66 0 1 0 C1.06058594 0.83144531 1.12117187 1.66289063 1.18359375 2.51953125 C1.26738281 3.60621094 1.35117188 4.69289063 1.4375 5.8125 C1.55931641 7.43091797 1.55931641 7.43091797 1.68359375 9.08203125 C1.90212461 12.05989905 1.90212461 12.05989905 3 15 C2.01 15 1.02 15 0 15 C-1.0024305 9.65370398 -0.84888195 5.37625234 0 0 Z " fill="#B1A8C7" transform="translate(9,52)"/>
<path d="M0 0 C0.721875 0.61875 1.44375 1.2375 2.1875 1.875 C4.78381938 3.83666353 6.94671666 4.95316 10 6 C10 6.33 10 6.66 10 7 C3.55192878 6.39169139 3.55192878 6.39169139 1.0625 4.625 C0 3 0 3 0 0 Z " fill="#8D7FAC" transform="translate(11,67)"/>
<path d="M0 0 C0.66 0 1.32 0 2 0 C1.25 4.75 1.25 4.75 -1 7 C-3.125 6.625 -3.125 6.625 -5 6 C-3.38405168 3.95880212 -1.7143618 1.95927063 0 0 Z " fill="#DDE1E8" transform="translate(40,37)"/>
<path d="M0 0 C0 0.66 0 1.32 0 2 C0.99 1.67 1.98 1.34 3 1 C2.34 2.32 1.68 3.64 1 5 C-0.65 4.67 -2.3 4.34 -4 4 C-4.33 3.01 -4.66 2.02 -5 1 C-2 0 -2 0 0 0 Z " fill="#A7CFE0" transform="translate(34,64)"/>
<path d="M0 0 C0.66 0.33 1.32 0.66 2 1 C2 3 2 5 2 7 C1.01 7 0.02 7 -1 7 C-1.33 5.02 -1.66 3.04 -2 1 C-1.34 0.67 -0.68 0.34 0 0 Z " fill="#EAEEFA" transform="translate(31,24)"/>
<path d="M0 0 C0.33 0.99 0.66 1.98 1 3 C-0.65 4.65 -2.3 6.3 -4 8 C-3.50168276 4.31245243 -2.89932357 2.39509338 0 0 Z " fill="#6BAABE" transform="translate(28,44)"/>
<path d="M0 0 C0.99 0 1.98 0 3 0 C3 1.65 3 3.3 3 5 C2.01 5.495 2.01 5.495 1 6 C0.34 4.35 -0.32 2.7 -1 1 C-0.67 0.67 -0.34 0.34 0 0 Z " fill="#EAF2FD" transform="translate(53,33)"/>
<path d="M0 0 C0.66 0 1.32 0 2 0 C2.33 2.31 2.66 4.62 3 7 C2.01 7.495 2.01 7.495 1 8 C1 6.35 1 4.7 1 3 C0.01 2.67 -0.98 2.34 -2 2 C-1.34 1.34 -0.68 0.68 0 0 Z " fill="#730202" transform="translate(43,32)"/>
</svg>
