<?xml version="1.0" encoding="UTF-8"?>
<svg version="1.1" xmlns="http://www.w3.org/2000/svg" width="75" height="100">
<path d="M0 0 C4.41396406 4.30361496 6.64268636 9.52645119 7.0625 15.6875 C6.4908973 26.94216009 0.30974759 37.06674214 -7.6875 44.625 C-15.92293305 51.24954615 -25.51044486 54.25630534 -36.015625 53.1796875 C-40.76343098 52.31502085 -44.10877678 51.02820694 -47.5 47.4375 C-51.96097869 40.0676593 -51.61482939 31.10454938 -49.984375 22.81640625 C-46.41286344 13.274868 -36.81262347 4.20587281 -27.95703125 -0.5078125 C-18.55659864 -4.54297435 -9.35519214 -4.17642506 0 0 Z " fill="#DCF3FB" transform="translate(58.5,22.5625)"/>
<path d="M0 0 C4.41396406 4.30361496 6.64268636 9.52645119 7.0625 15.6875 C6.4908973 26.94216009 0.30974759 37.06674214 -7.6875 44.625 C-15.92293305 51.24954615 -25.51044486 54.25630534 -36.015625 53.1796875 C-40.76343098 52.31502085 -44.10877678 51.02820694 -47.5 47.4375 C-51.96097869 40.0676593 -51.61482939 31.10454938 -49.984375 22.81640625 C-46.41286344 13.274868 -36.81262347 4.20587281 -27.95703125 -0.5078125 C-18.55659864 -4.54297435 -9.35519214 -4.17642506 0 0 Z M-42.515625 13.96875 C-47.39450947 20.71192366 -48.69806851 24.99714537 -48.8125 33.3125 C-48.84150391 34.00730469 -48.87050781 34.70210937 -48.90039062 35.41796875 C-48.96401105 40.61526787 -47.72754103 43.42552878 -44.5 47.4375 C-40.44016361 51.49733639 -34.81976872 50.74625659 -29.35302734 50.75219727 C-18.54726793 50.53201721 -10.36044914 45.5072509 -2.96875 37.8515625 C3.23597362 30.09565797 5.27310639 20.14428025 4.5 10.4375 C2.55433049 13.91297073 2.42362873 15.56256344 3.5 19.4375 C2.84 19.4375 2.18 19.4375 1.5 19.4375 C1.005 21.9125 1.005 21.9125 0.5 24.4375 C-0.16 24.4375 -0.82 24.4375 -1.5 24.4375 C-1.5 26.0875 -1.5 27.7375 -1.5 29.4375 C-2.16 29.4375 -2.82 29.4375 -3.5 29.4375 C-3.995 30.9225 -3.995 30.9225 -4.5 32.4375 C-5.49 32.9325 -5.49 32.9325 -6.5 33.4375 C-6.5 34.0975 -6.5 34.7575 -6.5 35.4375 C-7.09167969 35.61925781 -7.68335938 35.80101562 -8.29296875 35.98828125 C-12.712508 37.39417057 -16.62540125 38.81277181 -20.5 41.4375 C-20.995 40.9425 -20.995 40.9425 -21.5 40.4375 C-20.736875 40.045625 -19.97375 39.65375 -19.1875 39.25 C-16.19419753 37.23126112 -15.24390643 35.54620276 -13.5 32.4375 C-12.16666667 31.10416667 -10.83333333 29.77083333 -9.5 28.4375 C-9.5 27.7775 -9.5 27.1175 -9.5 26.4375 C-10.42232422 26.58058594 -10.42232422 26.58058594 -11.36328125 26.7265625 C-12.17152344 26.83742188 -12.97976562 26.94828125 -13.8125 27.0625 C-15.01326172 27.23652344 -15.01326172 27.23652344 -16.23828125 27.4140625 C-18.5 27.4375 -18.5 27.4375 -21.5 25.4375 C-26.27059331 25.73993025 -28.97707932 29.5496011 -32.18359375 32.72265625 C-34.88312963 34.72113222 -36.21973309 34.8019741 -39.5 34.4375 C-37.1820069 30.27283906 -34.35215827 26.71892507 -31.25 23.125 C-30.76418457 22.55539551 -30.27836914 21.98579102 -29.77783203 21.39892578 C-26.49109865 17.5544173 -23.15198606 13.75953257 -19.7421875 10.0234375 C-18.28118541 8.34109894 -18.28118541 8.34109894 -17.5 5.4375 C-15.0625 5.8125 -15.0625 5.8125 -12.5 6.4375 C-12.005 7.4275 -12.005 7.4275 -11.5 8.4375 C-9.12251075 7.90916905 -7.24713197 7.30782409 -5.0625 6.1875 C-2.5 5.4375 -2.5 5.4375 0.3125 6.8125 C1.034375 7.34875 1.75625 7.885 2.5 8.4375 C1.94212372 5.13261269 1.17670754 3.63805658 -1.5625 1.6875 C-16.14611891 -6.77362665 -33.12328581 2.17371939 -42.515625 13.96875 Z " fill="#D4E3F9" transform="translate(58.5,22.5625)"/>
<path d="M0 0 C0.33 0 0.66 0 1 0 C1.81512325 10.23432525 -0.46949648 19.07628473 -6.625 27.375 C-12.11444041 33.74520883 -18.89984029 37.80266938 -27 40 C-30.69140625 40.265625 -30.69140625 40.265625 -34.5625 40.25 C-35.84253906 40.25515625 -37.12257813 40.2603125 -38.44140625 40.265625 C-41.85625797 40.01072937 -44.05677239 39.72479468 -47 38 C-50.31926096 32.79760531 -51.63401848 27.08657738 -51 21 C-50.67 20.34 -50.34 19.68 -50 19 C-49.34 19 -48.68 19 -48 19 C-48.03480469 20.03060547 -48.03480469 20.03060547 -48.0703125 21.08203125 C-48.08835937 21.98308594 -48.10640625 22.88414063 -48.125 23.8125 C-48.15980469 25.15248047 -48.15980469 25.15248047 -48.1953125 26.51953125 C-48.18285827 29.25402714 -48.18285827 29.25402714 -46 32 C-43.8716709 32.54370178 -43.8716709 32.54370178 -41.5 32.625 C-37.15789474 32.92105263 -37.15789474 32.92105263 -35 34 C-34.67 33.34 -34.34 32.68 -34 32 C-30.9375 31.375 -30.9375 31.375 -28 31 C-28 31.66 -28 32.32 -28 33 C-27.3709375 32.59007812 -26.741875 32.18015625 -26.09375 31.7578125 C-20.74216361 28.38889215 -16.22399592 26.15259184 -10 25 C-10 24.34 -10 23.68 -10 23 C-9.34 22.67 -8.68 22.34 -8 22 C-7.505 20.515 -7.505 20.515 -7 19 C-6.34 19 -5.68 19 -5 19 C-5 17.35 -5 15.7 -5 14 C-4.34 14 -3.68 14 -3 14 C-2.67 12.35 -2.34 10.7 -2 9 C-1.34 9 -0.68 9 0 9 C-0.185625 8.071875 -0.37125 7.14375 -0.5625 6.1875 C-1 3 -1 3 0 0 Z " fill="#BDD8ED" transform="translate(62,33)"/>
<path d="M0 0 C4.41396406 4.30361496 6.64268636 9.52645119 7.0625 15.6875 C6.4908973 26.94216009 0.30974759 37.06674214 -7.6875 44.625 C-15.92293305 51.24954615 -25.51044486 54.25630534 -36.015625 53.1796875 C-40.76343098 52.31502085 -44.10877678 51.02820694 -47.5 47.4375 C-51.96097869 40.0676593 -51.61482939 31.10454938 -49.984375 22.81640625 C-46.41286344 13.274868 -36.81262347 4.20587281 -27.95703125 -0.5078125 C-18.55659864 -4.54297435 -9.35519214 -4.17642506 0 0 Z M-42.515625 13.96875 C-47.39450947 20.71192366 -48.69806851 24.99714537 -48.8125 33.3125 C-48.84150391 34.00730469 -48.87050781 34.70210937 -48.90039062 35.41796875 C-48.96401105 40.61526787 -47.72754103 43.42552878 -44.5 47.4375 C-40.44016361 51.49733639 -34.81976872 50.74625659 -29.35302734 50.75219727 C-18.54726793 50.53201721 -10.36044914 45.5072509 -2.96875 37.8515625 C2.58233948 30.91270065 5.27336083 21.42350064 4.80859375 12.62109375 C4.10893572 7.67034899 2.17230837 4.62137683 -1.6875 1.5625 C-16.26126121 -6.73457662 -33.17576886 2.23962834 -42.515625 13.96875 Z " fill="#9C92B9" transform="translate(58.5,22.5625)"/>
<path d="M0 0 C4.84222463 2.86131455 4.84222463 2.86131455 5.90234375 6.19140625 C6.05509766 7.09632812 6.05509766 7.09632812 6.2109375 8.01953125 C5.4890625 7.48328125 4.7671875 6.94703125 4.0234375 6.39453125 C1.31191846 4.67751812 1.31191846 4.67751812 -1.3515625 5.76953125 C-2.1559375 6.18203125 -2.9603125 6.59453125 -3.7890625 7.01953125 C-5.11582758 7.37811641 -6.44742171 7.72138885 -7.7890625 8.01953125 C-8.2840625 7.02953125 -8.2840625 7.02953125 -8.7890625 6.01953125 C-10.7690625 6.01953125 -12.7490625 6.01953125 -14.7890625 6.01953125 C-14.7890625 5.35953125 -14.7890625 4.69953125 -14.7890625 4.01953125 C-16.7690625 4.01953125 -18.7490625 4.01953125 -20.7890625 4.01953125 C-21.1190625 5.33953125 -21.4490625 6.65953125 -21.7890625 8.01953125 C-22.7790625 8.01953125 -23.7690625 8.01953125 -24.7890625 8.01953125 C-24.7890625 7.35953125 -24.7890625 6.69953125 -24.7890625 6.01953125 C-25.4490625 6.01953125 -26.1090625 6.01953125 -26.7890625 6.01953125 C-26.7890625 7.00953125 -26.7890625 7.99953125 -26.7890625 9.01953125 C-27.6553125 9.34953125 -28.5215625 9.67953125 -29.4140625 10.01953125 C-34.83594646 13.23249952 -37.87695159 17.69779438 -40.1640625 23.51953125 C-40.3703125 24.34453125 -40.5765625 25.16953125 -40.7890625 26.01953125 C-42.7890625 23.01953125 -42.7890625 23.01953125 -42.62890625 20.63671875 C-39.80569989 11.83881987 -31.52003297 5.45884872 -23.7890625 1.01953125 C-17.0823496 -2.34515411 -7.05461949 -2.47998528 0 0 Z " fill="#F5F6FC" transform="translate(54.7890625,22.98046875)"/>
<path d="M0 0 C2.97 0.495 2.97 0.495 6 1 C6.33 1.99 6.66 2.98 7 4 C3.5 7.5 3.5 7.5 0 11 C-0.52980469 11.56074219 -1.05960938 12.12148438 -1.60546875 12.69921875 C-3.32852862 14.30644266 -4.74198782 14.43549696 -7 15 C-8.73026102 16.47890069 -8.73026102 16.47890069 -10 18 C-10.66 17.34 -11.32 16.68 -12 16 C-12.928125 16.99 -12.928125 16.99 -13.875 18 C-16 20 -16 20 -18 20 C-18.2685261 16.98829554 -18.25089574 15.40779596 -16.64453125 12.796875 C-16.03996094 12.12140625 -15.43539063 11.4459375 -14.8125 10.75 C-14.22082031 10.06421875 -13.62914062 9.3784375 -13.01953125 8.671875 C-10.67504263 6.73098306 -8.98862142 6.35099526 -6 6 C-6 5.01 -6 4.02 -6 3 C-5.34 3 -4.68 3 -4 3 C-4 3.66 -4 4.32 -4 5 C-3.01 5 -2.02 5 -1 5 C-0.67 3.35 -0.34 1.7 0 0 Z " fill="#D7E4FD" transform="translate(34,26)"/>
<path d="M0 0 C1.65 0.66 3.3 1.32 5 2 C5 3.65 5 5.3 5 7 C4.34 7 3.68 7 3 7 C2.67 8.65 2.34 10.3 2 12 C1.34 12 0.68 12 0 12 C0 13.65 0 15.3 0 17 C-0.66 17 -1.32 17 -2 17 C-2.33 18.32 -2.66 19.64 -3 21 C-3.66 21 -4.32 21 -5 21 C-5 21.66 -5 22.32 -5 23 C-5.88751953 23.38091797 -5.88751953 23.38091797 -6.79296875 23.76953125 C-10.30143305 25.2976878 -13.63131886 26.76757058 -16.875 28.8125 C-17.57625 29.204375 -18.2775 29.59625 -19 30 C-19.99 29.67 -20.98 29.34 -22 29 C-12.28571429 21 -12.28571429 21 -9 21 C-9 20.34 -9 19.68 -9 19 C-8.34 19 -7.68 19 -7 19 C-6.505 14.545 -6.505 14.545 -6 10 C-4.68 10 -3.36 10 -2 10 C-1.34 6.7 -0.68 3.4 0 0 Z " fill="#5AAEC8" transform="translate(57,35)"/>
<path d="M0 0 C1.32 0 2.64 0 4 0 C2.48088137 4.88879997 -0.35387439 8.06267999 -3.6875 11.8125 C-4.77475752 13.0507655 -5.86199719 14.28904668 -6.94921875 15.52734375 C-7.47435059 16.12144043 -7.99948242 16.71553711 -8.54052734 17.32763672 C-9.78973885 18.75906844 -11.0023336 20.22231478 -12.20703125 21.69140625 C-12.79871094 22.41199219 -13.39039063 23.13257812 -14 23.875 C-14.7425 24.79925781 -14.7425 24.79925781 -15.5 25.7421875 C-17 27 -17 27 -21 27 C-21 26.34 -21 25.68 -21 25 C-20.34 25 -19.68 25 -19 25 C-18.59467041 24.12492798 -18.59467041 24.12492798 -18.18115234 23.23217773 C-17.00100216 21.00189392 -15.70339119 19.22972655 -14.1015625 17.28515625 C-13.53953125 16.59873047 -12.9775 15.91230469 -12.3984375 15.20507812 C-11.52058594 14.14450195 -11.52058594 14.14450195 -10.625 13.0625 C-9.47124155 11.65764456 -8.31759316 10.25269873 -7.1640625 8.84765625 C-6.34083496 7.85789795 -6.34083496 7.85789795 -5.50097656 6.84814453 C-4.22315711 5.27477217 -3.02071534 3.64066804 -1.8359375 1.99609375 C-1.23007812 1.33738281 -0.62421875 0.67867187 0 0 Z " fill="#491314" transform="translate(41,31)"/>
<path d="M0 0 C0.66 0 1.32 0 2 0 C1.96519531 1.03060547 1.96519531 1.03060547 1.9296875 2.08203125 C1.91164063 2.98308594 1.89359375 3.88414063 1.875 4.8125 C1.84019531 6.15248047 1.84019531 6.15248047 1.8046875 7.51953125 C1.81714173 10.25402714 1.81714173 10.25402714 4 13 C6.19454681 13.57993699 6.19454681 13.57993699 8.625 13.6875 C9.44226562 13.75324219 10.25953125 13.81898437 11.1015625 13.88671875 C11.72804688 13.92410156 12.35453125 13.96148437 13 14 C14.125 17.75 14.125 17.75 13 20 C10.12433539 20.95855487 8.41057267 21.1123205 5.47265625 20.30859375 C1.65062653 18.2858766 1.12489594 15.53121207 -0.28125 11.61328125 C-1.38906467 7.58541162 -1.93128635 3.86257271 0 0 Z " fill="#AACDDC" transform="translate(12,52)"/>
<path d="M0 0 C0.66 0.66 1.32 1.32 2 2 C1.43152344 2.38929687 0.86304687 2.77859375 0.27734375 3.1796875 C-6.07600895 7.78295139 -11.83913591 13.28737079 -14.6796875 20.796875 C-15.17624707 24.21223593 -15.14359214 27.61985549 -15.125 31.0625 C-15.12886719 31.78244141 -15.13273438 32.50238281 -15.13671875 33.24414062 C-15.13080799 36.42708639 -15.01350713 38.95947862 -14 42 C-14.99 42 -15.98 42 -17 42 C-19.27159409 35.18521772 -19.26920157 25.04263229 -16.6875 18.25 C-13.01491285 11.37055233 -6.43630055 4.29086703 0 0 Z " fill="#9E93BA" transform="translate(26,25)"/>
<path d="M0 0 C1.11375 0.1546875 1.11375 0.1546875 2.25 0.3125 C1.92 1.6325 1.59 2.9525 1.25 4.3125 C-0.07 4.3125 -1.39 4.3125 -2.75 4.3125 C-4.88644778 6.294586 -4.88644778 6.294586 -6.875 9 C-7.65230469 9.99 -8.42960937 10.98 -9.23046875 12 C-10.99232305 14.30551617 -12.73978688 16.6218428 -14.48828125 18.9375 C-14.93864746 19.53087158 -15.38901367 20.12424316 -15.85302734 20.7355957 C-16.73418754 21.90064231 -17.60838314 23.07099334 -18.47509766 24.24682617 C-19.52033271 25.63815017 -20.62992232 26.98068741 -21.75 28.3125 C-22.41 28.3125 -23.07 28.3125 -23.75 28.3125 C-24.08 28.9725 -24.41 29.6325 -24.75 30.3125 C-25.08 29.6525 -25.41 28.9925 -25.75 28.3125 C-20.82337576 22.05893398 -15.77428308 15.92440516 -10.6081543 9.8684082 C-8.53467432 7.43520829 -6.51588989 5.00120142 -4.59375 2.4453125 C-2.75 0.3125 -2.75 0.3125 0 0 Z " fill="#69A4B7" transform="translate(43.75,27.6875)"/>
<path d="M0 0 C0.33 0.99 0.66 1.98 1 3 C1.99 3 2.98 3 4 3 C3.67 4.65 3.34 6.3 3 8 C2.34 8 1.68 8 1 8 C1 8.66 1 9.32 1 10 C0.40832031 10.25394531 -0.18335938 10.50789063 -0.79296875 10.76953125 C-4.30143305 12.2976878 -7.63131886 13.76757058 -10.875 15.8125 C-11.57625 16.204375 -12.2775 16.59625 -13 17 C-13.99 16.67 -14.98 16.34 -16 16 C-6.28571429 8 -6.28571429 8 -3 8 C-3 7.34 -3 6.68 -3 6 C-2.34 6 -1.68 6 -1 6 C-0.67 4.02 -0.34 2.04 0 0 Z " fill="#8CC0D2" transform="translate(51,48)"/>
<path d="M0 0 C3.42156355 1.11399743 5.87422944 2.63717115 8.6875 4.875 C9.5625 7.125 9.5625 7.125 9.6875 8.875 C8.98625 8.33875 8.285 7.8025 7.5625 7.25 C4.69053974 5.50320892 4.69053974 5.50320892 1.375 6.6875 C0.488125 7.079375 -0.39875 7.47125 -1.3125 7.875 C-1.60125 7.25625 -1.89 6.6375 -2.1875 6 C-3.24970042 3.74174235 -3.24970042 3.74174235 -5.3125 1.875 C-2.3125 -0.125 -2.3125 -0.125 0 0 Z " fill="#F4F5FB" transform="translate(51.3125,22.125)"/>
<path d="M0 0 C-1.49403348 4.61792165 -3.64273049 7.5627955 -7 11 C-8.32 11 -9.64 11 -11 11 C-10.39940656 7.72929835 -9.32617975 5.78392943 -7.1875 3.25 C-6.68605469 2.63640625 -6.18460938 2.0228125 -5.66796875 1.390625 C-4 0 -4 0 0 0 Z " fill="#691416" transform="translate(45,31)"/>
<path d="M0 0 C1.125 3.75 1.125 3.75 0 6 C-3.73487777 5.5020163 -5.81237635 5.12508244 -9 3 C-9 2.34 -9 1.68 -9 1 C-6.04335481 -0.4783226 -3.25770263 -0.06032783 0 0 Z " fill="#94C5D4" transform="translate(25,66)"/>
<path d="M0 0 C0.33 0 0.66 0 1 0 C1.64323227 8.07613852 -0.1082716 14.48666996 -3 22 C-5 20 -5 20 -5.125 16.875 C-5.08375 15.92625 -5.0425 14.9775 -5 14 C-4.34 14 -3.68 14 -3 14 C-2.67 12.35 -2.34 10.7 -2 9 C-1.34 9 -0.68 9 0 9 C-0.185625 8.071875 -0.37125 7.14375 -0.5625 6.1875 C-1 3 -1 3 0 0 Z " fill="#AACCDC" transform="translate(62,33)"/>
<path d="M0 0 C0.66 0.66 1.32 1.32 2 2 C1.90396703 4.38045351 1.69878239 6.75698126 1.4375 9.125 C0.86127164 15.22748412 1.19504555 19.50228927 4 25 C1 24 1 24 -0.17578125 22.4375 C-1.34716398 18.97331599 -1.24964819 15.611137 -1.1875 12 C-1.18685547 11.2884375 -1.18621094 10.576875 -1.18554688 9.84375 C-1.1568988 6.43144624 -1.06157986 3.26117332 0 0 Z " fill="#E9EEF4" transform="translate(11,44)"/>
<path d="M0 0 C0 3.56425666 -0.67140513 4.13971866 -2.875 6.8125 C-5.43982869 10.08507623 -6.97860831 12.91443323 -8 17 C-10 14 -10 14 -9.9375 11.625 C-8.6924304 8.13880512 -6.72455615 6.47110906 -4 4 C-3.236875 3.236875 -2.47375 2.47375 -1.6875 1.6875 C-1.130625 1.130625 -0.57375 0.57375 0 0 Z " fill="#F7F9FD" transform="translate(22,32)"/>
<path d="M0 0 C0.70125 0.144375 1.4025 0.28875 2.125 0.4375 C1.795 1.7575 1.465 3.0775 1.125 4.4375 C-0.195 4.4375 -1.515 4.4375 -2.875 4.4375 C-4.58278007 5.95306497 -4.58278007 5.95306497 -6 7.9375 C-7.5078125 9.90625 -7.5078125 9.90625 -8.875 11.4375 C-9.535 11.4375 -10.195 11.4375 -10.875 11.4375 C-8.60639174 6.57773254 -5.62562069 0.85607271 0 0 Z " fill="#70AABE" transform="translate(43.875,27.5625)"/>
<path d="M0 0 C1.32 0 2.64 0 4 0 C4 0.66 4 1.32 4 2 C4.66 2 5.32 2 6 2 C6 2.66 6 3.32 6 4 C4.68 4 3.36 4 2 4 C1.814375 5.6396875 1.814375 5.6396875 1.625 7.3125 C1 11 1 11 -1 14 C-1 13.34 -1 12.68 -1 12 C-1.66 12 -2.32 12 -3 12 C-1.125 8.125 -1.125 8.125 0 7 C0.04092937 4.66702567 0.04241723 2.33294775 0 0 Z " fill="#ADD3E1" transform="translate(55,31)"/>
<path d="M0 0 C0.66 0.66 1.32 1.32 2 2 C1.40832031 2.42410156 0.81664062 2.84820313 0.20703125 3.28515625 C-4.91833002 7.08946192 -8.58601897 10.60370741 -12 16 C-12.66 15.34 -13.32 14.68 -14 14 C-12.23304141 12.03804598 -10.46168211 10.08040373 -8.6875 8.125 C-8.18798828 7.56941406 -7.68847656 7.01382813 -7.17382812 6.44140625 C-4.8912844 3.93211977 -2.83639832 1.89093222 0 0 Z " fill="#AFA4C5" transform="translate(26,25)"/>
<path d="M0 0 C0.66 0 1.32 0 2 0 C2 1.98 2 3.96 2 6 C1.01 5.67 0.02 5.34 -1 5 C-1 5.66 -1 6.32 -1 7 C-2.98 7.99 -4.96 8.98 -7 10 C-5.32598022 6.04322598 -2.86850715 3.15535787 0 0 Z " fill="#BEE0EB" transform="translate(49,49)"/>
<path d="M0 0 C0.66 1.32 1.32 2.64 2 4 C0.25 6 0.25 6 -2 8 C-3.32 8 -4.64 8 -6 8 C-6 7.34 -6 6.68 -6 6 C-5.34 6 -4.68 6 -4 6 C-3.71125 5.38125 -3.4225 4.7625 -3.125 4.125 C-2 2 -2 2 0 0 Z " fill="#290E0F" transform="translate(26,50)"/>
<path d="M0 0 C3 1 3 1 3 1 Z M-1 1 C-0.01 1.33 0.98 1.66 2 2 C2 2.66 2 3.32 2 4 C3.65 4 5.3 4 7 4 C6.67 4.99 6.34 5.98 6 7 C4.35 7.33 2.7 7.66 1 8 C0.71125 7.38125 0.4225 6.7625 0.125 6.125 C-0.93720042 3.86674235 -0.93720042 3.86674235 -3 2 C-2.34 1.67 -1.68 1.34 -1 1 Z " fill="#E5EEFC" transform="translate(49,22)"/>
<path d="M0 0 C0.33 0 0.66 0 1 0 C1.06058594 0.83144531 1.12117187 1.66289063 1.18359375 2.51953125 C1.26738281 3.60621094 1.35117188 4.69289063 1.4375 5.8125 C1.55931641 7.43091797 1.55931641 7.43091797 1.68359375 9.08203125 C1.90212461 12.05989905 1.90212461 12.05989905 3 15 C2.01 15 1.02 15 0 15 C-1.0024305 9.65370398 -0.84888195 5.37625234 0 0 Z " fill="#B1A8C7" transform="translate(9,52)"/>
<path d="M0 0 C0.721875 0.61875 1.44375 1.2375 2.1875 1.875 C4.78381938 3.83666353 6.94671666 4.95316 10 6 C10 6.33 10 6.66 10 7 C3.55192878 6.39169139 3.55192878 6.39169139 1.0625 4.625 C0 3 0 3 0 0 Z " fill="#8D7FAC" transform="translate(11,67)"/>
<path d="M0 0 C0.33 0.66 0.66 1.32 1 2 C0.67 2.99 0.34 3.98 0 5 C0.66 5.66 1.32 6.32 2 7 C1.01 7.33 0.02 7.66 -1 8 C-1.99 7.34 -2.98 6.68 -4 6 C-4 5.34 -4 4.68 -4 4 C-3.34 4 -2.68 4 -2 4 C-1.34 2.68 -0.68 1.36 0 0 Z " fill="#F0F9FB" transform="translate(19,52)"/>
<path d="M0 0 C0 0.66 0 1.32 0 2 C0.99 1.67 1.98 1.34 3 1 C2.34 2.32 1.68 3.64 1 5 C-0.65 4.67 -2.3 4.34 -4 4 C-4.33 3.01 -4.66 2.02 -5 1 C-2 0 -2 0 0 0 Z " fill="#A7CFE0" transform="translate(34,64)"/>
</svg>
